<svg width="332" height="303" viewBox="0 0 332 303" fill="none" xmlns="http://www.w3.org/2000/svg">
<path d="M317.318 92.4561H261.045C253.483 92.4561 247.352 98.5835 247.352 106.142C247.352 113.701 253.483 119.828 261.045 119.828H317.318C324.88 119.828 331.01 113.701 331.01 106.142C331.01 98.5835 324.88 92.4561 317.318 92.4561Z" fill="white" fill-opacity="0.07"/>
<path d="M301.801 167.477H262.091C254.529 167.477 248.398 173.605 248.398 181.163C248.398 188.722 254.529 194.849 262.091 194.849H301.801C309.363 194.849 315.494 188.722 315.494 181.163C315.494 173.605 309.363 167.477 301.801 167.477Z" fill="white" fill-opacity="0.07"/>
<path d="M209.761 95.7551H57.2113C49.6491 95.7551 43.5187 101.883 43.5187 109.441C43.5187 117 49.6491 123.127 57.2113 123.127H209.761C217.324 123.127 223.454 117 223.454 109.441C223.454 101.883 217.324 95.7551 209.761 95.7551Z" fill="white" fill-opacity="0.07"/>
<path d="M147.655 60.7124H44.0953C36.5331 60.7124 30.4027 66.8398 30.4027 74.3983C30.4027 81.9569 36.5331 88.0842 44.0953 88.0842H147.655C155.217 88.0842 161.348 81.9569 161.348 74.3983C161.348 66.8398 155.217 60.7124 147.655 60.7124Z" fill="white" fill-opacity="0.07"/>
<path d="M47.9577 130.785H13.6926C6.13039 130.785 0 136.912 0 144.471C0 152.029 6.13039 158.156 13.6926 158.156H47.9577C55.52 158.156 61.6503 152.029 61.6503 144.471C61.6503 136.912 55.52 130.785 47.9577 130.785Z" fill="white" fill-opacity="0.07"/>
<path d="M174.584 25.5486H124.964C117.401 25.5486 111.271 31.676 111.271 39.2345C111.271 46.793 117.401 52.9204 124.964 52.9204H174.584C182.147 52.9204 188.277 46.793 188.277 39.2345C188.277 31.676 182.147 25.5486 174.584 25.5486Z" fill="white" fill-opacity="0.07"/>
<path d="M283.696 130.691H158.505C150.942 130.691 144.812 136.818 144.812 144.377C144.812 151.935 150.942 158.063 158.505 158.063H283.696C291.258 158.063 297.389 151.935 297.389 144.377C297.389 136.818 291.258 130.691 283.696 130.691Z" fill="white" fill-opacity="0.07"/>
<path d="M215.206 270.353C239.668 264.734 256.378 254.931 267.818 239.535C274.201 230.925 278.399 220.746 281.282 206.758L249.056 206.785C246.4 218.332 239.306 227.183 227.974 233.097C214.63 240.058 199.958 241.627 185.783 243.142C184.683 243.263 183.57 243.384 182.47 243.504C178.313 243.96 177.562 240.728 177.2 239.186C173.713 224.166 165.103 212.833 151.638 205.484C150.579 204.908 149.13 203.942 148.822 202.319C148.527 200.75 149.452 199.382 150.297 198.376C157.029 190.316 160.892 180.647 163.708 171.93H130.261C125.983 180.956 118.848 187.487 108.482 191.885C93.354 198.309 77.5425 199.141 61.4761 194.326C49.3794 190.705 42.1106 183.195 39.8173 171.984L8.19415 171.93C12.1906 200.656 29.1019 218.801 58.4988 225.882C72.5401 229.262 87.1984 229.047 101.374 228.846L103.573 228.819C105.062 228.793 106.564 228.766 108.052 228.725C110.238 228.672 112.451 228.618 114.678 228.618C119.358 228.618 124.092 228.873 128.813 229.906C140.829 232.561 147.052 240.125 147.28 252.396C147.481 262.736 143.753 272.231 135.88 281.444C129.631 288.766 121.987 294.533 114.597 300.126C113.457 300.984 112.304 301.869 111.137 302.741L158.826 302.674C165.586 294.909 170.333 287.332 173.324 279.513C174.799 275.664 177.401 274.993 180.002 274.832C190.53 274.216 202.935 273.196 215.206 270.38V270.353Z" fill="white" fill-opacity="0.07"/>
<path d="M246.923 78.4685C268.797 78.5758 286.58 61.3561 286.754 39.9119C286.928 18.0385 269.481 0.134871 247.835 0.000761009C225.989 -0.133349 207.978 17.4753 207.964 38.9999C207.938 60.6721 225.412 78.3612 246.937 78.4685H246.923Z" fill="white" fill-opacity="0.07"/>
</svg>
