<svg width="303" height="278" viewBox="0 0 303 278" fill="none" xmlns="http://www.w3.org/2000/svg">
<path d="M53.2203 11.4765C53.2203 11.0665 53.2404 10.6666 53.2904 10.2666L53.0203 12.2566C53.0703 11.9366 53.1503 11.6465 53.2703 11.3465L52.5103 13.1366C52.9503 12.2666 51.1603 14.6165 51.7303 14.0865C52.1403 13.6965 49.9304 15.2965 50.7804 14.8765L48.9903 15.6366C49.2103 15.5566 49.4202 15.4966 49.6502 15.4566L47.6602 15.7265C48.9202 15.5565 50.2203 15.7465 51.4803 15.8365C52.9703 15.9365 54.4603 16.0566 55.9403 16.1966C58.8903 16.4666 61.8303 16.7965 64.7703 17.1865L62.7804 16.9165C79.3704 19.1565 95.6404 23.4365 111.07 29.9365L109.28 29.1765C116.23 32.1265 123 35.4865 129.54 39.2765C132.83 41.1865 136.05 43.1865 139.22 45.2965C140.82 46.3565 142.4 47.4466 143.97 48.5666C144.78 49.1466 145.57 49.7866 146.41 50.3266C144.71 49.2366 145.39 49.5665 145.91 50.0265C146.41 50.5865 146.21 50.3265 145.31 49.2365C145.42 49.4065 145.52 49.5865 145.6 49.7765L144.84 47.9865C145 48.3965 145.11 48.7965 145.18 49.2265L144.91 47.2365C145.18 50.2965 144.92 53.4865 144.91 56.5565C144.9 61.0865 144.89 65.6066 144.89 70.1366C144.88 82.5866 144.88 95.0365 144.88 107.497C144.88 122.117 144.88 136.737 144.89 151.357C144.89 165.267 144.9 179.177 144.91 193.097C144.91 203.567 144.91 214.047 144.91 224.517C144.91 225.777 145.04 227.077 144.94 228.337L145.21 226.347C145.15 226.707 145.08 227.007 144.95 227.347L145.71 225.557C145.52 225.947 145.33 226.267 145.07 226.617L156.85 225.097C142.45 213.597 125.04 206.757 107.25 202.437C92.3103 198.807 76.9505 196.847 61.6305 195.807C57.1105 195.497 52.5604 195.447 48.0504 195.037L50.0404 195.307C49.6604 195.257 49.3103 195.177 48.9503 195.047L50.7403 195.807C50.1003 195.467 50.4203 195.747 51.7203 196.637C52.6203 197.947 52.9004 198.297 52.5504 197.677L53.3104 199.467C53.1904 199.187 53.1304 198.917 53.0904 198.617L53.3604 200.607C53.0804 197.667 53.3404 194.587 53.3604 191.637C53.3704 186.927 53.3805 182.207 53.3905 177.497C53.4105 163.957 53.4102 150.417 53.4102 136.877C53.4102 120.787 53.4005 104.697 53.3905 88.6065C53.3805 73.6865 53.3604 58.7665 53.3404 43.8465C53.3204 33.7965 53.3103 23.7466 53.2703 13.7066C53.2703 12.9766 53.2703 12.2466 53.2703 11.5166C53.2503 7.59656 49.8303 3.83656 45.7703 4.01656C41.7104 4.19656 38.2503 7.31656 38.2703 11.5166C38.2903 16.2566 38.3004 21.0065 38.3204 25.7465C38.3404 32.9965 38.3503 40.2566 38.3603 47.5066C38.3703 56.3766 38.3903 65.2565 38.3903 74.1265C38.4003 83.8866 38.4104 93.6465 38.4204 103.407C38.4204 113.137 38.4304 122.867 38.4304 132.607C38.4304 141.547 38.4304 150.477 38.4304 159.417C38.4304 166.777 38.4304 174.127 38.4104 181.487C38.4104 186.377 38.4003 191.257 38.3703 196.146C38.3603 198.527 38.1003 201.227 38.8903 203.467C39.9803 206.577 42.3805 208.947 45.6405 209.717C46.8305 209.997 48.0704 210.076 49.2904 210.146C50.3204 210.206 51.3505 210.257 52.3805 210.307C59.7705 210.667 67.1604 211.157 74.5204 211.957C76.8904 212.217 79.2504 212.497 81.6104 212.817L79.6204 212.547C92.1304 214.237 104.57 216.747 116.57 220.687C120.11 221.847 123.6 223.146 127.03 224.587L125.24 223.827C129.25 225.517 133.18 227.417 136.96 229.567C138.77 230.597 140.55 231.697 142.29 232.857C143.2 233.457 144.09 234.087 144.97 234.727C145.36 235.017 145.75 235.307 146.15 235.597C147.19 236.367 145.69 235.127 145.53 235.117C145.73 235.127 146.15 235.607 146.29 235.717C148.23 237.267 150.06 238.117 152.59 237.777C155.12 237.437 156.61 236.157 158.07 234.197C160.2 231.317 159.96 227.887 159.96 224.537C159.96 223.047 159.96 221.567 159.96 220.077C159.96 216.527 159.96 212.977 159.96 209.427C159.96 200.687 159.96 191.947 159.96 183.217C159.96 173.017 159.96 162.817 159.95 152.617C159.94 142.417 159.95 131.557 159.95 121.017C159.95 111.087 159.95 101.157 159.95 91.2365C159.95 83.0065 159.95 74.7765 159.97 66.5565C159.97 61.0865 159.98 55.6265 160.01 50.1565C160.01 48.4465 160.03 46.8065 159.69 45.0965C158.71 40.1765 154.35 37.5565 150.56 34.8965C144.63 30.7465 138.45 26.9265 132.07 23.4965C119.26 16.6165 105.6 11.1765 91.5504 7.39651C84.6504 5.54651 77.6504 4.08655 70.5904 3.00655C66.5204 2.38655 62.4404 1.85654 58.3504 1.43654C56.5904 1.25654 54.8204 1.09651 53.0504 0.966513C51.3904 0.836513 49.6603 0.576513 47.9903 0.716513C45.3403 0.936513 42.8803 1.72652 41.0103 3.72652C39.0103 5.87652 38.3204 8.64655 38.2904 11.5066C38.2604 15.4266 41.7604 19.1866 45.7904 19.0066C49.8204 18.8266 53.2504 15.7166 53.2904 11.5066L53.2203 11.4765Z" fill="#20AAA1"/>
<path d="M144.93 226.166C144.79 237.736 144.781 249.326 144.881 260.896C144.901 263.216 145.2 265.707 144.95 268.007L145.22 266.017C145.17 266.307 145.11 266.576 145.01 266.846L145.77 265.057C145.45 265.687 145.76 265.326 146.68 263.966C148.05 263.026 148.441 262.727 147.84 263.067L149.631 262.307C149.531 262.346 149.43 262.386 149.33 262.396L151.32 262.127C151.06 262.157 150.83 262.147 150.57 262.127L152.56 262.396C151.92 262.276 151.32 262.046 150.72 261.796L152.51 262.557C135.11 254.816 117.2 248.296 98.7104 243.676C80.1504 239.036 61.1105 236.287 42.0405 234.817C36.5805 234.397 31.1104 234.087 25.6404 233.827C20.1704 233.567 15.0505 233.636 9.82049 233.096L11.8105 233.367C11.5005 233.327 11.2004 233.266 10.9004 233.166L12.6905 233.926C12.3405 233.777 11.8305 233.366 12.9505 234.226C13.4005 234.486 13.7604 234.846 14.0304 235.307C14.5004 235.997 14.6305 236.136 14.4105 235.726L15.1705 237.517C15.0505 237.197 14.9805 236.896 14.9305 236.557L15.2005 238.546C14.9505 235.926 15.1605 233.197 15.1605 230.567C15.1605 227.657 15.1605 224.746 15.1605 221.836C15.1605 216.096 15.1605 210.357 15.1605 204.617C15.1505 193.217 15.1204 181.826 15.1004 170.426C15.0504 147.626 15.0505 124.826 15.0705 102.026C15.0705 95.6165 15.0705 89.2065 15.0705 82.8065C15.0705 79.6465 15.0605 76.4865 15.0505 73.3165C15.0405 70.3265 14.7704 67.2065 15.1004 64.2265L14.8305 66.2165C14.9005 65.7165 15.0105 65.2565 15.2005 64.7865L14.4405 66.5765C15.0405 65.3665 13.3704 67.7565 13.7704 67.3465C14.2004 66.9165 11.7804 68.6065 12.9704 68.0265L11.1805 68.7865C11.5305 68.6465 11.8804 68.5565 12.2604 68.5065L10.2704 68.7765C12.0504 68.6065 13.9604 68.9565 15.7504 69.0365C18.1704 69.1465 20.6004 69.2165 23.0304 69.2765C28.6304 69.4165 34.2404 69.5065 39.8504 69.5465C41.8004 69.5665 43.7504 69.5865 45.7104 69.5465C49.6304 69.4965 53.3904 66.1365 53.2104 62.0465C53.0304 57.9565 49.9104 54.4865 45.7104 54.5465C35.3404 54.6865 24.8904 54.5365 14.5304 53.9665C11.2604 53.7865 7.9004 53.3965 4.9804 55.3165C2.0604 57.2365 0.6704 59.9465 0.2304 63.2165C-0.1196 65.8165 0.0304582 68.4365 0.0404582 71.0565C0.0904582 81.7865 0.0804875 92.5265 0.0704875 103.267C0.0504875 124.737 0.040385 146.196 0.090385 167.666C0.140385 189.126 0.190453 210.596 0.160453 232.057C0.160453 234.896 -0.189571 238.037 0.510429 240.817C1.37043 244.247 3.93039 246.837 7.35039 247.757C10.0404 248.477 13.1705 248.276 15.9405 248.396C18.7105 248.516 21.2505 248.627 23.9105 248.747C34.4205 249.237 44.9306 249.907 55.3906 251.077C57.9206 251.357 60.4504 251.677 62.9804 252.007L60.9904 251.736C82.0104 254.576 102.581 259.527 122.591 266.567C128.271 268.567 133.9 270.727 139.45 273.057L137.66 272.296C139.41 273.036 141.16 273.797 142.9 274.567C144.64 275.337 146.461 276.337 148.371 276.807C153.421 278.047 158.63 275.257 159.7 269.997C160.33 266.877 159.92 263.427 159.9 260.257C159.83 251.957 159.86 243.656 159.9 235.356C159.91 232.296 159.92 229.226 159.96 226.166C160.01 222.246 156.48 218.486 152.46 218.666C148.44 218.846 145.01 221.956 144.96 226.166H144.93Z" fill="#20AAA1"/>
<path d="M249.18 199.567C249.18 199.937 249.181 200.307 249.131 200.677L249.4 198.687C249.36 198.987 249.29 199.257 249.18 199.536L249.94 197.747C249.59 198.367 249.87 198.017 250.77 196.707C252.07 195.817 252.4 195.547 251.75 195.877L253.54 195.117C253.18 195.257 252.83 195.327 252.45 195.377L254.44 195.107C250.6 195.457 246.721 195.507 242.871 195.747C236.411 196.147 229.95 196.726 223.53 197.526C206.47 199.646 189.401 202.966 173.391 209.406C163.381 213.436 154.091 218.427 145.641 225.177L157.42 226.697C157.16 226.347 156.96 226.027 156.78 225.637L157.54 227.427C157.42 227.087 157.34 226.777 157.28 226.427L157.55 228.417C157.36 226.137 157.581 223.717 157.581 221.427C157.581 219.137 157.581 216.817 157.581 214.507C157.581 208.927 157.581 203.337 157.581 197.757C157.581 184.067 157.581 170.377 157.601 156.687C157.601 141.997 157.611 127.307 157.611 112.617C157.611 99.7965 157.611 86.9765 157.611 74.1565C157.611 65.9465 157.61 57.7265 157.56 49.5165C157.56 48.7865 157.531 48.0465 157.591 47.3165L157.32 49.3065C157.39 48.8665 157.49 48.4765 157.66 48.0665L156.9 49.8565C156.98 49.6665 157.08 49.4965 157.19 49.3165C156.3 50.4065 156.101 50.6665 156.591 50.1065C157.071 49.6865 157.911 49.2365 156.091 50.4065C156.931 49.8665 157.72 49.2265 158.53 48.6465C160.04 47.5765 161.561 46.5265 163.101 45.4965C166.321 43.3465 169.61 41.3065 172.95 39.3565C179.48 35.5665 186.25 32.2065 193.21 29.2565L191.42 30.0165C206.86 23.5165 223.12 19.2365 239.71 16.9965L237.72 17.2665C240.66 16.8765 243.6 16.5465 246.55 16.2765C247.97 16.1465 249.38 16.0365 250.8 15.9365C252.13 15.8465 253.511 15.6365 254.831 15.8165L252.841 15.5465C253.071 15.5965 253.28 15.6465 253.5 15.7265L251.71 14.9665C252.58 15.3865 250.24 13.6065 250.76 14.1765C251.15 14.6065 249.54 12.3665 249.98 13.2265L249.22 11.4365C249.34 11.7365 249.41 12.0265 249.47 12.3465L249.2 10.3565C249.42 12.1865 249.26 14.1165 249.25 15.9565C249.25 18.0065 249.24 20.0665 249.23 22.1165C249.22 27.5765 249.2 33.0265 249.19 38.4865C249.16 52.8965 249.151 67.3065 249.131 81.7165C249.111 97.8665 249.101 114.006 249.101 130.156C249.101 144.326 249.101 158.486 249.101 172.656C249.101 181.146 249.1 189.627 249.16 198.117C249.16 198.597 249.16 199.077 249.17 199.557C249.21 203.477 252.59 207.237 256.67 207.057C260.75 206.877 264.21 203.757 264.17 199.557C264.09 190.797 264.111 182.046 264.101 173.286C264.091 157.557 264.091 141.826 264.101 126.086C264.101 108.416 264.121 90.7465 264.141 73.0765C264.161 58.2065 264.18 43.3365 264.21 28.4565C264.22 23.6665 264.23 18.8865 264.25 14.0965C264.25 13.2465 264.27 12.4065 264.26 11.5565C264.22 6.66651 261.8 2.30652 256.82 1.06652C254.95 0.596524 253.1 0.756531 251.22 0.886531C249.52 1.00653 247.821 1.1465 246.121 1.2965C242.221 1.6565 238.34 2.14652 234.47 2.68652C208.47 6.33652 183.221 15.2765 160.871 29.0965C158.041 30.8465 155.26 32.6765 152.53 34.5665C148.76 37.1865 144.84 39.5365 143.18 44.0565C142.25 46.5965 142.55 49.6065 142.56 52.2865C142.58 57.6765 142.591 63.0765 142.591 68.4665C142.611 84.9765 142.611 101.497 142.601 118.007C142.601 137.117 142.591 156.227 142.581 175.327C142.581 190.617 142.571 205.917 142.581 221.207C142.581 225.467 141.82 230.646 144.47 234.227C145.92 236.187 147.46 237.477 149.95 237.807C152.44 238.137 154.31 237.297 156.25 235.747C156.46 235.577 156.681 235.417 156.881 235.247C157.561 234.697 155.33 236.426 156.26 235.727C156.69 235.396 157.13 235.077 157.57 234.757C158.41 234.147 159.261 233.557 160.121 232.977C161.901 231.786 163.731 230.656 165.591 229.596C169.371 227.436 173.3 225.547 177.31 223.857L175.52 224.617C187.5 219.597 200.17 216.347 212.94 214.117C216.26 213.537 219.59 213.027 222.93 212.577L220.94 212.846C231.43 211.447 241.96 210.776 252.52 210.216C254.03 210.136 255.59 210.096 257.05 209.716C261.83 208.496 264.19 204.197 264.19 199.536C264.19 195.617 260.74 191.857 256.69 192.036C252.64 192.216 249.19 195.337 249.19 199.536L249.18 199.567Z" fill="#20AAA1"/>
<path d="M256.801 69.6365C266.491 69.7665 276.23 69.5464 285.921 69.1564C287.971 69.0764 290.191 68.6665 292.241 68.8565L290.251 68.5864C290.631 68.6364 290.981 68.7265 291.331 68.8665L289.541 68.1065C290.731 68.6965 288.311 66.9965 288.741 67.4265C289.151 67.8365 287.471 65.4464 288.071 66.6564L287.311 64.8665C287.501 65.3265 287.611 65.7965 287.681 66.2965L287.41 64.3065C287.69 66.7965 287.471 69.3864 287.461 71.8964C287.451 74.8064 287.441 77.7265 287.431 80.6365C287.421 86.3765 287.421 92.1165 287.431 97.8665C287.431 109.266 287.461 120.666 287.471 132.066C287.471 154.866 287.391 177.656 287.351 200.456C287.351 206.867 287.331 213.266 287.331 219.676C287.331 222.836 287.331 225.996 287.331 229.156C287.331 232.316 287.591 235.526 287.291 238.636L287.561 236.646C287.511 236.986 287.441 237.286 287.321 237.606L288.081 235.816L287.991 235.996C288.371 235.296 288.891 234.736 289.541 234.316C290.621 233.486 290.161 233.867 289.801 234.016L291.591 233.256C291.291 233.356 290.991 233.417 290.681 233.456L292.671 233.186C288.021 233.666 283.271 233.606 278.601 233.826C273.931 234.046 268.971 234.306 264.171 234.636C254.311 235.306 244.491 236.356 234.701 237.756C216.231 240.396 198.121 244.716 180.431 250.646C170.071 254.126 159.961 258.196 149.981 262.646L151.771 261.886C151.171 262.136 150.571 262.366 149.931 262.486L151.92 262.216C151.66 262.246 151.431 262.256 151.17 262.216L153.16 262.486C153.06 262.466 152.961 262.436 152.861 262.396L154.65 263.156C154.05 262.816 154.431 263.116 155.811 264.056C156.731 265.416 157.041 265.776 156.721 265.146L157.481 266.936C157.381 266.666 157.321 266.396 157.271 266.106L157.541 268.096C157.321 266.076 157.581 263.916 157.601 261.886C157.631 258.936 157.641 255.986 157.641 253.036C157.651 246.306 157.641 239.576 157.601 232.846C157.591 230.646 157.581 228.446 157.551 226.256C157.501 222.336 154.141 218.576 150.051 218.756C145.961 218.936 142.501 222.056 142.551 226.256C142.721 239.706 142.861 253.186 142.481 266.626C142.421 268.816 142.771 271.117 143.931 273.016C145.611 275.766 148.531 277.246 151.711 277.236C154.321 277.236 156.641 275.996 158.951 274.956C160.901 274.076 162.871 273.226 164.841 272.386L163.051 273.146C182.521 264.956 202.871 258.706 223.621 254.726C229.561 253.586 235.531 252.626 241.521 251.816L239.531 252.086C249.861 250.706 260.231 249.806 270.631 249.226C276.021 248.926 281.421 248.686 286.821 248.456C289.521 248.337 292.53 248.516 295.16 247.826C298.53 246.946 301.211 244.306 302.001 240.886C302.651 238.066 302.351 234.996 302.351 232.126C302.351 229.256 302.351 226.636 302.351 223.886C302.351 218.566 302.351 213.236 302.351 207.916C302.361 197.186 302.38 186.456 302.41 175.726C302.46 154.256 302.491 132.796 302.461 111.326C302.451 100.586 302.431 89.8565 302.461 79.1165C302.461 76.3665 302.481 73.6265 302.491 70.8765C302.501 67.9965 302.63 65.1465 302.16 62.2965C301.21 56.4765 295.721 53.3665 290.181 53.8765C285.441 54.3065 280.641 54.3165 275.881 54.4165C270.261 54.5265 264.641 54.6165 259.011 54.6265C258.281 54.6265 257.551 54.6265 256.811 54.6265C252.891 54.5765 249.131 58.1165 249.311 62.1265C249.491 66.1365 252.601 69.5665 256.811 69.6265L256.801 69.6365Z" fill="#20AAA1"/>
<path d="M188.28 122.967C187.77 122.447 187.27 121.927 186.8 121.377C186.59 121.137 186.261 120.837 186.111 120.547C186.161 120.657 186.77 121.447 186.24 120.707C185.42 119.557 184.66 118.377 184 117.127C183.7 116.557 183.44 115.987 183.17 115.407C182.85 114.737 183.6 116.567 183.21 115.487C183.09 115.167 182.961 114.837 182.851 114.517C182.401 113.217 182.04 111.887 181.78 110.537C181.73 110.257 181.681 109.977 181.631 109.697C181.481 108.777 181.371 109.617 181.641 109.837C181.401 109.647 181.48 108.117 181.47 107.797C181.41 106.547 181.43 105.297 181.54 104.047C181.55 103.917 181.541 103.107 181.641 103.027L181.55 103.677C181.58 103.447 181.62 103.227 181.66 103.007C181.75 102.447 181.87 101.887 182 101.327C182.31 99.9766 182.75 98.6865 183.22 97.3965C183.63 96.2765 182.73 98.3966 183.25 97.3166C183.38 97.0566 183.491 96.7965 183.621 96.5365C183.901 95.9665 184.2 95.3965 184.52 94.8465C184.81 94.3365 185.12 93.8465 185.45 93.3565C185.65 93.0665 185.86 92.7765 186.05 92.4865C186.37 92.0465 186.33 92.1065 185.91 92.6465C186.06 92.4565 186.211 92.2765 186.361 92.0865C187.251 91.0165 188.22 90.0565 189.24 89.1165C189.41 88.9665 189.99 88.5866 189.2 89.1366C189.54 88.9066 189.87 88.6666 190.21 88.4466C190.89 88.0066 191.6 87.6166 192.33 87.2566C192.69 87.0766 193.06 86.9065 193.43 86.7465C192.32 87.2465 193.56 86.7066 193.74 86.6366C194.38 86.3966 195.02 86.1765 195.66 85.9665C197.34 85.4165 199.05 84.9366 200.77 84.5066C202.49 84.0766 204.161 83.7165 205.871 83.3965C206.651 83.2565 207.42 83.1165 208.2 82.9865C208.67 82.9065 209.131 82.8366 209.601 82.7666C209.781 82.7366 211.691 82.4765 210.621 82.6165C214.541 82.1165 218.48 81.7765 222.42 81.4865C224.53 81.3365 226.61 81.2865 228.73 81.2965C229.72 81.2965 230.71 81.2965 231.7 81.2965C232.19 81.2965 232.69 81.2965 233.18 81.2865C233.44 81.2865 233.7 81.2865 233.96 81.2865C233 81.2565 232.141 80.8965 231.381 80.2265L230.091 78.0166C230.381 78.7366 230.21 76.6166 230.05 78.0066C230 78.4766 230.03 78.9765 230.02 79.4365C230 80.3965 229.97 81.3465 229.94 82.3065C229.87 84.3765 229.78 86.4365 229.66 88.4965C229.44 92.2965 229.081 96.0865 228.631 99.8765C228.451 101.437 228.78 98.8765 228.56 100.437C228.5 100.827 228.451 101.227 228.391 101.617C228.261 102.477 228.12 103.347 227.98 104.207C227.63 106.247 227.24 108.287 226.78 110.307C226.42 111.927 226.04 113.547 225.57 115.137C225.39 115.747 225.19 116.357 224.96 116.957L224.851 117.247C224.651 117.747 224.7 117.637 225 116.917C224.77 117.167 224.63 117.727 224.48 118.037C223.94 119.117 223.331 120.157 222.641 121.147C222.531 121.307 222.41 121.467 222.29 121.627C221.67 122.507 223.041 120.737 222.351 121.547C221.911 122.067 221.47 122.587 220.99 123.077C220.59 123.497 220.17 123.897 219.74 124.287C219.41 124.587 217.85 125.647 219.19 124.797C218.21 125.417 217.32 126.127 216.31 126.707C215.81 126.997 215.3 127.257 214.78 127.517C214.52 127.647 214.26 127.757 214 127.887C213.04 128.347 215.121 127.457 214.131 127.837C213.051 128.247 211.961 128.627 210.851 128.927C209.741 129.227 208.59 129.377 207.45 129.617C209.14 129.267 207.22 129.617 206.76 129.647C206.18 129.687 205.6 129.717 205.02 129.717C203.66 129.737 202.33 129.567 200.97 129.487C202.5 129.577 201.53 129.557 201.15 129.487C200.77 129.417 200.39 129.347 200.01 129.267C199.44 129.147 198.88 129.007 198.32 128.857C197.67 128.677 197.021 128.467 196.381 128.237C196.111 128.137 195.84 128.027 195.56 127.927C194.73 127.617 196.68 128.437 195.41 127.857C194.14 127.277 192.97 126.607 191.83 125.857C189.64 124.417 186.2 125.357 184.99 127.647C183.67 130.157 184.45 132.947 186.78 134.487C196.37 140.827 208.86 141.157 219.16 136.447C224.26 134.117 228.61 130.237 231.67 125.557C235.53 119.657 236.761 112.257 237.841 105.417C239.151 97.1165 239.76 88.7465 239.99 80.3565C240.06 77.7765 240.36 74.9366 238.32 72.9566C236.4 71.0866 233.9 71.2466 231.44 71.2566C227.22 71.2766 223.071 71.3765 218.861 71.7265C210.601 72.4165 202.311 73.4565 194.361 75.8565C190.801 76.9265 187.161 78.2565 184.141 80.4665C181.121 82.6765 178.47 85.6065 176.41 88.8665C169.44 99.9265 169.821 115.157 177.601 125.717C178.711 127.227 179.89 128.667 181.21 129.997C183.06 131.857 186.46 131.987 188.28 129.997C190.1 128.007 190.25 124.907 188.28 122.927V122.967Z" fill="#EAB54E"/>
<path d="M205.251 96.6066C201.511 99.3066 198.261 102.697 195.331 106.237C188.011 115.077 182.541 125.227 178.891 136.107C176.051 144.557 174.45 153.377 173.71 162.257C173.49 164.867 176.16 167.367 178.71 167.257C181.6 167.127 183.48 165.057 183.71 162.257C183.79 161.267 183.881 160.277 183.991 159.297C184.041 158.817 184.1 158.327 184.16 157.847C184.18 157.637 184.211 157.437 184.241 157.227C184.401 155.897 184.141 157.897 184.251 157.137C184.531 155.237 184.83 153.337 185.2 151.447C185.88 147.947 186.751 144.477 187.801 141.077C188.271 139.547 188.781 138.037 189.321 136.537C189.581 135.817 189.851 135.097 190.141 134.377C190.281 134.027 190.421 133.677 190.561 133.327C190.641 133.127 190.721 132.937 190.801 132.737C191.051 132.117 190.4 133.657 190.66 133.057C191.82 130.417 193.05 127.817 194.43 125.277C195.65 123.037 196.971 120.857 198.391 118.737C199.031 117.787 199.681 116.847 200.361 115.927C200.651 115.537 200.941 115.147 201.231 114.767C201.871 113.917 200.571 115.607 201.041 115.007C201.211 114.787 201.391 114.567 201.561 114.347C203.571 111.827 205.741 109.417 208.101 107.217C208.841 106.517 209.601 105.837 210.391 105.197C210.841 104.827 211.891 103.967 210.071 105.427C210.141 105.367 210.221 105.317 210.291 105.257C212.401 103.727 213.641 100.837 212.081 98.4166C210.731 96.3166 207.511 94.9866 205.241 96.6266L205.251 96.6066Z" fill="#EAB54E"/>
<path d="M68.2804 88.8965C69.6704 88.6065 71.0804 88.4065 72.4804 88.2165L70.4904 88.4865C79.7304 87.2565 89.1703 87.1965 98.4203 88.4265L96.4303 88.1565C103.16 89.0765 109.78 90.7265 116.06 93.3365L114.27 92.5765C116.69 93.5965 119.05 94.7565 121.32 96.0665C122.48 96.7365 123.62 97.4465 124.73 98.1965C125.24 98.5365 125.74 98.8965 126.24 99.2565C126.42 99.3865 126.921 99.8665 127.141 99.9165L126.21 99.1965C126.41 99.3465 126.6 99.5065 126.8 99.6565C128.42 100.946 129.951 101.856 132.101 101.856C133.941 101.856 136.14 101.036 137.4 99.6565C138.66 98.2765 139.691 96.3465 139.601 94.3565C139.521 92.5065 138.93 90.2665 137.4 89.0565C131.47 84.3465 125.16 80.7865 118.08 78.0765C112.44 75.9165 106.54 74.5265 100.57 73.6965C90.8905 72.3565 81.1504 72.1365 71.4404 73.3465C69.0604 73.6365 66.6505 73.9265 64.3005 74.4165C60.4505 75.2165 57.8705 79.9565 59.0605 83.6465C60.3805 87.7165 64.1705 89.7465 68.2905 88.8865L68.2804 88.8965Z" fill="#BA18DD"/>
<path d="M68.0803 116.396C69.4703 116.106 70.8802 115.906 72.2802 115.716L70.2902 115.986C79.5302 114.756 88.9701 114.696 98.2201 115.926L96.2302 115.656C102.96 116.576 109.58 118.226 115.86 120.836L114.07 120.077C116.49 121.097 118.85 122.257 121.12 123.567C122.28 124.237 123.42 124.947 124.53 125.697C125.04 126.037 125.54 126.397 126.04 126.757C126.22 126.887 126.72 127.366 126.94 127.416L126.01 126.697C126.21 126.847 126.4 127.006 126.6 127.156C128.22 128.446 129.75 129.356 131.9 129.356C133.74 129.356 135.94 128.536 137.2 127.156C138.46 125.776 139.49 123.846 139.4 121.856C139.32 120.006 138.73 117.766 137.2 116.556C131.27 111.846 124.96 108.287 117.88 105.577C112.24 103.417 106.34 102.027 100.37 101.197C90.6903 99.8565 80.9502 99.6365 71.2402 100.846C68.8602 101.136 66.4503 101.426 64.1003 101.916C60.2503 102.716 57.6703 107.456 58.8603 111.146C60.1803 115.216 63.9703 117.247 68.0903 116.387L68.0803 116.396Z" fill="#BA18DD"/>
<path d="M68.2804 145.716C69.6704 145.426 71.0804 145.226 72.4804 145.036L70.4904 145.306C79.7304 144.076 89.1703 144.016 98.4203 145.246L96.4303 144.976C103.16 145.896 109.78 147.546 116.06 150.156L114.27 149.396C116.69 150.416 119.05 151.576 121.32 152.886C122.48 153.556 123.62 154.266 124.73 155.016C125.24 155.356 125.74 155.716 126.24 156.076C126.42 156.206 126.921 156.686 127.141 156.736L126.21 156.016C126.41 156.166 126.6 156.326 126.8 156.476C128.42 157.766 129.951 158.676 132.101 158.676C133.941 158.676 136.14 157.856 137.4 156.476C138.66 155.096 139.691 153.166 139.601 151.176C139.521 149.326 138.93 147.086 137.4 145.876C131.47 141.166 125.16 137.606 118.08 134.896C112.44 132.736 106.54 131.346 100.57 130.516C90.8905 129.176 81.1504 128.956 71.4404 130.166C69.0604 130.456 66.6505 130.746 64.3005 131.236C60.4505 132.036 57.8705 136.776 59.0605 140.466C60.3805 144.536 64.1705 146.566 68.2905 145.706L68.2804 145.716Z" fill="#BA18DD"/>
</svg>
