<svg width="409" height="299" viewBox="0 0 409 299" fill="none" xmlns="http://www.w3.org/2000/svg">
<path d="M126.786 209.536C123.626 221.406 120.476 233.276 117.316 245.146C116.876 246.796 116.436 248.446 115.996 250.096C114.986 253.886 117.266 258.416 121.236 259.326C125.206 260.236 129.386 258.146 130.466 254.086C133.626 242.216 136.776 230.346 139.936 218.476C140.376 216.826 140.816 215.176 141.256 213.526C142.266 209.736 139.986 205.206 136.016 204.296C132.046 203.386 127.866 205.476 126.786 209.536Z" fill="#BA18DD"/>
<path d="M92.0461 86.4865C91.1561 93.4965 91.8562 100.967 93.3962 107.807C95.9462 119.157 102.236 129.406 112.056 135.836C119.226 140.536 127.766 142.527 136.206 143.137C140.126 143.417 143.876 139.487 143.706 135.637C143.516 131.327 140.406 128.437 136.206 128.137C135.046 128.057 133.896 127.937 132.746 127.797L134.736 128.067C130.806 127.537 126.946 126.587 123.286 125.047L125.076 125.807C122.826 124.847 120.676 123.677 118.686 122.267C118.486 122.127 118.286 121.977 118.086 121.827C116.806 120.907 119.496 122.977 118.636 122.257C118.206 121.897 117.766 121.546 117.346 121.166C116.556 120.466 115.796 119.717 115.086 118.937C114.746 118.567 114.416 118.197 114.096 117.817C113.896 117.587 113.716 117.347 113.516 117.106C112.806 116.257 114.776 118.806 114.136 117.906C113.496 117.006 112.916 116.207 112.366 115.317C111.296 113.587 110.376 111.776 109.586 109.906L110.346 111.697C108.666 107.667 107.606 103.426 107.016 99.1065L107.286 101.096C106.646 96.3065 106.436 91.2965 107.046 86.4865C107.266 84.7165 106.046 82.3765 104.846 81.1865C103.546 79.8865 101.406 78.9065 99.5461 78.9865C97.6861 79.0665 95.5962 79.7065 94.2462 81.1865C92.8062 82.7565 92.3161 84.3965 92.0461 86.4865Z" fill="#BA18DD"/>
<path d="M54.0661 185.577C54.4861 187.917 55.1862 190.237 55.9662 192.477C57.3362 196.377 59.0162 200.247 61.2262 203.747C64.0262 208.177 67.4862 211.957 71.7762 214.967C76.3862 218.197 82.0462 219.787 87.6362 219.967C91.6662 220.097 95.6861 220.167 99.6961 220.697L97.7062 220.427C100.806 220.847 103.886 221.527 106.776 222.747L104.986 221.987C106.166 222.497 107.306 223.077 108.376 223.777C108.636 223.947 108.896 224.127 109.146 224.297C110.386 225.157 107.616 223.037 108.526 223.797C109.036 224.227 109.536 224.647 110.006 225.117C110.476 225.587 110.896 226.047 111.316 226.547C112.376 227.827 110.366 225.247 110.876 225.967C111.076 226.247 111.266 226.517 111.456 226.797C112.296 228.067 113.006 229.417 113.606 230.817L112.846 229.027C114.226 232.297 115.006 235.777 115.486 239.287L115.216 237.297C116.006 243.277 115.946 249.347 115.576 255.357C115.336 259.277 119.196 263.027 123.076 262.857C127.346 262.667 130.316 259.557 130.576 255.357C131.026 248.047 130.906 240.757 129.686 233.527C128.846 228.557 127.216 223.447 124.406 219.237C121.786 215.307 118.316 211.927 114.086 209.757C110.246 207.787 106.156 206.597 101.896 205.997C99.0462 205.597 96.2062 205.287 93.3362 205.147C90.6162 205.007 87.8562 205.117 85.1462 204.767L87.1362 205.037C85.2162 204.757 83.3661 204.257 81.5761 203.507L83.3662 204.267C82.4062 203.847 81.4761 203.377 80.5761 202.827C80.1561 202.567 79.7462 202.307 79.3462 202.017C79.1262 201.867 78.9161 201.697 78.6961 201.547C80.7761 203.007 79.8462 202.447 79.3762 202.067C77.8562 200.817 76.5262 199.397 75.2762 197.877C74.5462 196.987 75.8462 198.607 75.8962 198.687C75.7562 198.477 75.5861 198.277 75.4361 198.067C75.1661 197.687 74.8962 197.307 74.6462 196.917C74.1162 196.117 73.6162 195.307 73.1562 194.477C72.2762 192.907 71.4961 191.287 70.7961 189.637L71.5561 191.427C70.2461 188.277 69.1362 184.967 68.5262 181.597C68.2062 179.847 66.5661 177.987 65.0761 177.117C63.4662 176.177 61.0961 175.777 59.2961 176.357C57.4961 176.937 55.7261 178.067 54.8161 179.807C53.8261 181.677 53.6861 183.507 54.0561 185.587L54.0661 185.577Z" fill="#BA18DD"/>
<path d="M208.666 252.427C184.516 252.477 160.366 252.507 136.206 252.517C112.046 252.527 87.8963 252.517 63.7463 252.467C50.3063 252.447 36.7463 253.007 23.3963 251.237L25.3863 251.507C22.7963 251.157 20.0863 250.417 17.4763 250.477C14.1363 250.557 10.9063 252.107 9.24627 255.097C7.86627 257.577 7.98621 260.197 8.05621 262.917C8.11621 265.277 7.92623 267.647 8.07623 269.997C8.37623 274.627 9.49629 278.977 11.6363 283.107C13.6463 286.987 16.6162 290.097 20.0562 292.707C23.0662 294.997 26.7663 296.627 30.4763 297.367C35.4663 298.367 40.5763 298.087 45.6363 298.097C56.0463 298.127 66.4563 298.147 76.8663 298.167C97.6863 298.197 118.516 298.207 139.336 298.197C160.076 298.187 180.816 298.147 201.556 298.097C206.506 298.087 211.546 298.357 216.386 297.087C220.826 295.917 224.806 293.637 228.266 290.657C231.726 287.677 234.096 283.837 235.796 279.677C237.586 275.297 237.836 270.407 237.766 265.727C237.726 263.287 237.616 260.847 237.606 258.407C237.596 254.577 234.176 250.607 230.106 250.907C222.956 251.447 215.836 252.377 208.666 252.417C204.746 252.437 200.986 255.857 201.166 259.917C201.346 263.977 204.466 267.437 208.666 267.417C215.836 267.377 222.966 266.437 230.106 265.907L222.606 258.407C222.626 263.107 223.056 267.817 222.476 272.497L222.746 270.507C222.496 272.297 222.026 274.027 221.336 275.697L222.096 273.907C221.576 275.127 220.946 276.297 220.206 277.397C220.096 277.557 219.786 278.187 219.636 278.207C219.716 278.197 220.986 276.587 220.096 277.597C219.656 278.097 219.226 278.587 218.756 279.057C218.326 279.487 217.866 279.877 217.416 280.287C216.436 281.177 218.976 279.177 217.886 279.937C217.616 280.127 217.346 280.327 217.066 280.507C215.946 281.257 214.756 281.877 213.526 282.417L215.316 281.657C213.496 282.407 211.616 282.917 209.666 283.187L211.656 282.917C209.056 283.237 206.416 283.117 203.806 283.117C200.886 283.117 197.976 283.127 195.056 283.137C189.226 283.147 183.396 283.167 177.566 283.177C165.826 283.197 154.076 283.217 142.336 283.217C118.846 283.237 95.3563 283.217 71.8663 283.177C65.3663 283.167 58.8763 283.147 52.3763 283.137C49.0463 283.137 45.7163 283.117 42.3763 283.107C39.5163 283.107 36.6263 283.247 33.7863 282.877L35.7763 283.147C33.9363 282.877 32.1462 282.397 30.4262 281.697L32.2162 282.457C31.0562 281.957 29.9363 281.377 28.8863 280.687C28.6263 280.517 28.3763 280.327 28.1163 280.157C27.0763 279.437 29.5563 281.347 28.6563 280.567C28.1463 280.127 27.6463 279.687 27.1663 279.207C26.7263 278.767 26.3263 278.297 25.9163 277.827C24.9563 276.727 26.7562 279.027 26.3262 278.357C26.1562 278.097 25.9663 277.847 25.7863 277.587C25.0563 276.487 24.4363 275.317 23.9063 274.107L24.6663 275.897C23.8563 273.967 23.3063 271.957 23.0063 269.887L23.2763 271.877C23.0063 269.867 23.0262 267.877 23.0562 265.857C23.0862 263.837 22.8063 261.757 22.9963 259.767L22.7263 261.757C22.7663 261.487 22.8263 261.227 22.9163 260.967L22.1563 262.757C22.5563 261.927 20.7562 264.297 21.3062 263.787C21.6962 263.427 19.4863 265.017 20.2663 264.647L18.4763 265.407C18.6663 265.337 18.8363 265.297 19.0263 265.257L17.0363 265.527C17.6563 265.457 18.2663 265.507 18.8863 265.577L16.8963 265.307C23.3163 266.197 29.6862 267.097 36.1762 267.337C42.6662 267.577 48.5663 267.447 54.7563 267.457C67.1663 267.477 79.5763 267.497 91.9863 267.507C116.886 267.527 141.786 267.527 166.696 267.507C180.686 267.487 194.676 267.467 208.676 267.437C212.596 267.437 216.356 263.997 216.176 259.937C215.996 255.877 212.876 252.427 208.676 252.437L208.666 252.427Z" fill="#20AAA1"/>
<path d="M246.136 148.357L246.006 148.677L246.766 146.887C245.616 149.587 244.236 152.187 242.606 154.627C242.216 155.207 241.816 155.787 241.396 156.357C241.256 156.547 241.116 156.737 240.976 156.917L241.716 155.957C241.516 156.297 241.196 156.607 240.946 156.917C240.016 158.037 239.036 159.127 237.996 160.157C236.956 161.187 235.966 162.097 234.896 162.987C234.586 163.247 234.266 163.507 233.946 163.757C233.326 164.257 235.596 162.507 234.346 163.437C233.736 163.887 233.116 164.327 232.476 164.747C230.026 166.387 227.416 167.767 224.706 168.917L226.496 168.157C222.816 169.677 218.976 170.727 215.036 171.277L217.026 171.007C212.866 171.557 208.676 171.567 204.516 171.027L206.506 171.297C202.516 170.747 198.636 169.687 194.916 168.147L196.706 168.907C194.666 168.047 192.686 167.047 190.786 165.907C189.846 165.337 188.916 164.737 188.016 164.107C187.566 163.787 187.126 163.457 186.686 163.137C185.966 162.607 188.026 164.207 187.336 163.637C187.106 163.447 186.856 163.257 186.626 163.057C184.986 161.697 183.436 160.227 181.996 158.647C181.256 157.837 180.556 156.987 179.866 156.147C179.336 155.507 181.076 157.767 180.256 156.647C180.116 156.447 179.966 156.257 179.826 156.057C179.466 155.567 179.126 155.057 178.786 154.547C176.606 151.297 172.076 149.567 168.526 151.857C165.286 153.947 163.496 158.637 165.836 162.117C170.216 168.647 175.776 174.177 182.436 178.367C189.096 182.557 196.936 185.087 204.896 186.067C219.916 187.927 235.146 182.687 246.426 172.777C252.786 167.187 257.366 160.107 260.596 152.337C261.286 150.667 260.706 148.037 259.836 146.557C258.926 144.997 257.146 143.517 255.356 143.107C253.436 142.667 251.286 142.767 249.576 143.867C247.866 144.967 246.926 146.437 246.126 148.347L246.136 148.357Z" fill="#BA18DD"/>
<path d="M47.4062 172.977H70.1362C74.0562 172.977 77.8162 169.527 77.6362 165.477C77.4562 161.427 74.3362 157.977 70.1362 157.977H47.4062C43.4862 157.977 39.7262 161.427 39.9062 165.477C40.0862 169.527 43.2062 172.977 47.4062 172.977Z" fill="#20AAA1"/>
<path d="M224.526 134.417H247.256C251.176 134.417 254.936 130.967 254.756 126.917C254.576 122.867 251.456 119.417 247.256 119.417H224.526C220.606 119.417 216.846 122.867 217.026 126.917C217.206 130.967 220.326 134.417 224.526 134.417Z" fill="#20AAA1"/>
<path d="M7.50621 189.267H70.6262C74.5462 189.267 78.3062 185.817 78.1262 181.767C77.9462 177.717 74.8262 174.267 70.6262 174.267H7.50621C3.58621 174.267 -0.173787 177.717 0.00621332 181.767C0.186213 185.817 3.30621 189.267 7.50621 189.267Z" fill="#20AAA1"/>
<path d="M233.686 151.146H296.806C300.726 151.146 304.486 147.696 304.306 143.646C304.126 139.596 301.006 136.146 296.806 136.146H233.686C229.766 136.146 226.006 139.596 226.186 143.646C226.366 147.696 229.486 151.146 233.686 151.146Z" fill="#20AAA1"/>
<path d="M43.9562 84.2366H177.406C183.556 84.2366 189.706 84.3366 195.846 84.2366C195.936 84.2366 196.016 84.2366 196.106 84.2366C200.026 84.2366 203.786 80.7866 203.606 76.7366C203.426 72.6866 200.306 69.2366 196.106 69.2366H62.6562C56.5062 69.2366 50.3562 69.1366 44.2162 69.2366C44.1262 69.2366 44.0462 69.2366 43.9562 69.2366C40.0362 69.2366 36.2762 72.6866 36.4562 76.7366C36.6362 80.7866 39.7562 84.2366 43.9562 84.2366Z" fill="#20AAA1"/>
<path d="M27.2062 65.7466H99.6062C103.526 65.7466 107.286 62.2966 107.106 58.2466C106.926 54.1966 103.806 50.7466 99.6062 50.7466H27.2062C23.2862 50.7466 19.5262 54.1966 19.7062 58.2466C19.8862 62.2966 23.0062 65.7466 27.2062 65.7466Z" fill="#20AAA1"/>
<path d="M137.406 143.147C139.146 143.147 140.876 143.267 142.596 143.497L140.606 143.227C143.836 143.687 146.976 144.537 149.996 145.787L148.206 145.027C150.436 145.967 152.576 147.107 154.586 148.447C155.086 148.777 155.576 149.127 156.056 149.477C157.116 150.237 155.606 149.007 155.446 148.997C155.586 149.007 156.096 149.517 156.206 149.617C157.126 150.377 158.016 151.187 158.866 152.037C159.716 152.887 160.516 153.767 161.286 154.697C161.456 154.907 161.626 155.127 161.796 155.337C162.356 156.007 160.636 153.787 161.316 154.727C161.696 155.257 162.086 155.787 162.446 156.337C163.786 158.347 164.926 160.487 165.866 162.717L165.106 160.927C166.346 163.947 167.206 167.087 167.666 170.317L167.396 168.327C167.856 171.777 167.856 175.257 167.396 178.717L167.666 176.727C167.206 179.957 166.356 183.097 165.106 186.117L165.866 184.327C164.926 186.557 163.786 188.697 162.446 190.707C162.116 191.207 161.766 191.697 161.416 192.177C160.656 193.237 161.886 191.727 161.896 191.567C161.886 191.707 161.376 192.217 161.276 192.327C160.516 193.247 159.706 194.137 158.856 194.987C158.006 195.837 157.126 196.637 156.196 197.407C155.986 197.577 155.766 197.747 155.556 197.917C154.886 198.477 157.106 196.757 156.166 197.437C155.636 197.817 155.106 198.207 154.556 198.567C152.546 199.907 150.406 201.047 148.176 201.987L149.966 201.227C146.946 202.467 143.806 203.327 140.576 203.787L142.566 203.517C140.846 203.747 139.116 203.867 137.376 203.867C133.456 203.887 129.696 207.307 129.876 211.367C130.056 215.427 133.176 218.887 137.376 218.867C146.486 218.827 155.766 216.097 163.196 210.767C171.036 205.137 176.826 197.607 180.156 188.537C186.456 171.357 180.886 150.677 166.786 139.017C158.446 132.117 148.246 128.197 137.376 128.147C133.456 128.127 129.696 131.607 129.876 135.647C130.056 139.687 133.176 143.127 137.376 143.147H137.406Z" fill="#BA18DD"/>
<path d="M353.346 91.9466C353.346 95.7766 353.086 99.6066 352.576 103.407L352.846 101.417C351.846 108.667 349.906 115.757 347.086 122.517L347.846 120.727C346.196 124.637 344.256 128.427 342.036 132.047C340.946 133.817 339.796 135.557 338.576 137.247C338.286 137.647 337.996 138.047 337.706 138.437C337.576 138.617 337.446 138.787 337.316 138.957C336.546 139.987 338.366 137.627 337.786 138.347C337.106 139.197 336.426 140.057 335.716 140.887C333.006 144.097 330.046 147.107 326.886 149.877C326.146 150.527 325.396 151.157 324.636 151.777C324.256 152.087 323.866 152.397 323.486 152.697C323.056 153.047 322.216 153.627 324.096 152.227C323.836 152.427 323.576 152.627 323.316 152.817C321.646 154.067 319.936 155.247 318.186 156.367C314.186 158.917 309.976 161.117 305.616 162.957L307.406 162.197C300.646 165.027 293.566 166.957 286.306 167.957L288.296 167.687C280.686 168.707 272.976 168.707 265.376 167.687L267.366 167.957C260.116 166.957 253.026 165.017 246.266 162.197L248.056 162.957C244.146 161.307 240.356 159.367 236.736 157.147C234.966 156.057 233.226 154.907 231.536 153.687C231.136 153.397 230.736 153.107 230.346 152.817C230.166 152.687 229.996 152.557 229.826 152.427C228.796 151.657 231.156 153.477 230.436 152.897C229.586 152.217 228.726 151.537 227.896 150.827C224.686 148.117 221.676 145.157 218.906 141.997C218.256 141.257 217.626 140.507 217.006 139.747C216.696 139.367 216.386 138.977 216.086 138.597C215.736 138.167 215.156 137.327 216.556 139.207C216.356 138.947 216.156 138.687 215.966 138.427C214.716 136.757 213.536 135.047 212.416 133.297C209.866 129.297 207.666 125.087 205.826 120.727L206.586 122.517C203.756 115.757 201.826 108.677 200.826 101.417L201.096 103.407C200.076 95.7966 200.076 88.0866 201.096 80.4866L200.826 82.4766C201.826 75.2266 203.766 68.1366 206.586 61.3766L205.826 63.1666C207.476 59.2566 209.416 55.4666 211.636 51.8466C212.726 50.0766 213.876 48.3366 215.096 46.6466C215.386 46.2466 215.676 45.8466 215.966 45.4566C216.096 45.2766 216.226 45.1066 216.356 44.9366C217.126 43.9066 215.306 46.2666 215.886 45.5466C216.566 44.6966 217.246 43.8366 217.956 43.0066C220.666 39.7966 223.626 36.7866 226.786 34.0166C227.526 33.3666 228.276 32.7366 229.036 32.1166C229.416 31.8066 229.806 31.4966 230.186 31.1966C230.616 30.8466 231.456 30.2666 229.576 31.6666C229.836 31.4666 230.096 31.2666 230.356 31.0766C232.026 29.8266 233.736 28.6466 235.486 27.5266C239.486 24.9766 243.696 22.7766 248.056 20.9366L246.266 21.6966C253.026 18.8666 260.106 16.9366 267.366 15.9366L265.376 16.2066C272.986 15.1866 280.696 15.1866 288.296 16.2066L286.306 15.9366C293.556 16.9366 300.646 18.8766 307.406 21.6966L305.616 20.9366C309.526 22.5866 313.316 24.5266 316.936 26.7466C318.706 27.8366 320.446 28.9866 322.136 30.2066C322.536 30.4966 322.936 30.7866 323.326 31.0766C323.506 31.2066 323.676 31.3366 323.846 31.4666C324.876 32.2366 322.516 30.4166 323.236 30.9966C324.086 31.6766 324.946 32.3566 325.776 33.0666C328.986 35.7766 331.996 38.7366 334.766 41.8966C335.416 42.6366 336.046 43.3866 336.666 44.1466C336.976 44.5266 337.286 44.9166 337.586 45.2966C337.936 45.7266 338.516 46.5666 337.116 44.6866C337.316 44.9466 337.516 45.2066 337.706 45.4666C338.956 47.1366 340.136 48.8466 341.256 50.5966C343.806 54.5966 346.006 58.8066 347.846 63.1666L347.086 61.3766C349.916 68.1366 351.846 75.2166 352.846 82.4766L352.576 80.4866C353.086 84.2866 353.346 88.1166 353.346 91.9466C353.346 95.7766 356.786 99.6266 360.846 99.4466C364.906 99.2666 368.356 96.1466 368.346 91.9466C368.306 73.2866 362.576 54.5666 351.706 39.3566C340.686 23.9266 325.466 12.2666 307.636 5.75662C289.896 -0.723379 269.856 -1.28342 251.716 3.89658C233.576 9.07658 218.136 19.2366 206.576 33.2866C194.346 48.1466 187.036 66.1066 185.526 85.2966C184.016 104.487 188.686 123.167 198.386 139.187C208.086 155.207 221.916 167.577 238.486 175.057C247.596 179.167 256.966 181.737 266.886 182.907C276.466 184.037 286.216 183.447 295.656 181.527C313.536 177.887 330.316 168.457 342.906 155.267C355.496 142.077 364.326 124.897 367.106 106.757C367.856 101.847 368.336 96.9166 368.346 91.9466C368.346 88.0266 364.886 84.2666 360.846 84.4466C356.806 84.6266 353.356 87.7466 353.346 91.9466Z" fill="#EAB54E"/>
<path d="M330.616 156.987C332.776 159.407 334.926 161.827 337.086 164.247C342.266 170.057 347.436 175.867 352.616 181.687C358.846 188.687 365.076 195.687 371.316 202.677C376.726 208.757 382.136 214.827 387.556 220.907C390.176 223.857 392.726 226.897 395.446 229.767C395.486 229.807 395.516 229.847 395.556 229.887C398.176 232.827 403.526 232.757 406.166 229.887C409.046 226.747 408.956 222.417 406.166 219.277C404.006 216.857 401.856 214.437 399.696 212.017C394.516 206.207 389.346 200.397 384.166 194.577C377.936 187.577 371.706 180.577 365.466 173.587C360.056 167.507 354.646 161.437 349.226 155.357C346.606 152.407 344.056 149.367 341.336 146.497C341.296 146.457 341.266 146.417 341.226 146.377C338.606 143.437 333.256 143.507 330.616 146.377C327.736 149.517 327.826 153.847 330.616 156.987Z" fill="#EAB54E"/>
</svg>
