<svg width="482" height="246" viewBox="0 0 482 246" fill="none" xmlns="http://www.w3.org/2000/svg">
<path d="M461.517 97.2286H379.569C368.556 97.2286 359.629 106.145 359.629 117.143C359.629 128.141 368.556 137.057 379.569 137.057H461.517C472.53 137.057 481.457 128.141 481.457 117.143C481.457 106.145 472.53 97.2286 461.517 97.2286Z" fill="white" fill-opacity="0.07"/>
<path d="M439.119 206.171H380.881C369.791 206.171 360.8 215.087 360.8 226.086C360.8 237.084 369.791 246 380.881 246H439.119C450.209 246 459.2 237.084 459.2 226.086C459.2 215.087 450.209 206.171 439.119 206.171Z" fill="white" fill-opacity="0.07"/>
<path d="M304.607 101.914H83.1359C72.1571 101.914 63.2571 110.83 63.2571 121.829C63.2571 132.827 72.1571 141.743 83.1359 141.743H304.607C315.586 141.743 324.486 132.827 324.486 121.829C324.486 110.83 315.586 101.914 304.607 101.914Z" fill="white" fill-opacity="0.07"/>
<path d="M214.442 51.5429H64.3582C53.3987 51.5429 44.5142 60.4588 44.5142 71.4572C44.5142 82.4556 53.3987 91.3715 64.3582 91.3715H214.442C225.401 91.3715 234.286 82.4556 234.286 71.4572C234.286 60.4588 225.401 51.5429 214.442 51.5429Z" fill="white" fill-opacity="0.07"/>
<path d="M70.1665 153.457H20.0335C8.96931 153.457 0 162.373 0 173.371C0 184.37 8.96931 193.286 20.0335 193.286H70.1665C81.2307 193.286 90.2 184.37 90.2 173.371C90.2 162.373 81.2307 153.457 70.1665 153.457Z" fill="white" fill-opacity="0.07"/>
<path d="M254.118 0H181.653C170.61 0 161.657 8.91594 161.657 19.9143C161.657 30.9127 170.61 39.8286 181.653 39.8286H254.118C265.162 39.8286 274.114 30.9127 274.114 19.9143C274.114 8.91594 265.162 0 254.118 0Z" fill="white" fill-opacity="0.07"/>
<path d="M412.388 153.457H230.726C219.753 153.457 210.857 162.373 210.857 173.371C210.857 184.37 219.753 193.286 230.726 193.286H412.388C423.361 193.286 432.257 184.37 432.257 173.371C432.257 162.373 423.361 153.457 412.388 153.457Z" fill="white" fill-opacity="0.07"/>
</svg>
