<svg width="93" height="57" viewBox="0 0 93 57" fill="none" xmlns="http://www.w3.org/2000/svg">
<path d="M26.3726 20.9515C26.3726 22.0921 26.4959 23.0169 26.7117 23.6951C26.9583 24.3733 27.2666 25.1131 27.6981 25.9146C27.8523 26.1613 27.9139 26.4079 27.9139 26.6237C27.9139 26.9319 27.729 27.2402 27.3282 27.5485L25.3861 28.8432C25.1087 29.0282 24.8312 29.1207 24.5846 29.1207C24.2763 29.1207 23.9681 28.9665 23.6598 28.6891C23.2282 28.2267 22.8583 27.7334 22.55 27.2402C22.2417 26.7162 21.9335 26.1304 21.5944 25.4214C19.1899 28.2575 16.1688 29.6755 12.5312 29.6755C9.94174 29.6755 7.87632 28.9357 6.3658 27.456C4.85527 25.9763 4.08459 24.0034 4.08459 21.5372C4.08459 18.9169 5.00941 16.7898 6.88986 15.1868C8.77031 13.5838 11.2673 12.7823 14.4425 12.7823C15.4906 12.7823 16.5696 12.8748 17.7102 13.0289C18.8508 13.1831 20.0222 13.4297 21.2553 13.7071V11.4567C21.2553 9.11389 20.762 7.48006 19.8064 6.52442C18.8199 5.56878 17.1553 5.10637 14.7816 5.10637C13.7026 5.10637 12.5929 5.22968 11.4523 5.50713C10.3117 5.78457 9.20189 6.12367 8.12294 6.55525C7.62971 6.77104 7.25978 6.89434 7.04399 6.956C6.8282 7.01765 6.67407 7.04848 6.55076 7.04848C6.11918 7.04848 5.90339 6.74021 5.90339 6.09284V4.58231C5.90339 4.08908 5.96505 3.71916 6.11918 3.50337C6.27332 3.28758 6.55076 3.07179 6.98234 2.856C8.06129 2.30111 9.35602 1.8387 10.8665 1.46878C12.3771 1.06803 13.9801 0.883065 15.6756 0.883065C19.344 0.883065 22.026 1.7154 23.7523 3.38006C25.4478 5.04472 26.3109 7.57254 26.3109 10.9635V20.9515H26.3726ZM13.8568 25.6372C14.8741 25.6372 15.9222 25.4522 17.032 25.0823C18.1417 24.7124 19.1282 24.0342 19.9605 23.1094C20.4538 22.5237 20.8237 21.8763 21.0087 21.1364C21.1936 20.3966 21.3169 19.5026 21.3169 18.4545V17.1598C20.4229 16.944 19.4673 16.759 18.4808 16.6357C17.4944 16.5124 16.5387 16.4507 15.5831 16.4507C13.5177 16.4507 12.0072 16.8515 10.9899 17.6838C9.97257 18.5161 9.47933 19.6876 9.47933 21.2289C9.47933 22.6778 9.84926 23.7568 10.6199 24.4966C11.3598 25.2673 12.4387 25.6372 13.8568 25.6372ZM38.6109 28.9665C38.056 28.9665 37.6861 28.874 37.4395 28.6583C37.1929 28.4733 36.9771 28.0417 36.7921 27.456L29.5478 3.62667C29.3628 3.01013 29.2703 2.60938 29.2703 2.39359C29.2703 1.90036 29.5169 1.62291 30.0102 1.62291H33.0312C33.6169 1.62291 34.0177 1.7154 34.2335 1.93119C34.4801 2.11615 34.6651 2.54773 34.85 3.13344L40.029 23.541L44.838 3.13344C44.9921 2.5169 45.1771 2.11615 45.4237 1.93119C45.6703 1.74622 46.1019 1.62291 46.6568 1.62291H49.1229C49.7087 1.62291 50.1094 1.7154 50.356 1.93119C50.6026 2.11615 50.8184 2.54773 50.9417 3.13344L55.8124 23.7876L61.1455 3.13344C61.3305 2.5169 61.5463 2.11615 61.762 1.93119C62.0087 1.74622 62.4094 1.62291 62.9643 1.62291H65.8312C66.3245 1.62291 66.6019 1.86953 66.6019 2.39359C66.6019 2.54773 66.5711 2.70186 66.5402 2.88682C66.5094 3.07179 66.4478 3.3184 66.3245 3.6575L58.8951 27.4868C58.7102 28.1034 58.4944 28.5041 58.2478 28.6891C58.0011 28.874 57.6004 28.9974 57.0763 28.9974H54.4252C53.8395 28.9974 53.4387 28.9049 53.1921 28.6891C52.9455 28.4733 52.7297 28.0725 52.6064 27.456L47.8282 7.57254L43.0808 27.4252C42.9267 28.0417 42.7417 28.4425 42.4951 28.6583C42.2485 28.874 41.8169 28.9665 41.262 28.9665H38.6109ZM78.2237 29.7989C76.6207 29.7989 75.0177 29.6139 73.4763 29.244C71.935 28.874 70.7327 28.4733 69.9312 28.0109C69.438 27.7334 69.0989 27.4252 68.9756 27.1477C68.8523 26.8703 68.7906 26.562 68.7906 26.2846V24.7124C68.7906 24.065 69.0372 23.7568 69.4996 23.7568C69.6846 23.7568 69.8696 23.7876 70.0545 23.8492C70.2395 23.9109 70.5169 24.0342 70.8252 24.1575C71.8733 24.6199 73.0139 24.9898 74.2162 25.2365C75.4493 25.4831 76.6515 25.6064 77.8846 25.6064C79.8267 25.6064 81.3372 25.2673 82.3854 24.5891C83.4335 23.9109 83.9884 22.9244 83.9884 21.6605C83.9884 20.7974 83.7109 20.0883 83.156 19.5026C82.6012 18.9169 81.553 18.3928 80.0425 17.8996L75.5726 16.5124C73.3222 15.8034 71.6575 14.7552 70.6402 13.368C69.6229 12.0116 69.0989 10.5011 69.0989 8.8981C69.0989 7.60337 69.3763 6.46276 69.9312 5.4763C70.4861 4.48983 71.226 3.62667 72.1508 2.94848C73.0756 2.23946 74.1237 1.7154 75.3568 1.34547C76.5899 0.975546 77.8846 0.821411 79.241 0.821411C79.9192 0.821411 80.6282 0.852238 81.3064 0.944719C82.0154 1.0372 82.6628 1.16051 83.3102 1.28382C83.9267 1.43795 84.5124 1.59209 85.0673 1.77705C85.6222 1.96201 86.0538 2.14698 86.362 2.33194C86.7936 2.57855 87.1019 2.82517 87.2869 3.10261C87.4718 3.34923 87.5643 3.68833 87.5643 4.11991V5.56878C87.5643 6.21615 87.3177 6.55525 86.8553 6.55525C86.6087 6.55525 86.2079 6.43194 85.6839 6.18532C83.9267 5.38382 81.9538 4.98307 79.7651 4.98307C78.0079 4.98307 76.6207 5.26051 75.6651 5.84622C74.7094 6.43194 74.2162 7.32592 74.2162 8.58983C74.2162 9.45299 74.5245 10.1928 75.141 10.7786C75.7575 11.3643 76.8981 11.95 78.532 12.474L82.9094 13.8613C85.129 14.5703 86.732 15.5568 87.6876 16.8207C88.6432 18.0846 89.1057 19.5334 89.1057 21.1364C89.1057 22.462 88.8282 23.6643 88.3042 24.7124C87.7493 25.7605 87.0094 26.6853 86.0538 27.4252C85.0981 28.1959 83.9575 28.7507 82.632 29.1515C81.2448 29.5831 79.7959 29.7989 78.2237 29.7989Z" fill="#252F3E"/>
<path fill-rule="evenodd" clip-rule="evenodd" d="M84.05 44.7808C73.9079 52.2718 59.1725 56.2485 46.5026 56.2485C28.7462 56.2485 12.747 49.6823 0.662758 38.7695C-0.292881 37.9064 0.570277 36.7349 1.71088 37.4131C14.7816 44.9966 30.9041 49.5898 47.5816 49.5898C58.8334 49.5898 71.1951 47.247 82.5703 42.4379C84.2658 41.6673 85.7147 43.5477 84.05 44.7808Z" fill="#FF9900"/>
<path fill-rule="evenodd" clip-rule="evenodd" d="M88.2734 39.9718C86.9786 38.3071 79.7034 39.1703 76.4049 39.571C75.4185 39.6943 75.2643 38.8312 76.1583 38.1838C81.9538 34.1146 91.4794 35.2861 92.5891 36.6424C93.6989 38.0297 92.2809 47.5552 86.8553 52.1176C86.023 52.8267 85.2215 52.4567 85.5914 51.5319C86.8245 48.48 89.5681 41.6056 88.2734 39.9718Z" fill="#FF9900"/>
</svg>
