<svg width="179" height="51" viewBox="0 0 179 51" fill="none" xmlns="http://www.w3.org/2000/svg">
<path d="M75.7451 14.7668L74.7936 17.4315H74.7417C74.5743 16.8041 74.2903 15.9215 73.8482 14.7957L68.7515 2.03421H63.7833V22.3271H67.0642V9.85075C67.0642 9.08294 67.0449 8.15048 67.0126 7.08592C66.9996 6.54564 66.9354 6.11678 66.9188 5.78914H66.9933C67.1186 6.37515 67.2736 6.95442 67.4577 7.52471L73.558 22.3268H75.8518L81.9102 7.38764C82.042 7.04896 82.1937 6.3843 82.3261 5.78914H82.3969C82.3225 7.26684 82.2519 8.61492 82.2452 9.43293V22.3268H85.739V2.03421H80.9647L75.7451 14.7668Z" fill="#706D6E"/>
<path d="M89.0358 22.3269H92.4617V7.78591H89.0358V22.3269Z" fill="#706D6E"/>
<path d="M90.7843 1.60537C90.2198 1.60537 89.7261 1.79567 89.3262 2.17627C88.9197 2.55686 88.7164 3.03757 88.7164 3.60047C88.7164 4.15867 88.9197 4.62807 89.3196 5.00205C89.7195 5.37161 90.2132 5.55695 90.7841 5.55695C91.3585 5.55695 91.8522 5.37161 92.2587 5.00205C92.6586 4.62807 92.8649 4.15867 92.8649 3.60047C92.8649 3.0555 92.665 2.58279 92.2684 2.19089C91.8745 1.80202 91.3812 1.60537 90.7843 1.60537Z" fill="#706D6E"/>
<path d="M104.572 7.63779C103.942 7.50479 103.3 7.43668 102.656 7.43453C101.091 7.43453 99.6908 7.77155 98.4974 8.43649C97.3071 9.10087 96.3843 10.0491 95.7552 11.2556C95.1294 12.4603 94.8101 13.8655 94.8101 15.4381C94.8101 16.8107 95.1231 18.0686 95.7265 19.1803C96.336 20.2945 97.1973 21.166 98.2878 21.7656C99.378 22.3707 100.633 22.6771 102.03 22.6771C103.656 22.6771 105.036 22.3528 106.152 21.714L106.204 21.6881V18.551L106.059 18.6558C105.545 19.0264 104.98 19.3204 104.382 19.5286C103.778 19.7416 103.226 19.8447 102.743 19.8447C101.397 19.8447 100.317 19.4271 99.5391 18.5976C98.7586 17.7702 98.3617 16.6041 98.3617 15.1413C98.3617 13.6639 98.7685 12.4716 99.5943 11.5891C100.404 10.7107 101.485 10.2669 102.798 10.2669C103.923 10.2669 105.02 10.6459 106.059 11.401L106.204 11.5055V8.20068L106.152 8.17476C105.762 7.95688 105.227 7.77651 104.572 7.63779Z" fill="#706D6E"/>
<path d="M115.843 7.53243C114.978 7.53243 114.211 7.80878 113.556 8.35071C112.976 8.82977 112.559 9.48616 112.24 10.3006H112.204V7.78616H108.785V22.3271H112.205V14.8895C112.205 13.62 112.488 12.5847 113.056 11.7992C113.608 11.0234 114.356 10.6296 115.269 10.6296C115.576 10.6296 115.917 10.6814 116.295 10.7829C116.665 10.8814 116.934 10.9925 117.092 11.1056L117.237 11.2088V7.75858L117.185 7.73293C116.866 7.5989 116.411 7.53271 115.843 7.53271" fill="#706D6E"/>
<path d="M127.857 18.6315C127.211 19.4365 126.244 19.8444 124.979 19.8444C123.724 19.8444 122.731 19.4302 122.037 18.6089C121.327 17.7815 120.972 16.6039 120.972 15.1118C120.972 13.5687 121.327 12.3621 122.037 11.5234C122.731 10.6878 123.711 10.2669 124.95 10.2669C126.15 10.2669 127.108 10.6701 127.792 11.4683C128.479 12.2717 128.831 13.4667 128.831 15.0282C128.831 16.6038 128.502 17.8207 127.857 18.6315ZM125.127 7.43149C122.737 7.43149 120.834 8.13615 119.475 9.52339C118.117 10.9051 117.427 12.8266 117.427 15.2235C117.427 17.5007 118.101 19.3317 119.424 20.6671C120.747 22.0009 122.553 22.6771 124.783 22.6771C127.102 22.6771 128.976 21.9672 130.334 20.559C131.686 19.1544 132.376 17.2578 132.376 14.9152C132.376 12.6026 131.734 10.757 130.457 9.43293C129.185 8.10361 127.392 7.43149 125.127 7.43149Z" fill="#706D6E"/>
<path d="M139.964 13.7927C138.883 13.3605 138.192 12.9989 137.908 12.7251C137.634 12.4573 137.496 12.083 137.496 11.607C137.496 11.1831 137.664 10.8475 138.025 10.5686C138.38 10.2926 138.873 10.1541 139.492 10.1541C140.073 10.1541 140.667 10.2427 141.25 10.4233C141.831 10.6026 142.354 10.8378 142.783 11.1346L142.922 11.2297V8.06665L142.864 8.04569C142.476 7.87304 141.947 7.72797 141.315 7.60855C140.683 7.49244 140.102 7.43425 139.609 7.43425C137.973 7.43425 136.625 7.85208 135.599 8.6734C134.56 9.5005 134.031 10.586 134.031 11.9007C134.031 12.5847 134.147 13.1879 134.37 13.7025C134.596 14.2185 134.944 14.6752 135.408 15.0575C135.86 15.4348 136.567 15.83 137.509 16.2335C138.299 16.5572 138.883 16.83 139.26 17.0476C139.628 17.2589 139.883 17.4718 140.031 17.68C140.173 17.8866 140.247 18.1621 140.247 18.5041C140.247 19.4834 139.515 19.9589 138.012 19.9589C137.451 19.9589 136.812 19.8428 136.115 19.6139C135.423 19.385 134.769 19.0534 134.176 18.6301L134.031 18.5253V21.8594L134.083 21.885C134.577 22.1126 135.192 22.3026 135.925 22.4479C136.65 22.6026 137.312 22.6771 137.879 22.6771C139.657 22.6771 141.083 22.256 142.115 21.43C143.167 20.5962 143.696 19.4851 143.696 18.1254C143.696 17.1461 143.409 16.3057 142.847 15.6264C142.283 14.9527 141.315 14.3379 139.964 13.7927Z" fill="#706D6E"/>
<path d="M155.616 18.6315C154.97 19.4365 154.003 19.8444 152.741 19.8444C151.484 19.8444 150.49 19.4302 149.793 18.6089C149.086 17.7815 148.732 16.6039 148.732 15.1118C148.732 13.5687 149.086 12.3621 149.793 11.5234C150.49 10.6878 151.471 10.2669 152.709 10.2669C153.916 10.2669 154.867 10.6701 155.551 11.4683C156.242 12.2717 156.59 13.4667 156.59 15.0282C156.59 16.6038 156.261 17.8207 155.616 18.6315M152.893 7.43149C150.496 7.43149 148.593 8.13615 147.234 9.52339C145.876 10.9051 145.186 12.8266 145.186 15.2235C145.186 17.5007 145.86 19.3317 147.183 20.6671C148.506 22.0009 150.312 22.6771 152.539 22.6771C154.867 22.6771 156.735 21.9672 158.093 20.559C159.451 19.1544 160.135 17.2578 160.135 14.9152C160.135 12.6026 159.493 10.757 158.216 9.43293C156.945 8.10361 155.151 7.43149 152.893 7.43149" fill="#706D6E"/>
<path d="M178.378 10.5733V7.78617H174.913V3.4471L174.797 3.48296L171.542 4.47774L171.477 4.49733V7.78617H166.345V5.95352C166.345 5.10049 166.538 4.44879 166.91 4.01331C167.287 3.58417 167.82 3.36657 168.5 3.36657C168.987 3.36657 169.497 3.47964 170.003 3.70855L170.129 3.76372V0.825956L170.071 0.806648C169.597 0.632898 168.952 0.548504 168.145 0.548504C167.135 0.548504 166.219 0.766382 165.419 1.20352C164.616 1.63927 163.984 2.25981 163.542 3.0552C163.103 3.84397 162.88 4.7585 162.88 5.77176V7.78617H160.468V10.5733H162.881V22.3268H166.345V10.5733H171.478V18.0429C171.478 21.1158 172.929 22.6771 175.787 22.6771C176.258 22.6771 176.758 22.6222 177.261 22.5158C177.774 22.4041 178.126 22.2946 178.329 22.1752L178.378 22.1495V19.3317L178.239 19.4271C178.052 19.5493 177.813 19.6541 177.542 19.7283C177.261 19.8072 177.036 19.8444 176.855 19.8444C176.184 19.8444 175.69 19.6654 175.384 19.3108C175.068 18.9495 174.913 18.322 174.913 17.4395V10.5733H178.378Z" fill="#706D6E"/>
<path d="M23.6316 24.9422H0.789795V2.09547H23.6316V24.9422Z" fill="#F1511B"/>
<path d="M48.8501 24.9422H26.0037V2.09547H48.8501V24.9422Z" fill="#80CC28"/>
<path d="M23.6316 50.1768H0.789795V27.3256H23.6316V50.1768Z" fill="#00ADEF"/>
<path d="M48.8501 50.1768H26.0037V27.3256H48.8501V50.1768Z" fill="#FBBC09"/>
<path d="M75.1855 42.0125L72.3462 33.8545C72.2612 33.5889 72.1708 33.1609 72.0765 32.5715H72.0188C71.9325 33.1134 71.8376 33.5407 71.7328 33.8545L68.9239 42.0125H75.1855ZM81.6451 49.9849H77.9227L76.0832 44.779H68.0394L66.2716 49.9849H62.5632L70.2223 29.5334H74.0437L81.6451 49.9849Z" fill="#706D6E"/>
<path d="M94.2815 36.7641L86.3957 47.4037H94.2528V49.9851H81.7599V48.7441L89.8178 37.9627H82.5296V35.381H94.2812L94.2815 36.7641Z" fill="#706D6E"/>
<path d="M109.215 49.9849H105.907V47.6743H105.849C104.889 49.4429 103.396 50.3274 101.371 50.3274C97.9204 50.3274 96.1942 48.2548 96.1942 44.1093V35.3813H99.5029V43.7668C99.5029 46.3913 100.515 47.7032 102.541 47.7032C103.52 47.7032 104.325 47.3419 104.958 46.6193C105.591 45.897 105.907 44.9508 105.907 43.7809V35.381H109.215V49.9849Z" fill="#706D6E"/>
<path d="M121.408 38.5328C121.009 38.2189 120.434 38.0626 119.683 38.0626C118.704 38.0626 117.887 38.5041 117.23 39.3891C116.574 40.2728 116.247 41.4752 116.247 42.9971V49.9849H112.938V35.381H116.247V38.3899H116.303C116.625 37.3632 117.123 36.5623 117.793 35.9878C118.464 35.4122 119.212 35.1245 120.039 35.1245C120.638 35.1245 121.095 35.2147 121.408 35.3956V38.5328Z" fill="#706D6E"/>
<path d="M132.077 41.2427C132.067 40.0541 131.787 39.1293 131.235 38.4688C130.684 37.8083 129.924 37.4773 128.954 37.4773C128.003 37.4773 127.197 37.8248 126.536 38.5182C125.876 39.2132 125.469 40.1211 125.317 41.243L132.077 41.2427ZM135.272 43.5815H125.317C125.354 44.9312 125.771 45.9726 126.565 46.7048C127.359 47.4374 128.449 47.8028 129.838 47.8028C131.398 47.8028 132.828 47.3375 134.13 46.4056V49.0725C132.799 49.9087 131.04 50.3274 128.855 50.3274C126.704 50.3274 125.02 49.6638 123.798 48.3378C122.576 47.0115 121.965 45.1452 121.965 42.7397C121.965 40.4678 122.637 38.6161 123.983 37.1853C125.329 35.7539 127 35.0388 128.997 35.0388C130.992 35.0388 132.538 35.6805 133.632 36.9638C134.725 38.2476 135.272 40.0306 135.272 42.3117V43.5815Z" fill="#706D6E"/>
</svg>
