<svg width="1144" height="638" viewBox="0 0 1144 638" fill="none" xmlns="http://www.w3.org/2000/svg">
<path opacity="0.07" fill-rule="evenodd" clip-rule="evenodd" d="M414.787 265.605C402.817 265.605 393.081 275.341 393.081 287.312C393.081 299.282 402.817 308.839 414.787 308.839H477.534C489.504 308.839 499.241 299.103 499.241 287.312C499.241 275.52 489.504 265.605 477.534 265.605H414.787V265.605Z" fill="white"/>
<path opacity="0.07" fill-rule="evenodd" clip-rule="evenodd" d="M413.112 146.876C401.301 146.876 391.385 156.612 391.385 168.602C391.385 180.593 401.301 190.309 413.112 190.309H502.253C514.044 190.309 523.781 180.573 523.781 168.602C523.781 156.632 514.044 146.876 502.253 146.876H413.112Z" fill="white"/>
<path opacity="0.07" fill-rule="evenodd" clip-rule="evenodd" d="M90.6615 152.123C78.8505 152.123 68.9348 161.859 68.9348 173.83C68.9348 185.8 78.8505 195.556 90.6615 195.556H332.03C343.821 195.556 353.558 185.621 353.558 173.83C353.558 162.039 343.821 152.123 332.03 152.123H90.6615Z" fill="white"/>
<path opacity="0.07" fill-rule="evenodd" clip-rule="evenodd" d="M69.8525 96.6987C58.0614 96.6987 48.3253 106.435 48.3253 118.406C48.3253 130.376 58.0614 139.933 69.8525 139.933H233.711C245.702 139.933 255.438 130.197 255.438 118.406C255.438 106.614 245.702 96.6987 233.711 96.6987H69.8525V96.6987Z" fill="white"/>
<path opacity="0.07" fill-rule="evenodd" clip-rule="evenodd" d="M21.91 207.547C9.93929 207.547 0.20314 217.283 0.20314 229.274C0.20314 241.264 9.93929 250.801 21.91 250.801H76.0374C88.028 250.801 97.7642 241.065 97.7642 229.274C97.7642 217.483 88.028 207.547 76.0374 207.547H21.91V207.547Z" fill="white"/>
<path opacity="0.07" fill-rule="evenodd" clip-rule="evenodd" d="M197.759 41.075C185.968 41.075 176.232 50.8111 176.232 62.7818C176.232 74.7525 185.968 84.3091 197.759 84.3091H276.407C288.198 84.3091 297.934 74.5729 297.934 62.7818C297.934 50.9907 288.198 41.075 276.407 41.075H197.759Z" fill="white"/>
<path opacity="0.07" fill-rule="evenodd" clip-rule="evenodd" d="M250.949 207.368C238.978 207.368 229.242 217.104 229.242 229.074C229.242 241.045 238.978 250.801 250.949 250.801H448.884C460.875 250.801 470.611 241.065 470.611 229.074C470.611 217.084 460.875 207.368 448.884 207.368H250.949Z" fill="white"/>
<path opacity="0.07" fill-rule="evenodd" clip-rule="evenodd" d="M13.1315 272.528C19.4959 318.017 46.2703 346.666 92.7165 357.899C109.356 361.949 126.494 362.767 143.372 362.767C149.118 362.767 154.844 362.667 160.491 362.587H164.062C166.496 362.587 168.75 362.388 171.184 362.388C174.556 362.388 178.107 362.208 181.679 362.208C188.981 362.208 196.462 362.587 203.944 364.263C223.037 368.573 232.793 380.384 233.153 399.836C233.532 416.136 227.526 431.299 215.177 445.903C205.241 457.335 193.071 466.493 181.459 475.311C179.584 476.808 177.908 478.124 176.032 479.441H251.488C262.161 467.071 269.643 455.101 274.332 442.731C276.786 436.746 280.876 435.608 284.826 435.429C301.505 434.491 321.157 432.795 340.629 428.306C379.215 419.508 405.81 403.966 423.786 379.626C433.881 365.959 440.644 349.839 445.133 327.753H394.198C389.889 346.108 378.656 359.954 360.88 369.331C339.711 380.384 316.508 382.818 294.023 385.252C292.347 385.431 290.652 385.631 288.776 385.81C288.337 385.87 287.918 385.89 287.519 385.89C282.093 385.89 281.075 381.341 280.556 379.067C274.93 355.285 261.463 337.309 240.095 325.698C238.4 324.76 236.165 323.264 235.587 320.65C235.028 318.196 236.524 315.962 237.841 314.465C248.515 301.736 254.7 286.374 259.189 272.528L206.179 272.708C199.435 286.933 188.203 297.227 171.723 304.17C157.957 309.976 143.891 312.889 129.566 312.889C118.952 312.889 108.219 311.293 97.3851 308.121C78.2919 302.315 66.8599 290.524 63.129 272.727L13.1315 272.548V272.528Z" fill="white"/>
<path opacity="0.07" fill-rule="evenodd" clip-rule="evenodd" d="M391.983 0.633911C357.508 0.633911 329.237 28.4657 329.237 62.4226C329.058 96.6986 356.77 124.61 390.846 124.79H391.205C425.681 124.79 453.573 97.6962 453.772 63.7393C454.151 29.2837 426.419 0.813471 392.343 0.633911H391.983V0.633911Z" fill="white"/>
<path fill-rule="evenodd" clip-rule="evenodd" d="M170.526 138.237C170.526 126.885 179.723 117.687 191.076 117.687C196.522 117.687 201.749 119.862 205.6 123.713C209.451 127.563 211.625 132.79 211.625 138.237C211.625 149.589 202.428 158.787 191.076 158.787C179.723 158.787 170.526 149.589 170.526 138.237Z" fill="#EB7015"/>
<path fill-rule="evenodd" clip-rule="evenodd" d="M1102 42.5497C1102 31.1975 1111.2 22 1122.55 22C1128 22 1133.22 24.1747 1137.07 28.0252C1140.92 31.8758 1143.1 37.103 1143.1 42.5497C1143.1 53.9019 1133.9 63.0993 1122.55 63.0993C1111.2 63.0993 1102 53.9019 1102 42.5497Z" fill="#EAB54E"/>
<path fill-rule="evenodd" clip-rule="evenodd" d="M971 610.55C971 599.197 980.198 590 991.55 590H1049.47C1054.91 590 1060.14 592.175 1063.99 596.025C1067.84 599.876 1070.02 605.103 1070.02 610.55C1070.02 621.902 1060.82 631.099 1049.47 631.099H991.55C980.198 631.099 971 621.902 971 610.55V610.55Z" fill="#20AAA1"/>
<path fill-rule="evenodd" clip-rule="evenodd" d="M124.179 589.611C124.179 578.259 133.377 569.062 144.729 569.062H202.647C208.094 569.062 213.321 571.236 217.172 575.087C221.022 578.937 223.197 584.165 223.197 589.611C223.197 600.964 213.999 610.161 202.647 610.161H144.729C133.377 610.161 124.179 600.964 124.179 589.611V589.611Z" fill="#BA18DD"/>
<rect x="99.5" y="548.5" width="19" height="48" stroke="white" stroke-width="3"/>
<rect x="131.5" y="516.5" width="19" height="80" stroke="white" stroke-width="3"/>
<rect x="163.5" y="567.5" width="19" height="29" stroke="white" stroke-width="3"/>
<path d="M1053.42 609.522L1062.55 618.485L1080.58 601.515" stroke="white" stroke-width="3" stroke-linecap="round" stroke-linejoin="round"/>
<circle cx="1067" cy="610" r="26.5" stroke="white" stroke-width="3"/>
</svg>
