<svg width="70" height="82" viewBox="0 0 70 82" fill="none" xmlns="http://www.w3.org/2000/svg">
<path d="M61.802 56.2311C57.0955 60.9528 50.5758 63.8629 43.4003 63.8629C36.2248 63.8629 29.7051 60.9528 24.9986 56.2311L29.0879 52.1455C25.4229 48.4837 23.1468 43.4152 23.1468 37.8455C23.1468 26.687 32.232 17.6098 43.4003 17.6098C48.9748 17.6098 54.0479 19.8839 57.7128 23.5456L61.802 19.4599L65.8913 15.3742L69.9999 11.2693C63.1909 4.46622 53.7778 0.264893 43.4003 0.264893C22.626 0.264893 5.78671 17.0895 5.78671 37.8455H0C0 61.8008 19.4241 81.2078 43.4003 81.2078V75.4262C53.7778 75.4262 63.1909 71.2249 69.9999 64.4218L65.8913 60.3168L61.802 56.2311Z" fill="white"/>
<path d="M34.72 39.8302V39.7724C34.72 33.8366 39.2915 29.1727 45.4833 29.1727C49.6497 29.1727 52.3309 30.9265 54.1441 33.4319L49.8812 36.7274C48.7239 35.2627 47.3736 34.3377 45.4254 34.3377C42.5707 34.3377 40.5646 36.7467 40.5646 39.7339V39.7917C40.5646 42.8559 42.5707 45.2457 45.4254 45.2457C47.5472 45.2457 48.801 44.2628 50.0355 42.7788L54.2984 45.8046C52.3695 48.4448 49.7848 50.4106 45.2711 50.4106C39.4073 50.3721 34.72 45.9202 34.72 39.8302Z" fill="#0B2471"/>
<path d="M43.4003 75.4261C22.6646 75.4261 5.78671 58.563 5.78671 37.8455H0C0 61.8007 19.424 81.2077 43.4003 81.2077V75.4261Z" fill="#82DD22"/>
<path d="M43.4003 6.04653C52.1768 6.04653 60.1239 9.61187 65.8913 15.3742L69.9998 11.2693C63.1908 4.46621 53.7778 0.264893 43.4003 0.264893C22.626 0.264893 5.78668 17.0895 5.78668 37.8455H11.5734C11.5734 20.3079 25.8473 6.04653 43.4003 6.04653Z" fill="#14AA8C"/>
<path d="M43.4003 69.6445C25.8473 69.6445 11.5734 55.3831 11.5734 37.8455H5.78668C5.78668 58.6015 22.626 75.4261 43.4003 75.4261V69.6445Z" fill="#AFE61E"/>
<path d="M70 64.4219L65.8914 60.3169L61.8022 56.2312C57.0956 60.9529 50.5759 63.863 43.4004 63.863C36.2249 63.863 29.7052 60.9529 24.9987 56.2312L20.8901 60.3362C26.6576 66.0793 34.6046 69.6446 43.4004 69.6446V75.4262C53.7779 75.4262 63.191 71.2249 70 64.4219Z" fill="#14AA8C"/>
<path d="M24.9791 56.2504L29.0684 52.1647C25.4034 48.503 23.1273 43.4344 23.1273 37.8648C23.1466 26.6869 32.2318 17.6098 43.4001 17.6098C48.9746 17.6098 54.0477 19.8839 57.7126 23.5456L61.8018 19.4599C57.0953 14.7382 50.5949 11.8281 43.4001 11.8281C29.0105 11.8281 17.3599 23.4685 17.3599 37.8455C17.3599 45.034 20.2726 51.5287 24.9791 56.2504Z" fill="#0096FF"/>
<path d="M24.9986 56.2314C20.2728 51.529 17.3601 45.015 17.3601 37.8458C17.3601 23.5073 29.0493 11.8284 43.4003 11.8284C50.5758 11.8284 57.0955 14.7385 61.8021 19.4601L65.9106 15.3552C60.1432 9.61209 52.1961 6.04675 43.4003 6.04675C25.828 6.04675 11.5734 20.2889 11.5734 37.8458C11.5734 46.6338 15.1419 54.574 20.89 60.3363L24.9986 56.2314Z" fill="#50BEFF"/>
</svg>
