<svg width="70" height="81" viewBox="0 0 70 81" fill="none" xmlns="http://www.w3.org/2000/svg">
<path d="M31.2644 44.6773C22.4352 39.8023 13.6376 34.8744 4.81891 29.9783C2.00398 28.4156 0.0285972 29.5761 0.0250697 32.7826C0.0144873 37.8269 0.0215442 42.8712 0.0215442 47.919C0.0215442 52.9633 0.0568145 58.0112 0.000374782 63.0555C-0.0172626 64.7769 0.585936 65.888 2.16625 66.6817C11.0908 71.1687 19.9765 75.7332 28.8834 80.2554C31.3244 81.4936 33.2857 80.266 33.2857 77.5005C33.2963 67.6941 33.2645 57.8912 33.3139 48.0848C33.3245 46.441 32.6648 45.4498 31.2644 44.6773Z" fill="#40AF2F"/>
<path d="M38.7356 44.6773C47.5648 39.8023 56.3624 34.8744 65.1811 29.9783C67.996 28.4156 69.9714 29.5761 69.9749 32.7826C69.9855 37.8269 69.9785 42.8712 69.9785 47.919C69.9785 52.9633 69.9432 58.0112 69.9996 63.0555C70.0173 64.7769 69.4141 65.888 67.8337 66.6817C58.9092 71.1687 50.0235 75.7332 41.1166 80.2554C38.6756 81.4936 36.7143 80.266 36.7143 77.5005C36.7037 67.6941 36.7355 57.8912 36.6861 48.0848C36.6755 46.441 37.3352 45.4498 38.7356 44.6773Z" fill="#A8E29F"/>
<path d="M52.3728 5.64917H46.9017V8.66517H52.3728C52.3728 8.66517 51.431 7.59634 51.371 7.25417C51.3111 6.91201 52.3728 5.64917 52.3728 5.64917Z" fill="#A8E29F"/>
<path d="M46.0798 18.5139C45.6213 17.9248 44.8241 17.311 43.6882 16.6796C42.5524 16.0482 41.5682 15.5649 40.7392 15.2368C39.9067 14.9088 38.6192 14.4185 36.8731 13.7623C35.1693 13.1062 33.9347 12.5277 33.1693 12.0268C32.4038 11.5259 32.0228 10.9686 32.0228 10.3548C32.0228 9.56817 32.3509 8.9685 33.007 8.55226C33.6349 8.15365 34.3263 7.95259 35.0776 7.93495C35.0776 7.9279 35.0776 7.91731 35.0776 7.91026C38.1959 8.11838 41.8574 8.48171 44.884 8.66161C45.4273 8.69336 45.5401 8.54873 45.5084 8.04077C45.2826 4.32281 42.4642 1.87474 38.7921 1.26801C38.4958 1.21862 38.1324 1.17629 37.7515 1.14102C35.5186 0.858822 34.0229 1.05636 33.515 1.13749C30.9787 1.40558 28.8199 2.25923 27.0385 3.70197C24.8515 5.47277 23.7615 7.77621 23.7615 10.6158C23.7615 13.4131 24.6257 15.5861 26.3506 17.1381C28.0756 18.6902 30.4884 19.9883 33.5926 21.0395C35.8219 21.738 37.3493 22.3306 38.1818 22.8103C39.0108 23.2901 39.427 23.8827 39.427 24.5811C39.427 25.3678 39.0778 26.0027 38.3758 26.4824C37.6774 26.9622 36.7144 27.202 35.4903 27.202C34.9683 27.202 34.4533 27.1668 33.9453 27.1033C30.5519 26.8563 27.9839 26.486 24.5904 26.2214C24.1248 26.1861 24.0049 26.292 24.0119 26.7505C24.0684 30.3309 26.7951 33.1212 30.3543 33.6115C31.0069 33.6997 32.6684 34.0277 34.0688 34.0418C34.5168 34.07 34.9683 34.0842 35.4269 34.0842C39.4905 34.0842 42.5806 33.167 44.7006 31.3327C46.8206 29.4984 47.8789 27.0962 47.8789 24.1226C47.8789 22.902 47.6919 21.8085 47.3215 20.8455C46.9547 19.879 46.5384 19.1029 46.0798 18.5139ZM39.5223 3.29279C40.3195 3.33159 40.9015 3.96653 40.8662 4.75669C40.831 5.55037 40.1889 6.13241 39.3953 6.09713C38.6122 6.06186 38.0054 5.40574 38.0372 4.6297C38.0725 3.85718 38.7392 3.25751 39.5223 3.29279Z" fill="#40AF2F"/>
</svg>
