<svg width="61" height="73" viewBox="0 0 61 73" fill="none" xmlns="http://www.w3.org/2000/svg">
<path d="M13.4526 21.4527L32.6516 10.3753C32.7447 10.3213 32.822 10.2438 32.8758 10.1506C32.9296 10.0574 32.9581 9.95174 32.9584 9.84411V3.20406C32.9713 2.71451 32.871 2.22858 32.6652 1.78416C32.4595 1.33974 32.1539 0.94884 31.7723 0.641918C31.2953 0.268927 30.7173 0.047704 30.1131 0.0068824C29.509 -0.0339392 28.9065 0.10752 28.3836 0.412951L1.52803 15.9209C1.06382 16.1884 0.678256 16.5734 0.410154 17.0373C0.142051 17.5011 0.000870368 18.0274 0.00082105 18.5632V53.5585C-0.0102476 54.0459 0.0907246 54.5294 0.295958 54.9716C0.501191 55.4138 0.805208 55.803 1.18458 56.1092C1.66231 56.4826 2.2411 56.704 2.84606 56.7449C3.45102 56.7857 4.05431 56.644 4.57788 56.3382L10.2654 53.0571C10.3587 53.0033 10.4361 52.9258 10.49 52.8326C10.5438 52.7393 10.5722 52.6336 10.5722 52.5259V26.4465C10.5714 25.4345 10.8372 24.4401 11.3429 23.5634C11.8485 22.6868 12.5762 21.9588 13.4526 21.4527Z" fill="#FFC11E"/>
<path d="M59.4751 16.4406C59.012 16.17 58.4853 16.0274 57.949 16.0274C57.4127 16.0274 56.886 16.17 56.4229 16.4406L29.5673 31.9257C29.1038 32.1939 28.7187 32.5791 28.4507 33.0428C28.1827 33.5065 28.0411 34.0324 28.0401 34.568L28.0287 69.6961C28.029 70.2319 28.1703 70.7582 28.4383 71.2221C28.7063 71.686 29.0916 72.0713 29.5556 72.3392C30.0196 72.6072 30.5458 72.7483 31.0816 72.7486C31.6174 72.7489 32.1438 72.6082 32.608 72.3407L59.4613 56.8442C59.9252 56.5764 60.3105 56.1912 60.5786 55.7275C60.8466 55.2637 60.988 54.7376 60.9885 54.2019L61 19.0738C61.0016 18.5392 60.8613 18.0137 60.5934 17.5511C60.3254 17.0885 59.9395 16.7053 59.4751 16.4406Z" fill="#EF1161"/>
<path d="M28.2187 29.5742L45.9408 19.3508C46.0333 19.2964 46.11 19.2187 46.1634 19.1256C46.2168 19.0324 46.245 18.927 46.2453 18.8196V11.0828C46.2571 10.5945 46.1559 10.1101 45.9498 9.66731C45.7437 9.2245 45.4381 8.83524 45.057 8.52984C44.5794 8.158 44.0015 7.93751 43.3977 7.8967C42.7938 7.8559 42.1915 7.99666 41.6683 8.30088L34.3138 12.5482L14.8081 23.802C14.3445 24.0699 13.9595 24.4551 13.6918 24.9189C13.4242 25.3827 13.2832 25.9088 13.2832 26.4442V52.8785V61.4396C13.272 61.9272 13.3732 62.4109 13.5789 62.8532C13.7845 63.2955 14.0892 63.6846 14.4692 63.9903C14.947 64.3626 15.5253 64.5834 16.1297 64.6242C16.734 64.665 17.3367 64.524 17.8602 64.2193L25.0132 60.0841C25.1064 60.0303 25.1839 59.9528 25.2377 59.8596C25.2916 59.7664 25.3199 59.6606 25.32 59.5529V34.568C25.3212 33.5542 25.5899 32.5587 26.0988 31.6819C26.6078 30.8051 27.339 30.0781 28.2187 29.5742Z" fill="#FC6E6B"/>
</svg>
