<svg width="228" height="39" viewBox="0 0 228 39" fill="none" xmlns="http://www.w3.org/2000/svg">
<path d="M19.4248 38.6762V31.2143C27.336 31.2143 33.4385 23.4143 30.3884 15.1603C29.8334 13.6283 28.9485 12.237 27.7963 11.0848C26.6441 9.93264 25.2528 9.04774 23.7208 8.49273C21.9427 7.82413 20.0294 7.59518 18.1437 7.82536C16.2581 8.05555 14.456 8.73807 12.891 9.81478C11.3259 10.8915 10.0443 12.3305 9.15525 14.0093C8.2662 15.688 7.79604 17.5568 7.78483 19.4564H0.325195C0.325195 7.01987 12.419 -2.81586 25.6407 1.25551C28.4821 2.14799 31.0656 3.71398 33.1714 5.8201C35.2771 7.92622 36.8426 10.5101 37.7345 13.3516C41.8036 26.5801 31.9702 38.6762 19.4248 38.6762Z" fill="#0080FF"/>
<path d="M19.5383 31.2143H12.0786V23.8659H19.5383M12.0786 36.9809H6.42774V31.2143H12.0786V36.9809ZM6.42774 31.2143H1.68689V26.4666H6.42774M68.4763 11.4294C66.3295 9.95878 63.504 9.15994 60.3381 9.15994H53.4459V31.2052H60.3404C63.5055 31.2052 66.2182 30.4139 68.4786 28.8314C69.7132 27.9332 70.688 26.7243 71.3041 25.3274C71.9849 23.8568 72.3208 22.0481 72.3208 20.1258C72.3208 18.2036 71.9826 16.3949 71.3041 15.0378C70.6232 13.3516 69.72 12.2214 68.4763 11.4294ZM57.515 12.9H59.6619C62.0357 12.9 64.0691 13.3539 65.6509 14.3706C67.3462 15.3873 68.1473 17.3208 68.1473 20.1372C68.1473 22.9536 67.2395 24.9983 65.6509 26.1285C64.1826 27.0363 62.2604 27.5991 59.7731 27.5991H57.515V12.9ZM77.1796 8.83087C76.8655 8.82247 76.553 8.87856 76.2615 8.99566C75.9699 9.11276 75.7054 9.28839 75.4844 9.5117C75.2268 9.71072 75.0206 9.96841 74.8828 10.2633C74.745 10.5582 74.6797 10.8817 74.6923 11.207C74.6923 11.8365 74.9424 12.4403 75.3876 12.8855C75.8328 13.3307 76.4366 13.5808 77.0661 13.5808C77.6957 13.5808 78.2995 13.3307 78.7447 12.8855C79.1899 12.4403 79.44 11.8365 79.44 11.207C79.4482 10.8929 79.3921 10.5804 79.275 10.2889C79.1579 9.99732 78.9823 9.73283 78.7591 9.5117C78.421 9.05781 77.8514 8.83087 77.1705 8.83087M75.128 15.6142H79.0837V31.1031H75.1439V15.6142M93.2268 16.9759C92.0921 15.9592 90.7304 15.2806 89.2712 15.2806C88.2751 15.2587 87.2858 15.4498 86.3695 15.8412C85.4533 16.2326 84.6312 16.8152 83.9584 17.55C82.5468 19.0453 81.7762 21.0336 81.8115 23.0897C81.8115 25.2389 82.4924 27.1588 83.854 28.6294C85.2157 30.1 87.0176 30.7786 89.1668 30.7786C90.5498 30.8003 91.9009 30.3629 93.0089 29.5349V29.8731C93.0089 31.1167 92.6708 32.1425 91.9922 32.8233C91.3137 33.5042 90.4036 33.84 89.1668 33.84C87.3512 33.84 86.2279 33.1592 84.873 31.2393L82.1497 33.84L82.2631 33.9535C82.8282 34.7455 83.7315 35.5421 84.8617 36.3273C85.9918 37.1126 87.4602 37.462 89.1554 37.462C91.5293 37.462 93.338 36.7812 94.6928 35.3129C96.0477 33.8446 96.8397 32.0336 96.8397 29.6597V15.6142H93.0021V16.9759H93.2291M92.2124 26.133C91.5315 26.9251 90.6237 27.2678 89.489 27.2678C88.3543 27.2678 87.4465 26.9296 86.7657 26.133C86.0849 25.3365 85.749 24.3175 85.749 23.0806C85.749 21.8438 86.1098 20.8135 86.7907 20.0214C87.4715 19.2294 88.3793 18.8867 89.514 18.8867C90.6487 18.8867 91.5565 19.2249 92.2373 20.0214C92.9181 20.818 93.254 21.837 93.254 23.0738C93.254 24.3107 92.9159 25.3433 92.2373 26.1262M100.487 15.6119H104.442V31.1008H100.462V15.6142M102.384 8.83087C102.07 8.82308 101.758 8.87916 101.466 8.9957C101.175 9.11225 100.91 9.28682 100.688 9.50882C100.466 9.73082 100.292 9.99562 100.175 10.2871C100.058 10.5787 100.002 10.8908 100.01 11.2047C100.01 11.8343 100.26 12.4381 100.705 12.8832C101.151 13.3284 101.754 13.5785 102.384 13.5785C103.014 13.5785 103.617 13.3284 104.062 12.8832C104.508 12.4381 104.758 11.8343 104.758 11.2047C104.766 10.8906 104.709 10.5783 104.593 10.2866C104.476 9.99492 104.301 9.73001 104.079 9.50798C103.857 9.28594 103.592 9.11142 103.3 8.99502C103.008 8.87862 102.696 8.82277 102.382 8.83087M112.889 11.4294H109.052V15.6142H106.782V19.1182H109.052V25.5634C109.052 27.6059 109.505 29.0674 110.295 29.8594C111.085 30.6515 112.565 31.1031 114.478 31.1031C115.121 31.1217 115.764 31.0838 116.4 30.9896H116.627V27.4833L115.265 27.5968C114.357 27.5968 113.677 27.4833 113.45 27.1429C113.112 26.8048 112.996 26.1262 112.996 25.1004V19.2317H116.613V15.7254H113.007L112.889 11.4294ZM134.814 9.15994H138.77V31.2052H134.819V9.17355M178.219 25.6791C177.641 26.3476 176.997 26.9558 176.297 27.4947C175.682 27.8679 174.975 28.0635 174.255 28.0598C173.725 28.0552 173.201 27.9413 172.717 27.7254C172.233 27.5095 171.798 27.1961 171.441 26.8048C170.649 25.897 170.306 24.8826 170.306 23.5255C170.306 22.1683 170.644 21.1516 171.441 20.2461C171.784 19.8351 172.217 19.509 172.708 19.2933C173.198 19.0775 173.731 18.978 174.266 19.0025C175.51 19.0025 176.865 19.7945 177.995 21.1516L180.593 18.6552C178.898 16.5061 176.751 15.4894 174.15 15.4894C172.003 15.4894 170.195 16.2814 168.613 17.8632C167.133 19.4155 166.318 21.4851 166.343 23.6298C166.343 25.8993 167.135 27.9259 168.613 29.3965C169.316 30.1609 170.173 30.7676 171.127 31.1768C172.082 31.5859 173.112 31.7882 174.15 31.7703C176.976 31.7703 179.236 30.5267 180.818 28.2663L178.219 25.6655M194.155 17.8655C193.561 17.082 192.781 16.4582 191.886 16.0499C190.86 15.5749 189.739 15.3419 188.609 15.3691C186.462 15.3691 184.653 16.1611 183.296 17.7429C182.012 19.3871 181.333 21.4236 181.374 23.5096C181.374 25.8834 182.055 27.8056 183.521 29.2762C184.987 30.7468 186.798 31.5456 189.172 31.5456C191.77 31.5456 193.919 30.5289 195.615 28.3798L195.728 28.2663L193.13 25.7699C192.903 26.1081 192.564 26.335 192.222 26.6777C191.901 27.0157 191.515 27.2852 191.087 27.4697C190.499 27.7918 189.835 27.9486 189.165 27.9236C188.181 27.9379 187.22 27.6178 186.442 27.0158C185.761 26.4508 185.425 25.6542 185.307 24.642H195.705V23.1714C195.731 22.1688 195.577 21.1698 195.251 20.2212C195.086 19.3446 194.695 18.5264 194.117 17.8473M185.679 21.492C185.852 20.8078 186.203 20.1815 186.696 19.6765C186.963 19.4103 187.282 19.2024 187.634 19.066C187.985 18.9297 188.361 18.8679 188.738 18.8845C189.646 18.8845 190.433 19.1114 190.885 19.6765C191.339 20.1304 191.566 20.8112 191.677 21.492H185.679ZM209.188 16.8556C208.053 15.8389 206.363 15.385 204.329 15.385C203.086 15.4202 201.86 15.6897 200.716 16.1793C199.7 16.7444 198.674 17.541 198.118 18.6757L200.614 21.0495C201.631 19.3542 202.761 18.7801 204.343 18.7801C205.082 18.7605 205.805 19.0015 206.385 19.4609C206.643 19.6599 206.849 19.9176 206.987 20.2125C207.125 20.5074 207.19 20.8309 207.177 21.1562V21.9482C206.267 21.6411 205.312 21.4878 204.352 21.4943C202.43 21.4943 200.848 21.9482 199.604 22.856C198.361 23.7637 197.789 25.1254 197.789 26.7004C197.789 28.171 198.243 29.3012 199.257 30.2044C200.271 31.1076 201.526 31.448 202.986 31.448C204.445 31.448 205.811 30.883 207.168 29.8594V31.1031H211.01V21.1539C211.01 19.3383 210.445 17.8746 209.195 16.8579M202.3 25.223C202.754 24.8848 203.317 24.7691 204.116 24.7691C205.119 24.8029 206.111 24.9936 207.055 25.3342V26.8048C206.119 27.6279 204.91 28.0715 203.664 28.0484C202.983 28.0484 202.421 27.935 202.076 27.5945C201.731 27.2541 201.511 26.9137 201.511 26.4598C201.551 26.2094 201.641 25.9698 201.778 25.7559C201.914 25.542 202.093 25.3583 202.303 25.2162M226.027 17.0825C224.893 15.8389 223.429 15.267 221.507 15.267C219.924 15.267 218.681 15.7209 217.778 16.6286V15.7209H213.933V31.2098H217.889V22.6222C217.889 21.4875 218.116 20.4731 218.681 19.7968C218.958 19.4666 219.306 19.2035 219.699 19.0274C220.092 18.8513 220.52 18.7667 220.951 18.7801C221.338 18.7612 221.725 18.8335 222.08 18.9911C222.434 19.1488 222.747 19.3874 222.993 19.6878C223.524 20.4105 223.802 21.2877 223.785 22.1842V31.2279H227.723V22.1706C227.609 20.0222 227.044 18.3262 226.027 17.0825ZM129.96 16.8556C128.825 15.8389 127.134 15.385 125.101 15.385C123.856 15.4189 122.629 15.6877 121.484 16.177C120.467 16.7421 119.441 17.5387 118.885 18.6734L121.381 21.0472C122.398 19.352 123.528 18.7778 125.11 18.7778C125.85 18.7582 126.573 18.9992 127.153 19.4586C127.41 19.6577 127.616 19.9153 127.754 20.2102C127.892 20.5051 127.957 20.8287 127.945 21.1539V21.9459C127.035 21.6389 126.08 21.4855 125.119 21.492C123.198 21.492 121.615 21.9459 120.371 22.8537C119.128 23.7615 118.556 25.1231 118.556 26.6981C118.556 28.1687 119.01 29.2989 120.024 30.2021C121.039 31.1054 122.294 31.4458 123.753 31.4458C125.212 31.4458 126.578 30.8807 127.936 29.8572V31.1008H131.778V21.1539C131.778 19.3383 131.097 17.8746 129.962 16.8579M122.954 25.223C123.408 24.8848 123.971 24.7691 124.77 24.7691C125.773 24.8029 126.764 24.9936 127.709 25.3342V26.8048C126.773 27.6279 125.564 28.0715 124.318 28.0484C123.637 28.0484 123.074 27.935 122.729 27.5945C122.384 27.2541 122.164 26.9137 122.164 26.4598C122.333 25.9919 122.604 25.5671 122.956 25.2162M152.913 31.5479C150.677 31.5488 148.49 30.8865 146.63 29.6447C144.77 28.4028 143.32 26.6374 142.464 24.5715C141.608 22.5056 141.383 20.2321 141.819 18.0386C142.254 15.8451 143.331 13.8301 144.912 12.2484C146.493 10.6667 148.508 9.58947 150.701 9.15284C152.894 8.71622 155.168 8.93986 157.234 9.79547C159.3 10.6511 161.066 12.1002 162.309 13.9597C163.551 15.8191 164.215 18.0052 164.215 20.2416C164.204 23.2361 163.01 26.105 160.893 28.2229C158.776 30.3408 155.907 31.5359 152.913 31.5479ZM152.913 12.782C151.459 12.7797 150.038 13.2087 148.828 14.0146C147.618 14.8204 146.674 15.9671 146.116 17.3093C145.558 18.6516 145.411 20.1293 145.693 21.5554C145.975 22.9814 146.673 24.2919 147.7 25.3209C148.727 26.3499 150.036 27.0512 151.461 27.3362C152.886 27.6212 154.364 27.477 155.708 26.9218C157.051 26.3667 158.2 25.4255 159.009 24.2174C159.817 23.0093 160.249 21.5886 160.25 20.1349C160.252 19.1695 160.064 18.2132 159.695 17.3208C159.327 16.4285 158.786 15.6177 158.103 14.9349C157.421 14.2522 156.61 13.7109 155.718 13.3422C154.825 12.9736 153.869 12.7847 152.904 12.7865" fill="#0080FF"/>
</svg>
