<svg width="201" height="32" viewBox="0 0 201 32" fill="none" xmlns="http://www.w3.org/2000/svg">
<path d="M24.0438 8.64555H25.1746L28.3974 5.42276L28.5557 4.05448C26.7095 2.42494 24.4783 1.29295 22.073 0.765451C19.6676 0.237953 17.1675 0.332357 14.8088 1.03975C12.45 1.74714 10.3106 3.04416 8.59252 4.80829C6.87444 6.57242 5.63445 8.74542 4.98969 11.122C5.34872 10.9749 5.74644 10.951 6.12049 11.0542L12.5661 9.99121C12.5661 9.99121 12.894 9.44843 13.0636 9.48235C14.4447 7.96556 16.3534 7.03404 18.3988 6.87848C20.4443 6.72291 22.4718 7.35508 24.0664 8.64555H24.0438Z" fill="#EA4335"/>
<path d="M32.9884 11.122C32.2476 8.39411 30.7267 5.94174 28.6122 4.0658L24.089 8.58902C25.0317 9.35929 25.7871 10.3336 26.2984 11.4384C26.8096 12.5432 27.0634 13.7496 27.0404 14.9668V15.7696C27.569 15.7696 28.0925 15.8738 28.5809 16.0761C29.0693 16.2784 29.5131 16.5749 29.887 16.9487C30.2608 17.3226 30.5573 17.7663 30.7596 18.2548C30.9619 18.7432 31.066 19.2667 31.066 19.7953C31.066 20.324 30.9619 20.8475 30.7596 21.3359C30.5573 21.8243 30.2608 22.2681 29.887 22.6419C29.5131 23.0157 29.0693 23.3122 28.5809 23.5146C28.0925 23.7169 27.569 23.821 27.0404 23.821H18.989L18.1862 24.6352V29.4637L18.989 30.2666H27.0404C29.2887 30.2841 31.4829 29.5775 33.2985 28.2512C35.1141 26.925 36.4546 25.0496 37.1216 22.9025C37.7887 20.7553 37.747 18.4505 37.0027 16.3289C36.2583 14.2073 34.8508 12.3817 32.9884 11.122Z" fill="#4285F4"/>
<path d="M10.9264 30.2214H18.9778V23.7758H10.9264C10.3528 23.7756 9.78592 23.6522 9.26415 23.4139L8.13334 23.7645L4.88793 26.9873L4.60522 28.1181C6.42518 29.4923 8.64591 30.2313 10.9264 30.2214Z" fill="#34A853"/>
<path d="M10.9264 9.31272C8.74489 9.32575 6.62191 10.0198 4.85398 11.298C3.08606 12.5761 1.76148 14.3745 1.06526 16.442C0.36904 18.5095 0.335943 20.7428 0.970591 22.83C1.60524 24.9173 2.87594 26.7541 4.60521 28.0841L9.27544 23.4139C8.68195 23.1457 8.16238 22.7376 7.76129 22.2245C7.36021 21.7115 7.08959 21.1087 6.97266 20.468C6.85573 19.8274 6.89598 19.1679 7.08995 18.5462C7.28393 17.9245 7.62583 17.3592 8.08634 16.8987C8.54684 16.4382 9.11219 16.0963 9.73388 15.9023C10.3556 15.7083 11.015 15.6681 11.6557 15.785C12.2964 15.9019 12.8991 16.1725 13.4122 16.5736C13.9253 16.9747 14.3334 17.4943 14.6015 18.0878L19.2718 13.4175C18.2915 12.1361 17.0281 11.0987 15.5804 10.3866C14.1327 9.67451 12.5398 9.30697 10.9264 9.31272Z" fill="#FBBC05"/>
<path d="M59.031 25.7207C57.6448 25.7384 56.2693 25.4761 54.9869 24.9495C53.7044 24.4229 52.5415 23.6429 51.5677 22.6562C50.5632 21.7114 49.7661 20.5681 49.2269 19.2989C48.6876 18.0297 48.4181 16.6623 48.4353 15.2834C48.4188 13.9046 48.6886 12.5374 49.2278 11.2682C49.767 9.99913 50.5638 8.85577 51.5677 7.91052C52.5367 6.9136 53.6975 6.12314 54.9802 5.58676C56.2628 5.05038 57.6408 4.77918 59.031 4.78949C60.3557 4.77184 61.6707 5.01767 62.8995 5.5127C64.1283 6.00772 65.2465 6.74207 66.189 7.67305L64.1762 9.71981C62.7977 8.38767 60.9477 7.6558 59.031 7.68436C58.0367 7.67215 57.0508 7.8669 56.1358 8.25625C55.2208 8.6456 54.3968 9.22103 53.7162 9.94597C53.0089 10.6477 52.4508 11.4854 52.0758 12.4085C51.7007 13.3316 51.5163 14.3211 51.5338 15.3173C51.5255 16.3022 51.7143 17.2788 52.0891 18.1896C52.4639 19.1004 53.0171 19.927 53.7162 20.6208C55.1166 22.0163 57.0063 22.8102 58.9831 22.8334C60.96 22.8566 62.8678 22.1074 64.3006 20.7452C65.1876 19.7738 65.7317 18.5385 65.8498 17.2284H59.0649V14.3335H68.6655C68.7598 14.9165 68.7977 15.5073 68.7786 16.0976C68.8383 17.3193 68.6496 18.5404 68.2239 19.6872C67.7983 20.8339 67.1445 21.8824 66.3021 22.7693C65.3655 23.7445 64.2339 24.5113 62.9811 25.0198C61.7282 25.5284 60.3823 25.7672 59.031 25.7207ZM81.3531 23.7984C80.0647 25.0334 78.3489 25.7229 76.5642 25.7229C74.7794 25.7229 73.0636 25.0334 71.7752 23.7984C71.1339 23.1766 70.6289 22.4283 70.2921 21.6009C69.9553 20.7736 69.7942 19.8853 69.8189 18.9924C69.7949 18.0996 69.9563 17.2115 70.2931 16.3843C70.6298 15.5571 71.1345 14.8087 71.7752 14.1865C73.065 12.954 74.7802 12.2663 76.5642 12.2663C78.3481 12.2663 80.0634 12.954 81.3531 14.1865C81.9939 14.8087 82.4986 15.5571 82.8353 16.3843C83.172 17.2115 83.3335 18.0996 83.3094 18.9924C83.3327 19.8861 83.1698 20.7749 82.831 21.6023C82.4923 22.4297 81.9852 23.1775 81.3418 23.7984H81.3531ZM73.8898 21.9099C74.2325 22.2759 74.6467 22.5676 75.1067 22.7671C75.5667 22.9665 76.0628 23.0695 76.5642 23.0695C77.0656 23.0695 77.5616 22.9665 78.0216 22.7671C78.4816 22.5676 78.8958 22.2759 79.2385 21.9099C79.6122 21.5237 79.9048 21.0666 80.099 20.5655C80.2932 20.0645 80.3851 19.5296 80.3693 18.9924C80.386 18.4535 80.2945 17.9166 80.1003 17.4136C79.9061 16.9106 79.6131 16.4516 79.2385 16.0636C78.8913 15.7014 78.4743 15.4132 78.0128 15.2162C77.5513 15.0193 77.0547 14.9178 76.5529 14.9178C76.0511 14.9178 75.5545 15.0193 75.0929 15.2162C74.6314 15.4132 74.2144 15.7014 73.8672 16.0636C73.4927 16.4516 73.1996 16.9106 73.0054 17.4136C72.8112 17.9166 72.7197 18.4535 72.7364 18.9924C72.7221 19.5304 72.8158 20.0657 73.012 20.5668C73.2081 21.0679 73.5028 21.5246 73.8785 21.9099H73.8898ZM96.0762 23.7984C94.7878 25.0334 93.072 25.7229 91.2873 25.7229C89.5025 25.7229 87.7867 25.0334 86.4983 23.7984C85.857 23.1766 85.352 22.4283 85.0152 21.6009C84.6784 20.7736 84.5173 19.8853 84.542 18.9924C84.518 18.0996 84.6794 17.2115 85.0162 16.3843C85.3529 15.5571 85.8576 14.8087 86.4983 14.1865C87.7867 12.9514 89.5025 12.2619 91.2873 12.2619C93.072 12.2619 94.7878 12.9514 96.0762 14.1865C96.717 14.8087 97.2217 15.5571 97.5584 16.3843C97.8951 17.2115 98.0566 18.0996 98.0325 18.9924C98.0573 19.8853 97.8961 20.7736 97.5593 21.6009C97.2226 22.4283 96.7175 23.1766 96.0762 23.7984ZM88.6129 21.9099C88.9556 22.2759 89.3698 22.5676 89.8298 22.7671C90.2898 22.9665 90.7859 23.0695 91.2873 23.0695C91.7887 23.0695 92.2847 22.9665 92.7447 22.7671C93.2047 22.5676 93.6189 22.2759 93.9616 21.9099C94.3353 21.5237 94.6279 21.0666 94.8221 20.5655C95.0163 20.0645 95.1082 19.5296 95.0924 18.9924C95.1091 18.4535 95.0176 17.9166 94.8234 17.4136C94.6292 16.9106 94.3362 16.4516 93.9616 16.0636C93.6144 15.7014 93.1974 15.4132 92.7359 15.2162C92.2744 15.0193 91.7778 14.9178 91.276 14.9178C90.7742 14.9178 90.2776 15.0193 89.816 15.2162C89.3545 15.4132 88.9375 15.7014 88.5903 16.0636C88.2158 16.4516 87.9227 16.9106 87.7285 17.4136C87.5343 17.9166 87.4428 18.4535 87.4595 18.9924C87.4452 19.5304 87.5389 20.0657 87.7351 20.5668C87.9312 21.0679 88.2259 21.5246 88.6016 21.9099H88.6129ZM105.756 31.7592C104.401 31.8023 103.071 31.3792 101.99 30.5606C101.03 29.839 100.275 28.8804 99.7966 27.7788L102.375 26.7045C102.655 27.3629 103.094 27.9417 103.653 28.3894C104.25 28.8711 105 29.1237 105.767 29.1018C106.254 29.1314 106.741 29.0558 107.196 28.8802C107.65 28.7046 108.062 28.4331 108.402 28.0841C109.083 27.2623 109.42 26.2085 109.341 25.144V24.1715H109.239C108.808 24.6833 108.264 25.0877 107.649 25.3527C107.035 25.6177 106.367 25.7359 105.699 25.6981C104.85 25.7007 104.01 25.5271 103.232 25.1885C102.453 24.8498 101.753 24.3534 101.176 23.7305C100.55 23.1126 100.056 22.3741 99.7236 21.5597C99.3912 20.7453 99.2276 19.8719 99.2425 18.9924C99.2269 18.1078 99.3901 17.2291 99.7224 16.4091C100.055 15.5891 100.549 14.8446 101.176 14.2204C101.752 13.595 102.451 13.096 103.23 12.7554C104.008 12.4147 104.849 12.2397 105.699 12.2415C106.419 12.2402 107.129 12.3986 107.78 12.7051C108.343 12.951 108.845 13.3177 109.25 13.7794H109.352V12.7051H112.156V24.7482C112.23 25.7009 112.109 26.6586 111.8 27.5628C111.49 28.4669 111 29.2985 110.358 30.0065C109.747 30.5912 109.025 31.0476 108.234 31.3486C107.444 31.6496 106.601 31.7893 105.756 31.7592ZM105.959 23.0746C106.442 23.0852 106.922 22.9894 107.363 22.794C107.805 22.5986 108.198 22.3083 108.515 21.9438C109.213 21.1443 109.581 20.1095 109.544 19.049C109.586 17.9705 109.218 16.9162 108.515 16.0976C108.199 15.7325 107.806 15.4418 107.364 15.2463C106.922 15.0508 106.442 14.9554 105.959 14.9668C105.463 14.9566 104.971 15.0521 104.515 15.2471C104.058 15.4421 103.649 15.732 103.313 16.0976C102.565 16.8868 102.159 17.9392 102.183 19.0263C102.171 19.5596 102.265 20.0898 102.459 20.5866C102.653 21.0834 102.944 21.537 103.313 21.9212C103.647 22.2903 104.056 22.584 104.512 22.7829C104.968 22.9818 105.462 23.0812 105.959 23.0746ZM117.143 5.54713V25.3136H114.192V5.54713H117.143ZM125.24 25.7207C124.356 25.7434 123.477 25.5834 122.658 25.2507C121.838 24.918 121.097 24.4197 120.479 23.787C119.852 23.159 119.36 22.4102 119.031 21.586C118.703 20.7618 118.545 19.8794 118.568 18.9924C118.535 18.1033 118.681 17.2165 118.997 16.385C119.314 15.5535 119.795 14.7942 120.411 14.1526C120.992 13.5402 121.694 13.0559 122.473 12.7307C123.252 12.4055 124.091 12.2466 124.934 12.2641C125.71 12.2559 126.48 12.406 127.196 12.7051C127.841 12.9655 128.429 13.3496 128.926 13.8359C129.353 14.2482 129.733 14.7072 130.057 15.2042C130.319 15.6239 130.543 16.0668 130.724 16.5273L131.029 17.2962L121.983 21.0166C122.257 21.6452 122.714 22.1762 123.296 22.5395C123.877 22.9029 124.555 23.0816 125.24 23.052C125.906 23.0538 126.562 22.8829 127.142 22.5559C127.723 22.2289 128.209 21.757 128.553 21.1862L130.815 22.7128C130.237 23.5385 129.499 24.2386 128.643 24.7708C127.626 25.4135 126.443 25.7438 125.24 25.7207ZM121.463 18.7889L127.479 16.2898C127.293 15.8491 126.962 15.4858 126.54 15.2608C126.068 14.9941 125.533 14.8575 124.991 14.865C124.071 14.8888 123.197 15.2749 122.56 15.9392C122.178 16.3042 121.882 16.7488 121.693 17.2414C121.503 17.734 121.425 18.2624 121.463 18.7889Z" fill="#5F6368"/>
<path d="M146.487 25.7207C145.232 25.7424 143.986 25.5102 142.822 25.0381C141.659 24.566 140.603 23.8637 139.718 22.9734C138.833 22.083 138.137 21.0231 137.672 19.8571C137.207 18.6911 136.982 17.4431 137.011 16.188C136.982 14.933 137.207 13.685 137.672 12.519C138.137 11.353 138.833 10.293 139.718 9.40271C140.603 8.51239 141.659 7.81009 142.822 7.33798C143.986 6.86586 145.232 6.63367 146.487 6.65534C147.758 6.61561 149.021 6.86349 150.182 7.38043C151.343 7.89737 152.373 8.67003 153.193 9.64066L151.565 11.2238C150.962 10.466 150.19 9.86115 149.309 9.45834C148.429 9.05554 147.466 8.86617 146.499 8.90564C145.568 8.88466 144.642 9.05216 143.777 9.39806C142.912 9.74396 142.126 10.2611 141.467 10.9185C140.781 11.6083 140.245 12.4325 139.893 13.3393C139.54 14.2462 139.379 15.216 139.42 16.188C139.379 17.16 139.54 18.1299 139.893 19.0367C140.245 19.9436 140.781 20.7678 141.467 21.4576C142.126 22.1149 142.912 22.6321 143.777 22.978C144.642 23.3239 145.568 23.4914 146.499 23.4704C147.579 23.4825 148.649 23.2509 149.628 22.7928C150.607 22.3347 151.47 21.6619 152.153 20.8243L153.781 22.4527C152.929 23.4722 151.858 24.2876 150.649 24.8387C149.345 25.4406 147.923 25.742 146.487 25.7207Z" fill="#5F6368"/>
<path d="M158.158 25.3136H155.817V7.05112H158.158V25.3136Z" fill="#5F6368"/>
<path d="M161.98 14.3222C163.206 13.1041 164.865 12.4205 166.593 12.4205C168.322 12.4205 169.98 13.1041 171.207 14.3222C171.807 14.9555 172.275 15.7011 172.586 16.5162C172.896 17.3313 173.043 18.1998 173.016 19.0716C173.043 19.9434 172.896 20.8119 172.586 21.627C172.275 22.4421 171.807 23.1877 171.207 23.821C169.98 25.0391 168.322 25.7227 166.593 25.7227C164.865 25.7227 163.206 25.0391 161.98 23.821C161.38 23.1877 160.911 22.4421 160.601 21.627C160.29 20.8119 160.144 19.9434 160.17 19.0716C160.144 18.1998 160.29 17.3313 160.601 16.5162C160.911 15.7011 161.38 14.9555 161.98 14.3222ZM163.721 22.3509C164.09 22.7407 164.534 23.0512 165.027 23.2633C165.52 23.4755 166.051 23.585 166.588 23.585C167.124 23.585 167.655 23.4755 168.148 23.2633C168.641 23.0512 169.085 22.7407 169.454 22.3509C169.863 21.9119 170.181 21.3959 170.389 20.8329C170.596 20.2699 170.69 19.6711 170.664 19.0716C170.69 18.472 170.596 17.8733 170.389 17.3103C170.181 16.7473 169.863 16.2313 169.454 15.7923C169.085 15.4025 168.641 15.092 168.148 14.8798C167.655 14.6677 167.124 14.5582 166.588 14.5582C166.051 14.5582 165.52 14.6677 165.027 14.8798C164.534 15.092 164.09 15.4025 163.721 15.7923C163.312 16.2313 162.994 16.7473 162.786 17.3103C162.579 17.8733 162.485 18.472 162.511 19.0716C162.488 19.67 162.584 20.2671 162.794 20.8281C163.004 21.3891 163.323 21.9029 163.732 22.3396L163.721 22.3509Z" fill="#5F6368"/>
<path d="M185.987 25.3136H183.725V23.5835H183.657C183.255 24.2406 182.685 24.7791 182.006 25.144C181.302 25.5522 180.502 25.7668 179.688 25.766C179.027 25.8112 178.365 25.7065 177.75 25.4598C177.135 25.2131 176.584 24.8307 176.137 24.3411C175.281 23.2577 174.85 21.8981 174.927 20.519V12.8295H177.268V20.0893C177.268 22.4188 178.297 23.5835 180.355 23.5835C180.813 23.5978 181.267 23.5026 181.68 23.3059C182.093 23.1092 182.453 22.8167 182.73 22.4527C183.337 21.6838 183.66 20.7294 183.646 19.7501V12.8295H185.987V25.3136Z" fill="#5F6368"/>
<path d="M193.936 25.7207C193.142 25.7234 192.357 25.5539 191.635 25.224C190.912 24.8941 190.27 24.4116 189.752 23.8097C188.58 22.5148 187.952 20.8177 187.999 19.0716C187.952 17.3255 188.58 15.6284 189.752 14.3335C190.27 13.7316 190.912 13.2491 191.635 12.9192C192.357 12.5893 193.142 12.4198 193.936 12.4224C194.826 12.4084 195.705 12.6184 196.492 13.0331C197.184 13.3812 197.769 13.9083 198.188 14.5597H198.29L198.188 12.8295V7.05112H200.529V25.3136H198.267V23.5835H198.165C197.747 24.2349 197.161 24.762 196.469 25.1101C195.689 25.5211 194.818 25.731 193.936 25.7207ZM194.321 23.5835C194.85 23.5912 195.374 23.4863 195.86 23.2757C196.345 23.0652 196.78 22.7538 197.136 22.3622C197.932 21.4568 198.338 20.2745 198.267 19.0716C198.338 17.8687 197.932 16.6863 197.136 15.7809C196.778 15.3873 196.342 15.0727 195.855 14.8575C195.368 14.6423 194.842 14.5311 194.309 14.5311C193.777 14.5311 193.251 14.6423 192.764 14.8575C192.277 15.0727 191.841 15.3873 191.482 15.7809C191.087 16.2263 190.784 16.7452 190.59 17.3079C190.396 17.8706 190.315 18.4662 190.352 19.0603C190.315 19.6544 190.396 20.2499 190.59 20.8127C190.784 21.3754 191.087 21.8943 191.482 22.3396C191.839 22.7382 192.277 23.0555 192.766 23.2701C193.256 23.4847 193.786 23.5916 194.321 23.5835Z" fill="#5F6368"/>
</svg>
