<svg width="78" height="86" viewBox="0 0 78 86" fill="none" xmlns="http://www.w3.org/2000/svg">
<mask id="mask0_4_292" style="mask-type:alpha" maskUnits="userSpaceOnUse" x="0" y="0" width="78" height="86">
<path d="M77.8751 37.8744C77.735 36.4458 77.5015 34.8064 77.0345 32.9796C76.5675 31.1763 75.8669 29.1856 74.8395 27.1247C73.8121 25.0638 72.4811 22.9326 70.7531 20.8482C70.0759 20.0285 69.3287 19.2323 68.5348 18.4594C69.7257 13.7052 67.087 9.58333 67.087 9.58333C62.5336 9.30229 59.6381 11.0119 58.5639 11.7848C58.3771 11.7145 58.2137 11.6208 58.0269 11.5506C57.2563 11.2461 56.4624 10.9417 55.6217 10.6841C54.8045 10.4264 53.9638 10.1922 53.0998 9.98146C52.2359 9.77069 51.3719 9.60675 50.4846 9.46623C50.3211 9.44281 50.181 9.41939 50.0175 9.39597C48.0327 3.02581 42.3351 0.355957 42.3351 0.355957C35.9603 4.40757 34.7694 10.0751 34.7694 10.0751C34.7694 10.0751 34.7461 10.1922 34.6994 10.403C34.3491 10.4967 33.9988 10.6138 33.6486 10.7075C33.1582 10.848 32.6678 11.0354 32.2008 11.2227C31.7105 11.4101 31.2434 11.5974 30.7531 11.8082C29.7957 12.2298 28.8383 12.6982 27.9043 13.2134C26.9936 13.7286 26.1063 14.2907 25.2423 14.8762L25.0088 14.7825C16.1821 11.4101 8.35961 15.4617 8.35961 15.4617C7.63573 24.8764 11.8856 30.8016 12.7262 31.8789C12.5161 32.4644 12.3293 33.0499 12.1424 33.6354C11.4886 35.7666 10.9983 37.9446 10.6947 40.2163C10.648 40.5442 10.6013 40.8721 10.5779 41.2C2.40514 45.2516 0 53.5187 0 53.5187C6.7951 61.3643 14.7344 61.8562 14.7344 61.8562L14.7577 61.8327C15.7618 63.6361 16.9294 65.3457 18.237 66.9617C18.7974 67.6408 19.3579 68.2732 19.965 68.9055C17.4898 76.0251 20.3152 81.9269 20.3152 81.9269C27.8809 82.2079 32.8547 78.6013 33.9054 77.7816C34.6527 78.0392 35.4233 78.2734 36.1938 78.4607C38.5289 79.0697 40.9107 79.421 43.2925 79.5146C43.8763 79.5381 44.4834 79.5615 45.0672 79.5381H45.9078L46.2814 79.5146V79.5381C49.8541 84.6436 56.1121 85.3696 56.1121 85.3696C60.5721 80.6622 60.829 75.9783 60.829 74.9712V74.9009V74.7604V74.5497C61.763 73.8939 62.6503 73.1913 63.491 72.4185C65.2656 70.8025 66.8302 68.9523 68.1378 66.9617L68.4881 66.3996C73.5318 66.6806 77.1045 63.2613 77.1045 63.2613C76.2639 57.9919 73.275 55.4157 72.6445 54.9239C72.014 54.4321 72.6212 54.9005 72.5745 54.8771C72.5278 54.8537 72.5278 54.8302 72.5278 54.8302C72.5044 54.8068 72.4577 54.7834 72.411 54.76C72.4344 54.4321 72.4577 54.1277 72.4811 53.7998C72.5278 53.2377 72.5278 52.6522 72.5278 52.0901V51.3407V51.2002L72.5044 50.8489L72.4811 50.3805C72.4811 50.2166 72.4577 50.076 72.4344 49.9355C72.411 49.795 72.411 49.6311 72.3877 49.4905L72.341 49.0456L72.2709 48.6006C72.1775 48.0151 72.0841 47.453 71.944 46.8675C71.4069 44.5958 70.5196 42.4412 69.3754 40.4974C68.2079 38.5535 66.7601 36.8439 65.1022 35.3919C63.4676 33.9398 61.6229 32.7689 59.7081 31.9023C57.77 31.0358 55.7618 30.4737 53.7537 30.2161C52.7496 30.0756 51.7455 30.0288 50.7414 30.0522H49.9942L49.6206 30.0756C49.4805 30.0756 49.3404 30.099 49.2236 30.099C48.7099 30.1459 48.1962 30.2161 47.7058 30.3098C45.6976 30.6845 43.8062 31.4105 42.1483 32.4176C40.4904 33.4246 39.0426 34.6659 37.8751 36.071C36.7075 37.4762 35.7969 39.0453 35.1664 40.6613C34.5359 42.2773 34.1857 43.9635 34.0923 45.5795C34.0689 45.9776 34.0689 46.3991 34.0689 46.7973V47.1017L34.0923 47.4296C34.1156 47.617 34.1156 47.8277 34.139 48.0151C34.209 48.8348 34.3725 49.6311 34.5826 50.3805C35.0263 51.9028 35.7268 53.2845 36.5908 54.4555C37.4548 55.6265 38.5056 56.5867 39.6031 57.3596C40.7005 58.109 41.8914 58.6477 43.059 58.999C44.2265 59.3502 45.3941 59.4908 46.4916 59.4908H47.0987C47.1687 59.4908 47.2388 59.4908 47.3088 59.4673C47.4256 59.4673 47.5423 59.4439 47.6591 59.4439C47.6825 59.4439 47.7292 59.4439 47.7525 59.4205L47.8693 59.3971C47.9393 59.3971 48.0094 59.3737 48.0794 59.3737C48.2195 59.3503 48.3363 59.3268 48.4764 59.3034C48.6165 59.28 48.7332 59.2566 48.85 59.2097C49.1069 59.1629 49.3404 59.0692 49.5739 58.999C50.0409 58.835 50.5079 58.6477 50.9049 58.4369C51.3252 58.2261 51.6988 57.9685 52.0724 57.7343C52.1658 57.664 52.2826 57.5938 52.376 57.5001C52.7496 57.1956 52.8196 56.6336 52.5161 56.2588C52.2592 55.931 51.7922 55.8373 51.4186 56.0481L51.1384 56.1886C50.8115 56.3525 50.4846 56.493 50.1343 56.6101C49.784 56.7272 49.4104 56.8209 49.0368 56.8912C48.85 56.9146 48.6632 56.938 48.453 56.9614C48.3596 56.9614 48.2662 56.9849 48.1495 56.9849H47.589C47.4723 56.9849 47.3555 56.9849 47.2388 56.9614H47.0987C47.052 56.9614 46.9819 56.9614 46.9352 56.938C46.8185 56.9146 46.7251 56.9146 46.6083 56.8912C45.7443 56.7741 44.8803 56.5165 44.0631 56.1417C43.2224 55.767 42.4285 55.2518 41.7046 54.596C40.9808 53.9403 40.3503 53.1674 39.8599 52.2775C39.3695 51.3875 39.0193 50.4039 38.8558 49.3734C38.7858 48.8582 38.7391 48.3196 38.7624 47.8043C38.7624 47.6638 38.7858 47.5233 38.7858 47.3828V47.1954C38.7858 47.1252 38.8091 47.0549 38.8091 46.9846C38.8325 46.7036 38.8792 46.4226 38.9259 46.1415C39.3228 43.8932 40.4437 41.6918 42.1716 40.029C42.6153 39.6074 43.0823 39.2327 43.5727 38.8814C44.0631 38.5301 44.6001 38.2257 45.1606 37.968C45.721 37.7104 46.2814 37.4996 46.8885 37.3357C47.4723 37.1718 48.0794 37.0781 48.7099 37.0078C49.0135 36.9844 49.317 36.961 49.6439 36.961H50.3678L50.6247 36.9844C51.3018 37.0312 51.9557 37.1249 52.6095 37.2889C53.9171 37.5699 55.2014 38.0617 56.3923 38.7175C58.7741 40.0524 60.8056 42.1133 62.0432 44.5958C62.6737 45.8371 63.1174 47.172 63.3275 48.5538C63.3742 48.9051 63.4209 49.2563 63.4443 49.6076L63.4676 49.8653L63.491 50.1229V51.1299C63.491 51.2939 63.4676 51.5749 63.4676 51.7388C63.4443 52.1136 63.3976 52.5117 63.3509 52.8864C63.3042 53.2611 63.2341 53.6358 63.1641 54.0106C63.094 54.3853 63.0006 54.76 62.9072 55.1113C62.7204 55.8373 62.4869 56.5633 62.2067 57.2893C61.6463 58.6945 60.899 60.0528 60.0117 61.2941C58.2137 63.7766 55.7618 65.7907 52.9597 67.0788C51.5587 67.7111 50.0876 68.1795 48.5698 68.4137C47.8226 68.5542 47.052 68.6245 46.2814 68.6479H45.1139C44.6935 68.6479 44.2966 68.6245 43.8763 68.5776C42.2417 68.4605 40.6305 68.1561 39.0426 67.7111C37.4781 67.2661 35.9603 66.6338 34.5126 65.8844C31.6404 64.3386 29.0485 62.2309 27.0403 59.6781C26.0362 58.4135 25.1489 57.0317 24.425 55.6031C23.7011 54.1745 23.1173 52.6522 22.697 51.1299C22.2767 49.5842 22.0199 48.0151 21.9031 46.4226L21.8798 46.1181V44.7832V44.6192V44.0337C21.9031 43.2609 21.9732 42.4412 22.0666 41.6449C22.16 40.8487 22.3001 40.029 22.4635 39.2327C22.627 38.4364 22.8138 37.6402 23.0473 36.8439C23.491 35.2748 24.0514 33.7525 24.7052 32.3239C26.0362 29.4667 27.7642 26.9139 29.8424 24.8764C30.3561 24.3612 30.8932 23.8928 31.4536 23.4244C32.014 22.9794 32.5978 22.5579 33.2049 22.1597C33.7887 21.7616 34.4192 21.4103 35.0496 21.0824C35.3532 20.9185 35.6801 20.7545 36.007 20.614L36.4974 20.4032L36.9878 20.1925C37.6416 19.9114 38.3188 19.6772 39.0193 19.4665C39.1827 19.4196 39.3695 19.3728 39.533 19.3025C39.6965 19.2557 39.8833 19.2088 40.0467 19.162C40.397 19.0683 40.7472 18.9746 41.0975 18.9044C41.261 18.8575 41.4478 18.8341 41.6346 18.7873C41.8214 18.7404 41.9848 18.717 42.1716 18.6702C42.3585 18.6468 42.5219 18.5999 42.7087 18.5765L42.9656 18.5297L43.2458 18.4828C43.4326 18.4594 43.5961 18.436 43.7829 18.4126C43.993 18.3891 44.1798 18.3657 44.39 18.3423C44.5534 18.3189 44.8336 18.2955 44.9971 18.272C45.1139 18.2486 45.254 18.2486 45.3707 18.2252L45.6276 18.2018L45.7443 18.1784H45.8844C46.0946 18.1549 46.2814 18.155 46.4916 18.1315L46.7951 18.1081H47.0286C47.1921 18.1081 47.3789 18.0847 47.5423 18.0847C48.2195 18.0613 48.92 18.0613 49.5972 18.0847C50.9516 18.1315 52.2826 18.2955 53.5669 18.5297C56.1588 19.0215 58.5873 19.8412 60.8056 20.9419C63.024 22.0192 64.9854 23.3541 66.7134 24.8062C66.8302 24.8998 66.9236 24.9935 67.0403 25.0872C67.1337 25.1809 67.2505 25.2745 67.3439 25.3682C67.554 25.5556 67.7408 25.7429 67.951 25.9303C68.1612 26.1177 68.348 26.305 68.5348 26.4924C68.7216 26.6797 68.9084 26.8671 69.0952 27.0779C69.8191 27.8507 70.4962 28.6236 71.1034 29.4198C72.3176 30.989 73.2983 32.5815 74.0689 34.0804L74.209 34.3614L74.3491 34.6424C74.4425 34.8298 74.5359 35.0172 74.606 35.2045C74.6994 35.3919 74.7694 35.5558 74.8628 35.7432C74.9329 35.9305 75.0263 36.0945 75.0964 36.2818C75.3766 36.9844 75.6568 37.6636 75.8669 38.2959C76.2172 39.3264 76.4741 40.2398 76.6842 41.036C76.7543 41.3639 77.0578 41.5747 77.3847 41.5278C77.735 41.5044 77.9919 41.2234 77.9919 40.8721C78.0152 40.029 77.9919 39.0219 77.8751 37.8744V37.8744Z" fill="url(#paint0_linear_4_292)"/>
</mask>
<g mask="url(#mask0_4_292)">
<path d="M79.0362 0.143433H-0.424988V86.4444H79.0362V0.143433Z" fill="url(#paint1_linear_4_292)"/>
</g>
<defs>
<linearGradient id="paint0_linear_4_292" x1="38.9959" y1="0.192019" x2="38.9959" y2="0.353615" gradientUnits="userSpaceOnUse">
<stop stop-color="#F05A28"/>
<stop offset="1" stop-color="#FBCA0A"/>
</linearGradient>
<linearGradient id="paint1_linear_4_292" x1="39.2963" y1="105.854" x2="39.2963" y2="27.0095" gradientUnits="userSpaceOnUse">
<stop stop-color="#FFF200"/>
<stop offset="1" stop-color="#F15A29"/>
</linearGradient>
</defs>
</svg>
