<svg width="70" height="106" viewBox="0 0 70 106" fill="none" xmlns="http://www.w3.org/2000/svg">
<path d="M52.2476 12.8863C52.2476 13.4092 52.2476 13.9285 52.2476 14.4515C52.2476 14.6396 52.2401 14.8277 52.2476 15.0121C52.2739 15.584 52.5252 16.1484 52.829 16.63C53.7854 18.1463 55.2707 19.2826 56.711 20.3022C57.4912 20.8553 58.3014 21.4047 59.1453 21.8524C59.4904 22.0368 59.8392 22.2023 60.173 22.4093C60.3343 22.5109 60.4918 22.6124 60.6494 22.7216C60.7431 22.7855 60.8332 22.8532 60.9232 22.9172C61.212 23.1241 60.6044 22.6501 60.8969 22.8984C61.5083 23.4214 62.0597 23.9783 62.5773 24.5953C62.8286 24.8963 62.3147 24.2341 62.5435 24.5501C62.596 24.6216 62.6485 24.6931 62.701 24.7646C62.8136 24.9226 62.9223 25.0807 63.0274 25.2425C63.2374 25.5623 63.4324 25.8896 63.6125 26.2245C63.7925 26.5593 63.9576 26.8905 64.1151 27.2291C64.1789 27.3683 64.3926 27.9251 64.1676 27.3307C64.2389 27.515 64.3176 27.6956 64.3851 27.88C64.8502 29.1104 65.1878 30.3896 65.4166 31.6839C65.4579 31.9172 65.4954 32.1505 65.5291 32.3838C65.6041 32.8917 65.4804 31.9661 65.5179 32.2972C65.5329 32.4214 65.5479 32.5456 65.5629 32.6735C65.5967 32.9895 65.6266 33.3018 65.6454 33.6179C65.6529 33.7646 65.6604 33.9076 65.6604 34.0543C65.6792 36.1952 65.6604 38.3361 65.6604 40.4732C65.6604 44.9845 65.6604 49.4958 65.6604 54.0071C65.6604 59.4553 65.6604 64.9034 65.6604 70.3516C65.6604 75.3407 65.6604 80.3336 65.6604 85.3228C65.6604 88.4532 65.6604 91.5874 65.6604 94.7178V95.6848C65.6604 95.7638 65.6604 95.8428 65.6604 95.9181C65.6604 95.9369 65.6604 95.9519 65.6604 95.9708C65.6379 96.4787 65.7542 95.5795 65.6642 95.9783C65.6267 96.1363 65.5966 96.2981 65.5479 96.4524C65.5291 96.5088 65.5104 96.5652 65.4916 96.6179C65.4166 96.87 65.3078 96.7571 65.5516 96.4938C65.4654 96.5878 65.4204 96.7684 65.3566 96.8851C65.2553 97.0657 65.1391 97.2275 65.0265 97.4005C64.914 97.5736 64.9328 97.3516 65.1616 97.2312C65.1053 97.2613 65.034 97.3855 64.9928 97.4344C64.8952 97.5473 64.794 97.6564 64.689 97.7617C64.5727 97.8784 64.4489 97.9913 64.3251 98.1004C64.2689 98.1493 64.2089 98.1982 64.1526 98.2471C63.785 98.5594 64.4339 98.0552 64.1713 98.2358C63.605 98.6196 63.0386 98.9846 62.4272 99.2931C62.1609 99.4248 61.8459 99.5188 61.5983 99.6769C62.0221 99.4022 61.8909 99.5565 61.7146 99.6242C61.6321 99.6581 61.5495 99.6882 61.4708 99.722C61.3095 99.786 61.1482 99.8462 60.9869 99.9026C60.0905 100.226 59.1678 100.493 58.2376 100.693C58.0913 100.723 57.945 100.753 57.7988 100.779C57.6937 100.798 57.5925 100.813 57.4874 100.832C57.0261 100.907 57.9976 100.772 57.5625 100.824C57.2812 100.858 57.0036 100.888 56.7223 100.915C53.7404 101.193 50.7323 101.257 47.7392 101.325C44.746 101.393 41.6479 101.378 38.6023 101.378C34.0826 101.378 29.5666 101.378 25.0469 101.378C23.8016 101.378 22.5564 101.347 21.3149 101.317C18.363 101.25 15.3924 101.189 12.4555 100.892C12.328 100.881 12.2005 100.866 12.073 100.851C11.8892 100.828 11.3265 100.73 12.088 100.858C11.9304 100.832 11.7691 100.809 11.6116 100.783C11.4278 100.749 11.244 100.712 11.0602 100.67C10.0738 100.448 9.09858 100.158 8.14963 99.801C7.9996 99.7446 7.84957 99.6844 7.70329 99.6242C7.24944 99.4436 8.10462 99.8086 7.65452 99.6016C7.3207 99.4474 6.98687 99.2931 6.66056 99.12C6.38675 98.9733 6.11671 98.819 5.85791 98.6535C5.71538 98.5631 5.57284 98.4691 5.43407 98.3713C5.3703 98.3261 5.31029 98.281 5.24653 98.2358C4.98397 98.0514 5.6291 98.5632 5.26528 98.2471C5.03648 98.0515 4.81142 97.852 4.60138 97.6338C4.50761 97.536 4.36883 97.2877 4.25256 97.2312C4.26756 97.2387 4.53386 97.6338 4.38758 97.4005C4.32382 97.3027 4.25257 97.2086 4.19256 97.1108C4.11379 96.9867 4.04252 96.8625 3.97876 96.7308C3.945 96.6668 3.915 96.5464 3.86624 96.4938C4.08754 96.7346 4.0125 96.8851 3.94124 96.6593C3.89248 96.505 3.83997 96.3545 3.80246 96.1928C3.78746 96.1363 3.77996 96.0761 3.76496 96.0197C3.65244 95.5531 3.75746 96.3846 3.76872 96.0686C3.82873 94.3152 3.76121 92.5469 3.76121 90.7935V77.9444C3.76121 72.5565 3.76121 67.1647 3.76121 61.7768C3.76121 56.3888 3.76121 51.4862 3.76121 46.339V35.9732C3.76121 35.3223 3.75371 34.6752 3.76121 34.0242C3.76121 33.8436 3.77246 33.663 3.78371 33.4787C3.80622 33.1325 3.83998 32.7826 3.88499 32.4364C3.90749 32.2596 3.98251 31.8307 3.86624 32.5719C3.88499 32.4628 3.89625 32.3537 3.915 32.2445C3.96001 31.9548 4.00876 31.6651 4.06502 31.3792C4.31257 30.0924 4.66515 28.8206 5.149 27.5978C5.18651 27.5075 5.22776 27.4172 5.26152 27.3232C5.25402 27.3382 5.06648 27.7709 5.19026 27.4962C5.27277 27.3119 5.35528 27.1275 5.44155 26.9469C5.60284 26.6083 5.77913 26.2734 5.96667 25.9461C6.15421 25.6187 6.3605 25.2876 6.57805 24.9716C6.67932 24.8248 6.78435 24.6856 6.88562 24.5426C7.11817 24.2266 6.60055 24.8888 6.85185 24.5878C6.91936 24.505 6.98689 24.4222 7.05441 24.3394C7.30946 24.0384 7.58326 23.745 7.86832 23.4703C7.9996 23.3424 8.13463 23.222 8.27341 23.1016C8.35593 23.0301 8.44219 22.9586 8.52846 22.8871C8.83228 22.6275 8.17214 23.143 8.5022 22.9059C9.07983 22.492 9.67995 22.1609 10.3063 21.8261C11.2665 21.3106 12.1855 20.6823 13.0631 20.0426C14.4059 19.0606 15.8462 17.9469 16.6864 16.472C16.9452 16.0167 17.159 15.5163 17.1778 14.9858C17.1853 14.7901 17.1778 14.5945 17.1778 14.3988V12.8787C17.1778 11.893 16.3151 10.9523 15.3024 10.9975C14.2897 11.0426 13.427 11.8252 13.427 12.8787V14.4853C13.427 14.6547 13.4045 14.839 13.427 15.0046L13.4682 14.5832C13.6108 14.2558 13.6445 14.1806 13.5658 14.3537C13.5245 14.4251 13.4907 14.5042 13.4495 14.5757C13.4045 14.6509 13.1382 14.9632 13.1532 15.0271C13.1307 14.9256 13.457 14.6509 13.2057 14.9481C13.1644 15.0008 13.1194 15.0497 13.0744 15.0986C12.9356 15.2529 12.7931 15.4034 12.6431 15.5464C12.358 15.8286 12.058 16.0919 11.7466 16.3478C11.6604 16.4193 11.5741 16.487 11.4878 16.5585C11.1878 16.8031 11.7691 16.3516 11.5628 16.5021C11.4016 16.6187 11.244 16.7429 11.079 16.8595C10.7752 17.0815 10.4639 17.296 10.1488 17.5067C9.30488 18.0673 8.42343 18.5226 7.55325 19.0343C5.93291 19.9862 4.61265 21.3031 3.51367 22.8194C1.81831 25.1672 0.828103 28.0606 0.348002 30.9013C0.171715 31.9398 0.0141696 33.0121 0.00666806 34.0694C-0.00833508 36.263 0.00666806 38.4603 0.00666806 40.6538C0.00666806 45.2216 0.00666806 49.7893 0.00666806 54.3608C0.00666806 58.9323 0.00666806 65.3625 0.00666806 70.8595V94.9398C0.00666806 95.8278 -0.00457238 96.6706 0.276736 97.5398C1.3082 100.7 4.42135 102.435 7.35447 103.507C9.04232 104.124 10.7489 104.493 12.5343 104.67C15.5087 104.963 18.5131 105.023 21.4987 105.091C24.4843 105.159 27.68 105.148 30.7744 105.148C35.3166 105.148 39.8588 105.148 44.401 105.148C45.6687 105.148 46.9327 105.114 48.2005 105.084C51.1711 105.012 54.1643 104.959 57.1236 104.643C58.909 104.455 60.6269 104.056 62.3072 103.417C65.1916 102.322 68.3797 100.508 69.2162 97.2876C69.4299 96.4674 69.4112 95.6923 69.4112 94.8608C69.4112 93.6493 69.4112 92.4415 69.4112 91.23C69.4112 87.0046 69.4112 82.7755 69.4112 78.5502C69.4112 73.1171 69.4112 67.684 69.4112 62.2508C69.4112 57.051 69.4112 51.8549 69.4112 46.6551C69.4112 43.1333 69.4112 39.6116 69.4112 36.0899C69.4112 34.2462 69.3587 32.523 69.0324 30.6869C68.5223 27.8161 67.4833 24.9076 65.7167 22.5673C64.5614 21.0397 63.1661 19.7115 61.4633 18.8123C60.6231 18.3683 59.8167 17.8792 59.029 17.3449C58.7102 17.1267 58.3914 16.9047 58.0801 16.6714C58.0201 16.6262 57.9638 16.5848 57.9038 16.5397C57.5812 16.2989 58.2451 16.8181 57.9338 16.5623C57.7913 16.4456 57.645 16.329 57.5062 16.2086C57.2024 15.9527 56.9098 15.6856 56.6323 15.3997C56.5123 15.2793 56.396 15.1513 56.2835 15.0234C56.2197 14.9519 56.1634 14.8654 56.0959 14.7976C56.4672 15.1814 56.2534 15.0121 56.1634 14.8767C56.0847 14.7525 56.0021 14.6321 55.9309 14.5042C55.8971 14.4402 55.8671 14.3386 55.8221 14.2822C55.9534 14.444 56.0096 14.8428 55.9946 15.0008C56.0171 14.8089 55.9946 14.5982 55.9946 14.4063C55.9946 13.8984 55.9946 13.3904 55.9946 12.8863C55.9946 11.9005 55.132 10.9598 54.1192 11.005C53.1065 11.0501 52.2439 11.8327 52.2439 12.8863H52.2476Z" fill="#EAB54E"/>
<path d="M56.0352 4.46599C56.0465 4.19279 56.0841 3.92344 56.2569 3.63486C56.1292 3.84649 56.644 3.16542 56.4636 3.3655C56.2644 3.58868 56.8093 3.12694 56.7229 3.17311C56.6665 3.2039 56.6139 3.24623 56.5613 3.27701C56.5012 3.31164 56.4373 3.33858 56.3772 3.37321C56.0841 3.53097 56.8845 3.18081 56.5876 3.28085C56.3997 3.34626 56.2156 3.41553 56.0277 3.47324C54.968 3.79261 53.867 3.96962 52.7773 4.12738C52.6909 4.13892 52.6045 4.15047 52.5143 4.16586C53.0516 4.08121 52.8111 4.12353 52.6909 4.14277C52.5068 4.16586 52.3189 4.19278 52.1347 4.21587C51.7402 4.26589 51.3456 4.30822 50.9511 4.35055C50.0756 4.4429 49.2 4.5237 48.3245 4.59296C46.2766 4.75457 44.2249 4.86616 42.1732 4.94312C37.4761 5.12012 32.7715 5.13551 28.0706 4.99314C24.2378 4.87771 20.3937 4.68531 16.5872 4.21203C16.403 4.18894 16.2152 4.16586 16.031 4.13892C15.7154 4.0966 16.1851 4.15816 16.2076 4.16201C16.1024 4.14662 15.9972 4.13123 15.8958 4.11584C15.5688 4.06966 15.2419 4.01579 14.9188 3.96192C14.3701 3.86958 13.8253 3.76183 13.2842 3.63101C12.8934 3.53481 12.5176 3.40783 12.1381 3.28085C11.8412 3.18081 12.6416 3.53097 12.3485 3.37321C12.2884 3.33858 12.2245 3.31164 12.1644 3.27701C12.1193 3.25008 12.0629 3.19621 12.0141 3.18082C11.9014 3.14234 12.4688 3.56944 12.2583 3.3655C12.0667 3.17696 12.589 3.85803 12.465 3.63486C12.6116 3.90036 12.698 4.19279 12.6867 4.46599C12.6754 4.75458 12.6304 5.00083 12.465 5.29711C12.589 5.07394 12.0742 5.75886 12.2583 5.56646C12.48 5.33944 11.8262 5.8512 12.0141 5.75115C12.0667 5.72422 12.1118 5.68574 12.1644 5.65496C12.217 5.62417 12.2734 5.6011 12.326 5.57032C12.6566 5.38177 11.8225 5.76271 12.1569 5.64343C13.085 5.31636 14.0395 5.11627 15.0089 4.95466C15.302 4.90464 15.5989 4.85847 15.8958 4.81614C15.9822 4.8046 16.0686 4.79305 16.155 4.77766C16.4143 4.73918 15.644 4.84692 16.031 4.7969C16.234 4.76996 16.4406 4.74304 16.6435 4.71995C17.4402 4.6199 18.2406 4.5391 19.0409 4.46599C20.9949 4.28514 22.9527 4.16201 24.9104 4.06966C29.5699 3.85034 34.2407 3.808 38.9078 3.9042C42.9247 3.98885 46.9529 4.16585 50.9511 4.59296C51.3456 4.63529 51.7402 4.68147 52.1347 4.72764C52.3038 4.74688 52.4692 4.76996 52.6345 4.79305C52.7698 4.81229 53.0666 4.86231 52.5105 4.77381C52.6157 4.7892 52.7209 4.80459 52.8224 4.81998C53.4424 4.91233 54.0587 5.01238 54.6749 5.13551C55.1484 5.2317 55.6219 5.33945 56.0841 5.48182C56.2456 5.53184 56.4035 5.58956 56.5613 5.64728C56.9032 5.76271 56.0803 5.40101 56.3734 5.56646C56.4373 5.60109 56.5087 5.63188 56.5726 5.67036C56.6176 5.6973 56.659 5.73192 56.7041 5.755C56.8882 5.84735 56.2456 5.35099 56.4598 5.57032C56.644 5.75886 56.1367 5.07009 56.2532 5.30096C56.0878 4.9662 56.0427 4.80074 56.0315 4.46983C56.069 5.47411 56.8694 6.43993 57.9103 6.39376C58.8986 6.34758 59.8267 5.54722 59.7891 4.46983C59.6952 1.87639 56.2231 1.48392 54.3255 1.18379C50.4701 0.575833 46.5621 0.325718 42.6692 0.167957C37.694 -0.0359782 32.7076 -0.0513709 27.7287 0.10639C23.7531 0.233369 19.7624 0.441159 15.8131 0.979855C14.4754 1.1607 13.1188 1.34539 11.8149 1.71863C10.853 1.99568 9.76324 2.40354 9.22965 3.33857C8.50066 4.61605 9.2071 6.06669 10.4058 6.67849C11.364 7.16717 12.4199 7.40189 13.4645 7.59428C17.0719 8.26765 20.7695 8.51006 24.4294 8.69475C29.337 8.94101 34.2557 8.98718 39.1708 8.87944C43.3606 8.78709 47.5617 8.59855 51.7289 8.10987C53.2057 7.93672 54.6937 7.74433 56.1442 7.41342C56.9934 7.22103 57.9291 6.98248 58.6506 6.46687C59.3269 5.98589 59.7553 5.33174 59.7854 4.46983C59.823 3.4617 58.8948 2.49974 57.9065 2.54591C56.8582 2.59594 56.0653 3.39244 56.0277 4.46983L56.0352 4.46599Z" fill="#EAB54E"/>
<path d="M8.9342 4.59561V11.8983C8.9342 12.8651 9.8826 13.7877 10.9959 13.7434C12.1093 13.6991 13.0577 12.9316 13.0577 11.8983V4.59561C13.0577 3.6288 12.1093 2.70627 10.9959 2.75056C9.8826 2.79484 8.9342 3.56238 8.9342 4.59561V4.59561Z" fill="#EAB54E"/>
<path d="M56.354 4.59561V11.8983C56.354 12.8651 57.1443 13.7877 58.0721 13.7434C58.9999 13.6991 59.7902 12.9316 59.7902 11.8983V4.59561C59.7902 3.6288 58.9999 2.70627 58.0721 2.75056C57.1443 2.79484 56.354 3.56238 56.354 4.59561V4.59561Z" fill="#EAB54E"/>
<path d="M57.91 10.3168C55.9114 10.5327 53.909 10.7337 51.9028 10.9235C47.9543 11.3032 43.9983 11.6493 40.0386 11.895C36.7175 12.0997 33.4265 12.1556 30.1017 11.9769C26.1194 11.761 22.1409 11.4186 18.1699 11.0501C15.758 10.8267 13.3461 10.5029 10.9304 10.3279C10.8928 10.3279 10.8553 10.3205 10.814 10.3168C9.83341 10.2088 8.89419 11.2473 8.93552 12.1779C8.98436 13.276 9.76203 13.9236 10.814 14.039C12.8126 14.2549 14.815 14.4559 16.8212 14.6457C20.7696 15.0254 24.7256 15.3716 28.6854 15.6172C32.0064 15.822 35.2975 15.8778 38.6223 15.6991C42.6046 15.4833 46.5831 15.1408 50.5541 14.7723C52.9698 14.549 55.3854 14.3182 57.7935 14.0502C57.8311 14.0465 57.8687 14.0427 57.91 14.039C58.883 13.9348 59.8373 13.2573 59.7884 12.1779C59.7471 11.2585 58.9544 10.2051 57.91 10.3168Z" fill="#EAB54E"/>
<path d="M33.0888 50.004V87.8041C33.0888 89.5513 33.0548 91.2984 33.0888 93.0456C33.0888 93.072 33.0888 93.0947 33.0888 93.1211C33.0888 94.6003 34.3901 96.0192 35.9179 95.9513C37.4456 95.8834 38.747 94.706 38.747 93.1211V55.321C38.747 53.5738 38.7809 51.8266 38.747 50.0795C38.747 50.0531 38.747 50.0304 38.747 50.004C38.747 48.5247 37.4456 47.1059 35.9179 47.1738C34.3901 47.2417 33.0888 48.4191 33.0888 50.004Z" fill="#BA18DD"/>
<path d="M23.1453 72.9965C22.8699 72.9965 22.5908 72.9663 22.3154 72.9323L23.0661 73.0342C22.2287 72.921 21.4101 72.6946 20.6293 72.3701L21.3045 72.6569C20.8594 72.4682 20.4256 72.2455 20.0144 71.9889C19.7994 71.8569 19.5957 71.7097 19.392 71.5625C19.094 71.3474 19.9805 72.0304 19.7504 71.838C19.7013 71.7965 19.6485 71.755 19.5957 71.7135C19.4825 71.6191 19.3694 71.521 19.2638 71.4191C19.0563 71.2267 18.8601 71.0267 18.6753 70.8154C18.6451 70.7814 18.3886 70.438 18.3622 70.4455C18.3773 70.4418 18.8639 71.121 18.6112 70.7663C18.5659 70.7021 18.5207 70.6418 18.4754 70.5776C18.0756 70.004 17.7436 69.3889 17.4682 68.7437L17.7549 69.4191C17.2834 68.2946 16.9967 67.1135 16.8307 65.9059L16.9326 66.6568C16.8911 66.3285 16.8572 66.0002 16.8307 65.6682C16.7704 64.9059 16.5554 64.2229 16.0009 63.6682C15.5105 63.1776 14.7033 62.8078 14.0016 62.838C12.572 62.9021 11.0443 64.087 11.1725 65.6682C11.4668 69.3059 12.5984 73.0569 15.4162 75.555C17.0684 77.0229 19.1318 78.1022 21.3271 78.4569C21.9156 78.5512 22.5418 78.6644 23.1453 78.6569C24.624 78.638 26.0423 77.3663 25.9744 75.8267C25.9065 74.2871 24.7296 72.9776 23.1453 72.9965V72.9965Z" fill="#BA18DD"/>
<path d="M38.7922 71.5588C38.7922 71.0342 38.8299 70.5135 38.8941 69.9927L38.7922 70.7437C38.9393 69.6946 39.2147 68.6757 39.6259 67.6946L39.3392 68.3701C39.6259 67.7059 39.9691 67.0644 40.369 66.4606C40.4708 66.3059 40.5802 66.1587 40.6858 66.004C40.9046 65.6908 40.467 66.2795 40.467 66.2833C40.467 66.2418 40.6255 66.087 40.6594 66.0455C40.8933 65.7625 41.1422 65.487 41.4063 65.2267C41.6515 64.9814 41.9118 64.7437 42.1758 64.521C42.255 64.4569 42.338 64.3927 42.4135 64.3248C42.6586 64.1172 41.8665 64.721 42.1343 64.5437C42.289 64.4418 42.4323 64.3248 42.587 64.2229C43.2056 63.8078 43.862 63.4531 44.5447 63.1587L43.8695 63.4455C44.8465 63.0342 45.865 62.755 46.9174 62.6116L46.1667 62.7134C47.2079 62.5814 48.2565 62.5814 49.2976 62.7134L48.547 62.6116C49.5956 62.7587 50.6141 63.0342 51.5949 63.4455L50.9197 63.1587C51.5836 63.4455 52.2248 63.7889 52.8284 64.1889C52.983 64.2908 53.1301 64.4002 53.2848 64.5059C53.5979 64.7248 53.0094 64.2871 53.0056 64.2871C53.0471 64.2871 53.2018 64.4455 53.2433 64.4795C53.5262 64.7134 53.8016 64.9625 54.0618 65.2267C54.307 65.472 54.5447 65.7323 54.7672 65.9965C54.8314 66.0757 54.8955 66.1587 54.9634 66.2342C55.1709 66.4795 54.5673 65.687 54.7446 65.955C54.8464 66.1097 54.9634 66.2531 55.0652 66.4078C55.4802 67.0267 55.8348 67.6833 56.129 68.3663L55.8423 67.6908C56.2535 68.6682 56.5326 69.6871 56.6759 70.7399L56.5741 69.9889C56.642 70.5097 56.6759 71.0304 56.6759 71.555C56.6835 73.0342 57.9698 74.4531 59.505 74.3852C61.0403 74.3172 62.3417 73.1399 62.3341 71.555C62.3191 68.6304 61.4515 65.6342 59.7352 63.2493C57.9094 60.7135 55.5028 58.8644 52.5719 57.7738C47.0758 55.7361 40.3954 57.5285 36.6572 62.0418C34.4203 64.7437 33.1453 68.0267 33.1264 71.555C33.1189 73.0342 34.4354 74.4531 35.9555 74.3852C37.4757 74.3172 38.7771 73.1399 38.7847 71.555L38.7922 71.5588Z" fill="#BA18DD"/>
<path d="M18.9357 85.3022C18.9357 84.8644 18.9659 84.4305 19.0225 83.9965L18.9206 84.7475C19.0413 83.8644 19.2752 83.0078 19.6147 82.1852L19.328 82.8607C19.5732 82.2909 19.8636 81.7437 20.2107 81.2267C20.3012 81.0908 20.3993 80.9588 20.4936 80.8229C20.7652 80.4418 19.9881 81.4418 20.4332 80.9135C20.6181 80.6946 20.8105 80.4833 21.0141 80.2795C21.2178 80.0757 21.4291 79.8833 21.6479 79.6984C22.176 79.2531 21.1764 80.0305 21.5573 79.7588C21.6894 79.6644 21.8252 79.5663 21.961 79.4758C22.4777 79.1324 23.0247 78.8418 23.5943 78.5927L22.9191 78.8795C23.7414 78.5361 24.5977 78.3059 25.4804 78.1852L24.7297 78.2871C25.5973 78.1776 26.4687 78.1776 27.34 78.2871L26.5894 78.1852C27.4721 78.3059 28.3283 78.5399 29.1507 78.8795L28.4755 78.5927C29.0451 78.838 29.592 79.1286 30.1088 79.4758C30.2446 79.5663 30.3766 79.6644 30.5124 79.7588C30.8934 80.0305 29.8938 79.2531 30.4219 79.6984C30.6407 79.8833 30.8519 80.0757 31.0556 80.2795C31.2593 80.4833 31.4517 80.6946 31.6365 80.9135C32.0816 81.4418 31.3046 80.4418 31.5762 80.8229C31.6705 80.955 31.7685 81.0908 31.8591 81.2267C32.2023 81.7437 32.4928 82.2909 32.7418 82.8607L32.4551 82.1852C32.7983 83.0078 33.0284 83.8644 33.1491 84.7475L33.0473 83.9965C33.1001 84.4305 33.1303 84.8644 33.134 85.3022C33.1454 86.7814 34.4279 88.2003 35.9632 88.1324C37.4984 88.0644 38.8036 86.8871 38.7923 85.3022C38.7772 82.7814 38.0416 80.1814 36.5705 78.1173C34.9635 75.8569 32.8474 74.2267 30.2446 73.2606C25.4804 71.4908 19.6411 73.0493 16.3933 76.9588C14.4242 79.3323 13.2963 82.1965 13.2775 85.3022C13.2662 86.7814 14.5864 88.2003 16.1066 88.1324C17.6268 88.0644 18.9244 86.8909 18.9357 85.3022V85.3022Z" fill="#BA18DD"/>
<path d="M20.7117 49.4815H50.7617C52.2466 49.4815 53.6708 48.217 53.6027 46.7326C53.5345 45.2481 52.3526 43.9836 50.7617 43.9836H20.7117C19.2268 43.9836 17.8025 45.2481 17.8707 46.7326C17.9389 48.217 19.1207 49.4815 20.7117 49.4815Z" fill="#20AAA1"/>
<path d="M20.7241 41.9218H45.2514C46.7427 41.9218 48.1732 40.6573 48.1047 39.1729C48.0362 37.6884 46.8492 36.4239 45.2514 36.4239H20.7241C19.2327 36.4239 17.8022 37.6884 17.8707 39.1729C17.9392 40.6573 19.1262 41.9218 20.7241 41.9218Z" fill="#20AAA1"/>
<path d="M26.8127 34.3622H39.8502C41.2911 34.3622 42.6731 32.9396 42.6069 31.2696C42.5408 29.5996 41.394 28.177 39.8502 28.177H26.8127C25.3718 28.177 23.9898 29.5996 24.0559 31.2696C24.1221 32.9396 25.2689 34.3622 26.8127 34.3622Z" fill="#20AAA1"/>
</svg>
