<svg width="77" height="91" viewBox="0 0 77 91" fill="none" xmlns="http://www.w3.org/2000/svg">
<path d="M3.14811 47.169C3.14811 49.9799 2.92325 50.8954 2.34502 51.57C1.70148 52.1495 0.86601 52.4699 0 52.4694L0.224866 54.0756C1.56747 54.0938 2.87023 53.6195 3.88696 52.7425C4.43402 52.0754 4.84111 51.3049 5.08395 50.477C5.3268 49.6492 5.4004 48.7809 5.3004 47.924V37.291H3.14811V47.1048V47.169Z" fill="#4E4E4E"/>
<path d="M19.1993 45.9022C19.1993 47.1068 19.1993 48.1829 19.2956 49.1145H17.3843L17.2558 47.2032C16.856 47.8795 16.2843 48.4378 15.5987 48.8215C14.9132 49.2052 14.1383 49.4005 13.3528 49.3876C11.4896 49.3876 9.27307 48.3757 9.27307 44.2478V37.3894H11.4254V43.8141C11.4254 46.0467 12.116 47.5405 14.0595 47.5405C14.4593 47.5448 14.856 47.4692 15.2263 47.3181C15.5965 47.1671 15.9329 46.9437 16.2156 46.6609C16.4984 46.3782 16.7218 46.0418 16.8729 45.6716C17.0239 45.3013 17.0995 44.9046 17.0952 44.5048V37.3091H19.2475V45.8379L19.1993 45.9022Z" fill="#4E4E4E"/>
<path d="M23.279 41.2104C23.279 39.7167 23.279 38.496 23.1826 37.3877H25.11L25.2064 39.3954C25.6358 38.6701 26.254 38.0748 26.9951 37.6731C27.7362 37.2715 28.5724 37.0785 29.4146 37.1146C32.2736 37.1146 34.4259 39.5079 34.4259 43.0736C34.4259 47.2818 31.8399 49.3698 29.0452 49.3698C28.3299 49.4017 27.6184 49.2485 26.9797 48.9249C26.3409 48.6013 25.7965 48.1183 25.3991 47.5227V53.9474H23.279V41.2586V41.2104ZM25.3991 44.3425C25.405 44.6339 25.4372 44.9242 25.4955 45.2098C25.6778 45.923 26.0926 46.555 26.6744 47.0059C27.2562 47.4569 27.9718 47.7009 28.7079 47.6994C30.9726 47.6994 32.3057 45.8523 32.3057 43.17C32.3057 40.8249 31.0529 38.8172 28.7882 38.8172C27.892 38.8906 27.0533 39.2884 26.4294 39.9359C25.8054 40.5835 25.4392 41.4364 25.3991 42.3347V44.3425Z" fill="#4E4E4E"/>
<path d="M38.2607 37.3769L40.8467 44.2995C41.1197 45.0705 41.4088 46.002 41.6016 46.6927C41.8264 45.986 42.0673 45.0865 42.3565 44.2513L44.7015 37.3769H46.9662L43.7538 45.729C42.1477 49.7445 41.1679 51.8164 39.6902 53.0693C38.9459 53.7491 38.0385 54.2249 37.0561 54.4506L36.526 52.6516C37.213 52.4259 37.8507 52.0716 38.4053 51.6076C39.1888 50.9691 39.8107 50.1546 40.2202 49.2305C40.3079 49.0704 40.3676 48.8966 40.3969 48.7165C40.3787 48.5227 40.3299 48.3329 40.2524 48.1543L35.8835 37.3447H38.2286L38.2607 37.3769Z" fill="#4E4E4E"/>
<path d="M52.6798 34.0074V37.3804H55.7637V38.9866H52.6798V45.315C52.6798 46.7605 53.0975 47.5957 54.286 47.5957C54.7082 47.6027 55.1294 47.5541 55.5389 47.4512L55.6352 49.0574C55.0212 49.2701 54.3733 49.3681 53.7239 49.3465C53.2938 49.3734 52.8629 49.307 52.4609 49.1517C52.0589 48.9964 51.6953 48.7561 51.3949 48.447C50.7407 47.572 50.4422 46.4815 50.5597 45.3953V38.9706H48.7286V37.3644H50.5918V34.5054L52.6798 34.0074Z" fill="#4E4E4E"/>
<path d="M59.7284 43.6214C59.6849 44.1661 59.7601 44.7138 59.9489 45.2266C60.1377 45.7394 60.4355 46.2051 60.822 46.5915C61.2084 46.978 61.6741 47.2759 62.1869 47.4646C62.6997 47.6534 63.2474 47.7286 63.7921 47.6851C64.8939 47.7097 65.9885 47.5017 67.0045 47.0747L67.3739 48.6809C66.1272 49.1944 64.7866 49.4407 63.4387 49.4037C62.653 49.4575 61.8649 49.3407 61.1285 49.0613C60.3922 48.7819 59.7249 48.3465 59.1726 47.7851C58.6203 47.2236 58.196 46.5493 57.9287 45.8084C57.6615 45.0676 57.5577 44.2777 57.6244 43.4929C57.6244 39.9593 59.7284 37.1646 63.1657 37.1646C67.0205 37.1646 67.9842 40.5375 67.9842 42.6898C68.0048 43.0214 68.0048 43.354 67.9842 43.6857H59.6803L59.7284 43.6214ZM66.0247 42.0152C66.0867 41.5858 66.0559 41.1481 65.9344 40.7316C65.8129 40.3151 65.6036 39.9294 65.3205 39.6006C65.0374 39.2719 64.6871 39.0076 64.2932 38.8257C63.8994 38.6437 63.471 38.5483 63.0372 38.5459C62.1547 38.6097 61.3279 39.0009 60.7188 39.6427C60.1097 40.2845 59.7622 41.1306 59.7445 42.0152H66.0247Z" fill="#4E4E4E"/>
<path d="M71.2498 41.0293C71.2498 39.648 71.2498 38.4594 71.1534 37.3672H73.0809V39.6641H73.1772C73.3795 38.9552 73.7975 38.3268 74.3732 37.8663C74.9488 37.4058 75.6536 37.1359 76.3896 37.0942C76.5922 37.0676 76.7974 37.0676 76.9999 37.0942V39.1019C76.7545 39.0735 76.5066 39.0735 76.2611 39.1019C75.532 39.1301 74.8381 39.4228 74.309 39.9253C73.7799 40.4278 73.4518 41.1057 73.386 41.8324C73.326 42.1611 73.2937 42.4942 73.2897 42.8282V49.0763H71.1695V41.0454L71.2498 41.0293Z" fill="#4E4E4E"/>
<path d="M70.3067 5.11579C70.3726 6.19484 70.1159 7.26909 69.5692 8.2017C69.0224 9.13433 68.2105 9.88308 67.2367 10.3526C66.2629 10.8221 65.1714 10.9912 64.1012 10.8382C63.0311 10.6852 62.0307 10.2171 61.2275 9.4935C60.4243 8.76995 59.8546 7.82367 59.5911 6.77522C59.3276 5.72676 59.3822 4.6236 59.7478 3.60626C60.1135 2.58893 60.7737 1.70347 61.6444 1.06268C62.5151 0.421894 63.5568 0.0547879 64.6368 0.00812825C65.345 -0.0308378 66.0538 0.0705662 66.7226 0.306509C67.3914 0.542451 68.0069 0.908278 68.5339 1.38295C69.0608 1.85763 69.4887 2.43178 69.7929 3.0724C70.0971 3.71301 70.2717 4.40746 70.3067 5.11579Z" fill="#767677"/>
<path d="M38.5465 68.0189C24.091 68.0189 11.3861 62.8309 4.81677 55.1694C7.36567 62.0618 11.9649 68.0079 17.9953 72.2074C24.0257 76.4069 31.1981 78.6581 38.5465 78.6581C45.8952 78.6581 53.0674 76.4069 59.0979 72.2074C65.1283 68.0079 69.7275 62.0618 72.2765 55.1694C65.7233 62.8309 53.0665 68.0189 38.5465 68.0189Z" fill="#F37726"/>
<path d="M38.5465 18.1983C53.0022 18.1983 65.7072 23.3863 72.2765 31.0477C69.7275 24.1554 65.1283 18.2093 59.0979 14.0098C53.0674 9.81032 45.8952 7.55908 38.5465 7.55908C31.1981 7.55908 24.0257 9.81032 17.9953 14.0098C11.9649 18.2093 7.36567 24.1554 4.81677 31.0477C11.3861 23.3702 24.0268 18.1983 38.5465 18.1983Z" fill="#F37726"/>
<path d="M18.6467 82.9283C18.7315 84.2875 18.4098 85.6411 17.7225 86.8167C17.0352 87.9923 16.0135 88.9367 14.7876 89.5296C13.5616 90.1225 12.187 90.337 10.8387 90.1458C9.49039 89.9546 8.22955 89.3663 7.21678 88.456C6.20401 87.5456 5.48518 86.3544 5.15186 85.034C4.81854 83.7137 4.88583 82.324 5.34515 81.042C5.80447 79.76 6.63503 78.6438 7.731 77.8356C8.82699 77.0273 10.1388 76.5636 11.4992 76.5036C12.3904 76.4559 13.2823 76.5843 14.1239 76.8814C14.9655 77.1785 15.7403 77.6385 16.404 78.2352C17.0678 78.8318 17.6075 79.5534 17.9923 80.3586C18.3771 81.1639 18.5995 82.0371 18.6467 82.9283Z" fill="#9E9E9E"/>
<path d="M6.45973 16.4523C5.68081 16.4738 4.91292 16.2645 4.25262 15.8508C3.59233 15.4371 3.06911 14.8373 2.74876 14.127C2.42842 13.4167 2.32525 12.6275 2.45224 11.8587C2.57923 11.0899 2.9307 10.3758 3.46245 9.80622C3.9942 9.23664 4.6825 8.83701 5.44078 8.65758C6.19904 8.47814 6.99344 8.52692 7.72408 8.79778C8.4547 9.06864 9.08893 9.54948 9.547 10.1798C10.0051 10.8102 10.2665 11.5619 10.2985 12.3405C10.3289 13.3932 9.9429 14.4155 9.22419 15.1853C8.50547 15.9552 7.51208 16.4105 6.45973 16.4523Z" fill="#616262"/>
</svg>
