<svg width="83" height="86" viewBox="0 0 83 86" fill="none" xmlns="http://www.w3.org/2000/svg">
<path d="M74.9257 29.3931C74.9558 29.4533 74.9792 29.5168 75.006 29.577L74.7517 28.9783C75.3639 30.4401 75.7018 32.0257 75.9159 33.588L75.8256 32.9223C76.1434 35.3275 76.1032 37.7662 75.7821 40.168L75.8724 39.5023C75.7954 40.0677 75.7018 40.633 75.5947 41.1917C75.4676 41.8407 75.21 42.5498 75.21 43.2122L75.3004 42.5465C74.8521 44.3931 74.2466 46.1961 73.5107 47.949L73.7649 47.3502C72.5071 50.3275 70.8913 53.1408 69.0347 55.7802C68.7972 56.1181 68.553 56.456 68.3088 56.7871C68.1717 56.9745 68.0345 57.1584 67.894 57.3424C67.8238 57.4361 67.7535 57.5298 67.6799 57.6201C67.4223 57.958 68.1048 57.0782 67.71 57.5799C67.0778 58.3861 66.4255 59.1756 65.7531 59.9517C64.3012 61.6243 62.7624 63.22 61.1567 64.7488C59.0961 66.7158 56.9284 68.5657 54.6871 70.3253C54.2154 70.6932 53.9511 71.5329 53.9511 72.0982C53.9511 72.7137 54.2254 73.4497 54.6871 73.8712C55.1487 74.2927 55.7943 74.6372 56.46 74.6071C57.1692 74.577 57.681 74.3061 58.233 73.8712C62.6855 70.3754 66.8704 66.5017 70.4632 62.1161C73.2062 58.7675 75.665 55.168 77.4948 51.2374C77.9765 50.2037 78.4248 49.15 78.8296 48.0828C79.0905 47.3971 79.3313 46.7079 79.5521 46.0054C79.6726 45.6241 79.783 45.2394 79.89 44.8514C80.0338 44.3295 80.2279 43.7508 80.2279 43.2088L80.1375 43.8745C80.8802 40.7534 81.2381 37.4919 80.9906 34.2871C80.8367 32.3034 80.5256 30.2896 79.88 28.3995C79.7027 27.8777 79.4919 27.3592 79.2611 26.8574C79.0102 26.3188 78.3144 25.8571 77.7624 25.7033C77.1603 25.5394 76.3608 25.6129 75.8289 25.9575C74.6012 26.7503 74.3336 28.1152 74.929 29.3897L74.9257 29.3931Z" fill="#20AAA1"/>
<path d="M75.7152 39.5692C70.597 39.0307 65.3617 39.6763 60.7286 41.9979C56.6842 44.0251 53.4126 47.3803 51.0642 51.2106C48.9601 54.6428 47.535 58.5099 46.595 62.4138C45.7587 65.8828 45.277 69.4522 45.0529 73.0115C44.9257 75.0521 44.8822 77.0993 44.9659 79.1433C44.9726 79.3239 44.9792 79.5046 44.9926 79.6852C45.0462 80.3476 45.1666 80.9731 45.5212 81.5485C46.1902 82.6424 47.4949 83.385 48.7895 83.2746C51.5058 83.0472 54.2322 82.6123 56.895 82.0335C61.2672 81.0835 65.616 79.5982 69.473 77.3034C72.9253 75.2461 75.936 72.5164 78.1639 69.1611C81.0341 64.8458 82.3153 59.6071 82.2886 54.4622C82.2685 50.8192 81.663 47.1127 80.529 43.6504C80.4085 43.2791 80.2781 42.9078 80.1376 42.5431C79.9001 41.9176 79.5823 41.3924 78.9835 41.0445C78.4449 40.73 77.6521 40.5962 77.0499 40.7902C75.8557 41.175 74.7986 42.5632 75.297 43.8779C76.1735 46.1761 76.7355 48.608 77.0667 51.0434L76.9763 50.3777C77.3276 53.0137 77.3744 55.6865 77.0198 58.3259L77.1102 57.6602C76.8258 59.7142 76.2973 61.7247 75.5011 63.6381L75.7553 63.0394C75.1867 64.3808 74.4908 65.6653 73.6679 66.8696C73.5174 67.0904 73.3602 67.3112 73.1996 67.5286C73.0725 67.6993 72.7078 68.1509 73.2765 67.4383C73.1762 67.5621 73.0792 67.6892 72.9788 67.8097C72.6376 68.2312 72.2763 68.6393 71.905 69.034C71.1222 69.8636 70.2725 70.6364 69.3793 71.3422C68.9077 71.7169 69.8443 70.9943 69.4529 71.2853C69.3325 71.3756 69.2121 71.466 69.0883 71.5563C68.8407 71.7369 68.5932 71.9109 68.339 72.0815C67.8539 72.4127 67.3555 72.7271 66.8503 73.0249C65.5992 73.7641 64.2912 74.4064 62.9565 74.9751L63.5553 74.7209C59.434 76.4571 55.0417 77.4573 50.6193 78.0561L51.285 77.9658C50.8133 78.0293 50.3417 78.0862 49.87 78.143C49.3983 78.1999 48.9333 78.2902 48.475 78.2635L49.1407 78.3538C49.0571 78.3438 48.9735 78.3237 48.8932 78.2936L49.492 78.5478C49.3916 78.5043 49.0738 78.2936 49.4184 78.5478C49.5355 78.6114 49.6258 78.7017 49.696 78.8154C49.8332 79.0095 49.8532 79.0228 49.7596 78.8556L50.0138 79.4544C49.9804 79.3774 49.9569 79.2972 49.9402 79.2135L50.0305 79.8792C49.9268 79.0931 49.9503 78.2802 49.9436 77.4907C49.9302 75.788 49.9871 74.0819 50.1108 72.3826C50.2012 71.1181 50.3316 69.8603 50.4989 68.6025L50.4086 69.2682C50.9572 65.197 51.9072 61.1593 53.4995 57.3625L53.2453 57.9613C54.1151 55.9073 55.1722 53.9303 56.4735 52.1172C56.5571 52.0034 56.6374 51.8897 56.7243 51.776C56.7544 51.7325 56.7879 51.6923 56.818 51.6488C57.0321 51.3578 56.6139 51.9064 56.6173 51.9064C56.711 51.8596 56.8147 51.6555 56.8782 51.5753C56.9786 51.4515 57.0789 51.3277 57.1793 51.2073C57.5305 50.7858 57.8985 50.3777 58.2799 49.9863C58.698 49.5547 59.1329 49.1399 59.5845 48.7485C59.8287 48.5344 60.0796 48.3304 60.3305 48.1297C60.6449 47.8754 59.8086 48.5244 60.2536 48.1899C60.3974 48.0828 60.5446 47.9758 60.6918 47.8721C61.866 47.0391 63.1305 46.3433 64.4518 45.7813L63.853 46.0356C65.6461 45.2862 67.5261 44.8012 69.4496 44.5402L68.7839 44.6306C71.082 44.3295 73.407 44.3496 75.7085 44.5938C76.3073 44.6573 77.0734 44.2693 77.4815 43.8578C77.9163 43.4229 78.2442 42.7071 78.2174 42.0849C78.1907 41.4626 77.9766 40.7635 77.4815 40.3119C76.963 39.8369 76.4043 39.6495 75.7085 39.5759L75.7152 39.5692Z" fill="#20AAA1"/>
<path d="M38.8508 80.9732C38.7739 80.9665 38.6969 80.9564 38.6166 80.9464L39.2824 81.0367C37.6967 80.8193 36.1479 80.3041 34.676 79.6852L35.2748 79.9395C33.4081 79.1466 31.6419 78.1297 29.9994 76.9388C29.8087 76.8017 29.5912 76.5809 29.3805 76.4772L29.6381 76.6779C29.5544 76.611 29.4708 76.5474 29.3872 76.4805C29.2601 76.3802 29.1363 76.2765 29.0092 76.1728C28.5341 75.7814 28.0725 75.3732 27.6242 74.9551C27.5105 74.848 27.4001 74.7343 27.283 74.6306L26.7745 74.2392L27.1793 74.5336C27.1124 74.5537 26.6341 73.9917 26.5671 73.9248C26.1423 73.4899 25.7275 73.0416 25.3261 72.5833C25.0083 72.222 24.7005 71.8541 24.3994 71.4827C24.2991 71.359 24.2021 71.2352 24.1051 71.1114C24.0649 71.0579 24.0214 71.0077 23.9813 70.9542C23.7003 70.5996 24.3827 71.4828 24.1519 71.175C23.7638 70.6632 23.3858 70.1446 23.0212 69.6161C22.205 68.4319 21.4489 67.2042 20.7531 65.943C19.8767 64.3574 19.0973 62.7249 18.3914 61.0557L18.6457 61.6545C16.7623 57.1652 15.451 52.4518 14.5411 47.6748C14.2333 46.0557 13.9724 44.4265 13.7482 42.7941C13.668 42.2187 13.0692 41.5731 12.5941 41.2954C12.0555 40.981 11.2627 40.8472 10.6606 41.0412C10.0585 41.2352 9.46635 41.6132 9.16193 42.1953C8.82406 42.8342 8.81068 43.4196 8.90769 44.1288C10.0083 52.1808 12.089 60.1893 15.8591 67.4283C17.2172 70.0376 18.8263 72.483 20.6561 74.7845C21.275 75.5639 21.9273 76.3199 22.6097 77.0459C23.0446 77.5075 23.4829 77.9892 23.988 78.3773C24.8176 79.0195 23.5096 77.929 23.9646 78.4007C24.0716 78.5111 24.192 78.6114 24.3058 78.7151C24.5433 78.9326 24.7841 79.1467 25.0317 79.3574C26.8548 80.923 28.8319 82.3347 30.9695 83.4419C33.4081 84.7064 36.0843 85.7368 38.8441 85.9943C39.4496 86.0512 40.2056 85.6732 40.6171 85.2584C41.052 84.8235 41.3798 84.1076 41.353 83.4854C41.3263 82.8632 41.1122 82.1641 40.6171 81.7125C40.122 81.2608 39.5399 81.0434 38.8441 80.9765L38.8508 80.9732Z" fill="#EAB54E"/>
<path d="M29.6715 76.5106C33.0368 71.9343 35.3049 66.4114 35.1845 60.6643C35.0908 56.0713 33.5453 51.6121 31.1401 47.7283C29.0593 44.3663 26.3932 41.359 23.4628 38.7129C20.9338 36.4314 18.194 34.3641 15.3372 32.5142C13.8486 31.5508 12.3265 30.6341 10.7509 29.8213C10.0919 29.48 9.39609 29.2258 8.63673 29.2492C7.3254 29.2927 6.07429 30.0855 5.51898 31.2798C5.12759 32.1194 4.7663 32.9758 4.40836 33.8289C3.32451 36.4047 2.37781 39.0407 1.66862 41.747C0.397433 46.5976 -0.107694 51.6087 0.651673 56.5797C1.34079 61.0858 3.33789 65.274 6.275 68.743C8.87759 71.8172 12.2998 74.2292 15.936 75.9285C18.4951 77.1228 21.1746 78.0762 23.9445 78.6482C24.2456 78.7118 24.5466 78.7686 24.851 78.8188C25.5368 78.9325 26.1657 78.9292 26.7846 78.5646C27.3064 78.2602 27.8015 77.6647 27.9387 77.0659C28.2163 75.8549 27.5707 74.2124 26.1858 73.9783C23.7304 73.5668 21.3218 72.8141 19.0304 71.854L19.6291 72.1083C17.5317 71.2218 15.5212 70.1312 13.6746 68.7998C13.5475 68.7062 13.4171 68.6125 13.2933 68.5189C13.2364 68.4754 13.1795 68.4319 13.1227 68.3917C12.8919 68.2211 13.6044 68.7697 13.3769 68.5891C13.1093 68.375 12.845 68.1643 12.5841 67.9435C12.1091 67.542 11.6474 67.1205 11.2059 66.6823C10.7242 66.2073 10.2625 65.7089 9.82428 65.1937C9.62692 64.9595 9.43624 64.7153 9.24221 64.4778C9.78414 65.1469 9.36933 64.6384 9.24891 64.4745C9.1452 64.3306 9.0415 64.1901 8.94114 64.0429C8.07139 62.7952 7.33878 61.4537 6.74668 60.0521L7.00091 60.6509C6.21813 58.7742 5.70297 56.8072 5.42866 54.7934L5.51898 55.4591C5.17108 52.8164 5.23463 50.1435 5.58253 47.5041L5.49222 48.1698C6.0977 43.6772 7.49266 39.3251 9.24891 35.1569L8.99467 35.7557C9.19538 35.2807 9.40278 34.8057 9.61353 34.334C9.71055 34.1199 9.87112 33.879 9.92129 33.6549L9.97148 33.5579L9.73396 33.8589C9.37268 34.2403 9.37268 34.0931 9.65368 33.9727L9.05488 34.2269C9.13517 34.2002 9.2188 34.1801 9.30243 34.1701L8.63673 34.2604C8.72036 34.2503 8.80399 34.2537 8.88762 34.2604L8.22192 34.1701C8.30555 34.1801 8.38918 34.2002 8.46612 34.2269L7.86732 33.9727C8.55979 34.2637 9.21545 34.6719 9.86443 35.0432C11.2861 35.8561 12.6744 36.7292 14.0292 37.6491C14.909 38.2479 15.7721 38.8668 16.6184 39.5057C16.7389 39.596 16.856 39.6863 16.973 39.7767C17.2473 39.9874 16.6519 39.5258 16.6787 39.5492C16.7389 39.596 16.7991 39.6428 16.8593 39.6897C17.0901 39.8703 17.3176 40.051 17.5451 40.2316C18.0134 40.6063 18.475 40.991 18.93 41.3824C20.8635 43.045 22.6867 44.8413 24.3225 46.7983C24.5667 47.0893 24.8076 47.3871 25.0417 47.6848C25.0852 47.7383 25.1254 47.7952 25.1688 47.8487C24.6503 47.1964 24.9146 47.5175 25.0317 47.6714C25.1588 47.8387 25.2826 48.0059 25.4064 48.1732C25.8379 48.7619 26.2527 49.3674 26.6407 49.9863C27.4436 51.2541 28.1528 52.5822 28.7415 53.9638L28.4873 53.365C29.2534 55.1781 29.7986 57.0748 30.0729 59.0251L29.9826 58.3594C30.2235 60.1558 30.2235 61.9655 29.9826 63.7586L30.0729 63.0929C29.8053 64.9896 29.2768 66.8295 28.5408 68.5958L28.7951 67.997C27.8919 70.1246 26.7043 72.1116 25.3361 73.9716C24.9748 74.4633 24.928 75.3431 25.0819 75.9051C25.2357 76.4671 25.6907 77.1194 26.236 77.4038C26.818 77.7115 27.5239 77.8654 28.1695 77.658C28.8151 77.4506 29.26 77.0592 29.6682 76.5039L29.6715 76.5106Z" fill="#EAB54E"/>
<path d="M10.0851 24.5491C10.2089 24.3484 10.3494 24.1577 10.4899 23.967C10.8044 23.5455 10.0651 24.5056 10.3159 24.1911C10.4029 24.0807 10.4932 23.9703 10.5836 23.8633C10.7977 23.6057 11.0184 23.3582 11.2426 23.114C11.8447 22.465 12.4903 21.8562 13.1627 21.2841C13.3568 21.1202 13.5541 20.9563 13.7548 20.7991C13.795 20.7656 13.8385 20.7355 13.8786 20.7021C14.1027 20.5214 13.3936 21.07 13.6244 20.8961C13.7582 20.7957 13.8887 20.6954 14.0225 20.5984C14.5008 20.2471 14.9892 19.9126 15.4877 19.5948C16.8525 18.7284 18.291 17.9857 19.7796 17.3535L19.1808 17.6077C19.5019 17.4739 19.8231 17.3435 20.1476 17.2197C20.5724 17.0558 21.1077 16.9387 21.479 16.6945L20.8802 16.9487C23.2519 16.1124 25.7107 15.5504 28.2029 15.2159L27.5372 15.3062C32.0164 14.7141 36.5659 14.8479 41.0385 15.4467L40.3728 15.3564C45.4776 16.0488 50.4821 17.3435 55.3527 19.0027C56.5972 19.4242 58.1493 18.5176 58.4404 17.2498C58.7582 15.8582 58.0189 14.6171 56.6875 14.1621C51.1411 12.2754 45.4442 10.9005 39.6168 10.2516C35.2713 9.76651 30.9292 9.80666 26.6039 10.4121C25.6572 10.546 24.7171 10.7099 23.7838 10.9139C23.068 11.0678 22.3554 11.2451 21.6496 11.4425C21.2649 11.5529 20.8802 11.6666 20.4988 11.7904C20.0037 11.9476 19.3748 12.0848 18.9466 12.3657L19.5454 12.1115C16.5147 13.1954 13.611 14.6405 11.0486 16.5975C9.46292 17.8118 7.95756 19.1265 6.71983 20.7054C6.38531 21.1302 6.0374 21.5584 5.74971 22.0201C5.05391 23.1374 5.4754 24.8334 6.64958 25.4523C7.82375 26.0711 9.33914 25.7433 10.0818 24.5524L10.0851 24.5491Z" fill="#BA18DD"/>
<path d="M18.1973 18.0895C20.3684 22.3413 23.4292 26.1582 27.4435 28.7942C31.247 31.2965 35.8133 32.4606 40.3394 32.5041C44.8655 32.5476 49.1841 31.5908 53.3255 30.1089C56.915 28.8243 60.3873 27.1818 63.679 25.2583C65.3282 24.2982 66.954 23.2746 68.4895 22.1406C68.747 21.9499 69.018 21.7692 69.2388 21.5418C70.1386 20.6252 70.5033 19.2068 70.1186 17.9758C69.8209 17.0224 69.0949 16.2931 68.4694 15.5404C68.0144 14.9918 67.5494 14.4499 67.0744 13.9146C65.3282 11.9376 63.4649 10.0576 61.4578 8.34486C57.8215 5.24383 53.7504 2.63455 49.1741 1.16934C44.9457 -0.182129 40.4029 -0.362766 36.0775 0.630766C31.7522 1.6243 28.039 3.72843 24.6536 6.38454C22.5561 8.03039 20.636 9.9305 18.9868 12.0246C18.669 12.4294 18.3512 12.8375 18.0468 13.2523C17.6855 13.7474 17.6387 14.6205 17.7925 15.1858C17.9464 15.7512 18.4014 16.4002 18.9466 16.6845C19.5287 16.9923 20.2345 17.1462 20.8802 16.9387C21.5258 16.7313 21.9741 16.3399 22.3788 15.7846C22.5595 15.5371 23.1248 14.8212 22.4123 15.7244C22.6063 15.4769 22.8037 15.2293 23.0044 14.9885C23.5631 14.3161 24.1451 13.6671 24.7539 13.0415C25.5233 12.2454 26.3296 11.4894 27.1725 10.7701C27.4134 10.5661 27.6543 10.3654 27.8985 10.168C27.9988 10.0877 28.0992 10.0074 28.1995 9.92714C28.5274 9.66622 27.6643 10.3353 28.0022 10.081C28.0825 10.0208 28.1594 9.96059 28.2397 9.90373C28.7682 9.50564 29.3101 9.12764 29.8655 8.76301C31.2203 7.87653 32.6453 7.10712 34.134 6.47487L33.5352 6.72911C35.4319 5.93294 37.4123 5.37429 39.4529 5.09664L38.7872 5.18696C40.694 4.93942 42.6175 4.93942 44.5242 5.19031L43.8585 5.09998C45.9828 5.39102 48.0434 5.98312 50.0171 6.80939L49.4183 6.55515C51.7834 7.55872 53.9979 8.88009 56.0653 10.4055C56.2058 10.5092 56.3463 10.6129 56.4868 10.72C56.5537 10.7701 56.6373 10.8237 56.6975 10.8805C56.6808 10.8671 56.189 10.4824 56.5035 10.7333C56.7845 10.9541 57.0655 11.1783 57.3432 11.4057C57.8951 11.8607 58.4337 12.3257 58.9622 12.8074C60.0996 13.8344 61.1902 14.9149 62.2406 16.0355C62.8762 16.7146 63.495 17.4071 64.1039 18.1096C64.3982 18.4541 64.6926 18.7987 64.9803 19.1466C65.1342 19.3339 65.2914 19.5213 65.4453 19.7119C65.5122 19.7922 65.5925 19.8792 65.6527 19.9662L65.4286 19.6751C65.4754 19.7487 65.5122 19.8257 65.5423 19.906L65.2881 19.3072C65.3182 19.3874 65.3349 19.4711 65.3449 19.5547L65.2546 18.889C65.2646 18.976 65.2646 19.063 65.2546 19.1466L65.3449 18.4809C65.3349 18.5645 65.3148 18.6482 65.2847 18.7284L65.539 18.1296C65.4219 18.3973 65.2412 18.4341 65.656 18.0393C65.6092 18.0828 66.1311 17.6847 66.0541 17.7382C66.0407 17.7483 66.024 17.7583 66.0106 17.7717C65.9638 17.8052 65.9203 17.8386 65.8735 17.8721C65.7229 17.9825 65.5758 18.0895 65.4219 18.1965C64.8967 18.5679 64.3614 18.9292 63.8195 19.2804C62.0432 20.4379 60.21 21.505 58.3267 22.4784C56.9585 23.1876 55.5668 23.8433 54.1518 24.4454L54.7506 24.1912C51.2716 25.6598 47.6353 26.7904 43.8886 27.3023L44.5543 27.2119C42.1491 27.5331 39.7138 27.5866 37.3052 27.2688L37.9709 27.3591C36.1143 27.1049 34.2979 26.6299 32.5684 25.9073L33.1672 26.1615C32.2473 25.7702 31.3541 25.3152 30.5011 24.7933C30.0796 24.5358 29.6714 24.2614 29.27 23.9738C29.163 23.8968 29.0526 23.8165 28.9489 23.7363C28.902 23.7028 28.8585 23.666 28.8117 23.6325C28.6043 23.4753 29.1328 23.8868 29.0927 23.85C28.902 23.666 28.6712 23.5121 28.4672 23.3382C27.671 22.6624 26.9283 21.9298 26.2325 21.1504C25.8813 20.7556 25.5468 20.3475 25.2156 19.9327C25.055 19.732 25.433 20.2304 25.4197 20.197C25.3929 20.1368 25.3126 20.0565 25.2691 19.9996C25.1955 19.8993 25.1186 19.7989 25.045 19.6986C24.871 19.461 24.7004 19.2168 24.5365 18.9726C23.7939 17.8787 23.1315 16.7313 22.5294 15.5538C21.9272 14.3763 20.1911 13.9481 19.0972 14.654C17.9029 15.4234 17.5584 16.835 18.1973 18.0862V18.0895Z" fill="#BA18DD"/>
</svg>
