<svg width="53" height="86" viewBox="0 0 53 86" fill="none" xmlns="http://www.w3.org/2000/svg">
<path fill-rule="evenodd" clip-rule="evenodd" d="M52.9953 39.913L26.4827 26.6268V53.6275L52.9953 39.913Z" fill="#0052FF"/>
<path fill-rule="evenodd" clip-rule="evenodd" d="M29.859 51.8798L26.4827 31.811V53.6277L29.859 51.8798Z" fill="#003EBF"/>
<path fill-rule="evenodd" clip-rule="evenodd" d="M49.5941 38.195L26.4827 26.6268V29.5749L49.5941 38.195Z" fill="#002980"/>
<path fill-rule="evenodd" clip-rule="evenodd" d="M1.59355 85.1449L25.9698 73.3228C26.3035 73.1186 26.4927 73.0688 26.5027 72.4812C26.5027 72.4264 26.5027 26.6268 26.5027 26.6268C16.1944 31.776 1.70808 39.0067 0.453165 39.669C0.0547782 39.8931 0 40.0774 0 40.3662V83.9597C0 84.9457 0.0547783 85.9218 1.59355 85.1449Z" fill="url(#paint0_linear_4_304)"/>
<path fill-rule="evenodd" clip-rule="evenodd" d="M52.9952 13.9333V39.9032C52.9952 39.9032 3.53051 15.1384 1.81745 14.2719C0.677062 13.6744 0.677062 13.1116 1.81745 12.4692C2.86819 11.8816 22.9419 1.87712 26.0195 0.333371C26.1487 0.250815 26.2978 0.204489 26.4511 0.199234C26.6044 0.193978 26.7563 0.229984 26.8909 0.303492L52.4973 13.1465C52.6583 13.2047 52.795 13.3155 52.8853 13.461C52.9757 13.6064 53.0144 13.7781 52.9952 13.9482V13.9333Z" fill="url(#paint1_linear_4_304)"/>
<defs>
<linearGradient id="paint0_linear_4_304" x1="3.4092" y1="37.9401" x2="44.5123" y2="53.3789" gradientUnits="userSpaceOnUse">
<stop stop-color="#22D7FF"/>
<stop offset="1" stop-color="#0052FF"/>
</linearGradient>
<linearGradient id="paint1_linear_4_304" x1="17.2948" y1="5.78405" x2="39.8357" y2="39.5473" gradientUnits="userSpaceOnUse">
<stop stop-color="#22D7FF"/>
<stop offset="1" stop-color="#0052FF"/>
</linearGradient>
</defs>
</svg>
