<svg width="96" height="117" viewBox="0 0 96 117" fill="none" xmlns="http://www.w3.org/2000/svg">
<path d="M72.8959 21.6594C78.9318 21.6886 83.8381 16.9366 83.8881 11.0174C83.9381 4.97733 79.1194 0.0377316 73.146 0.000215732C67.1143 -0.0373002 62.1455 4.82309 62.1414 10.7673C62.1372 16.749 66.9559 21.6302 72.8959 21.6594Z" fill="#EAB54E"/>
<path d="M14.8255 104.128C17.6642 102.323 20.4987 100.514 23.3375 98.7087C27.8644 95.8242 32.3913 92.9438 36.9182 90.0592C37.9645 89.3923 39.0108 88.7253 40.057 88.0626C41.4368 87.183 42.1162 85.2405 41.1783 83.7858C40.2905 82.406 38.3772 81.7224 36.9015 82.6644C34.0628 84.4694 31.2283 86.2785 28.3896 88.0834C23.8627 90.968 19.3358 93.8483 14.8088 96.7329C13.7626 97.3999 12.7163 98.0668 11.67 98.7296C10.2903 99.6091 9.6108 101.552 10.5487 103.006C11.4366 104.386 13.3499 105.07 14.8255 104.128Z" fill="#BA18DD"/>
<path d="M30.4654 111.843C32.0244 109.18 33.5876 106.516 35.1466 103.857C37.6226 99.6299 40.0987 95.4073 42.5747 91.1805C43.1416 90.2093 43.7127 89.2422 44.2796 88.271C45.1091 86.8579 44.6506 84.782 43.1583 83.9941C41.666 83.2063 39.7652 83.6065 38.8815 85.1155C37.3225 87.7791 35.7593 90.4427 34.2003 93.1022C31.7243 97.329 29.2482 101.552 26.7722 105.778C26.2053 106.75 25.6342 107.717 25.0673 108.688C24.2378 110.101 24.6963 112.177 26.1886 112.965C27.6809 113.753 29.5817 113.352 30.4654 111.843Z" fill="#BA18DD"/>
<path d="M46.9682 113.269V86.6911C46.9682 85.0571 45.5301 83.4898 43.8419 83.5648C42.1537 83.6398 40.7156 84.9404 40.7156 86.6911V113.269C40.7156 114.903 42.1537 116.47 43.8419 116.395C45.5301 116.32 46.9682 115.02 46.9682 113.269Z" fill="#BA18DD"/>
<path d="M63.4045 108.684C61.7538 105.874 60.1031 103.061 58.4524 100.251C55.8263 95.7783 53.196 91.3056 50.5699 86.8329C49.9738 85.8158 49.3736 84.7987 48.7775 83.7774C47.948 82.3685 45.9221 81.739 44.5007 82.6561C43.0792 83.5731 42.4915 85.4239 43.3794 86.9329C45.0301 89.7424 46.6808 92.5561 48.3315 95.3656C50.9576 99.8384 53.5879 104.311 56.214 108.784C56.8101 109.801 57.4103 110.818 58.0064 111.839C58.8359 113.248 60.8618 113.878 62.2832 112.961C63.7046 112.044 64.2924 110.193 63.4045 108.684Z" fill="#BA18DD"/>
<path d="M76.7434 97.279C74.0548 95.7783 71.3662 94.2819 68.6775 92.7812C64.3965 90.3927 60.1156 88.0084 55.8346 85.6199C54.8592 85.078 53.8838 84.5319 52.9083 83.99C51.4786 83.1938 49.4319 83.5982 48.6315 85.1113C47.852 86.5828 48.2272 88.5378 49.7528 89.3881C52.4415 90.8888 55.1301 92.3852 57.8188 93.8859C62.0997 96.2744 66.3807 98.6587 70.6617 101.047C71.6371 101.589 72.6125 102.135 73.5879 102.677C75.0177 103.473 77.0644 103.069 77.8648 101.556C78.6443 100.084 78.2691 98.1293 76.7434 97.279Z" fill="#BA18DD"/>
<path d="M3.12892 88.4836H81.2454C82.3042 88.4836 83.3629 88.4961 84.4217 88.4836C84.4676 88.4836 84.5134 88.4836 84.5593 88.4836C86.1933 88.4836 87.7606 87.0454 87.6856 85.3572C87.6106 83.669 86.31 82.2309 84.5593 82.2309H6.44283C5.38404 82.2309 4.32526 82.2184 3.26648 82.2309C3.22063 82.2309 3.17477 82.2309 3.12892 82.2309C1.49489 82.2309 -0.0724418 83.669 0.00258998 85.3572C0.0776218 87.0454 1.37817 88.4836 3.12892 88.4836Z" fill="#BA18DD"/>
<path d="M38.7648 56.149C38.7648 56.149 61.8454 66.2992 41.3534 85.1322" stroke="#BA18DD" stroke-width="8" stroke-miterlimit="10"/>
<path d="M77.6272 57.0703C77.6272 66.1824 63.2503 72.7561 51.512 70.6135" stroke="#BA18DD" stroke-width="8" stroke-miterlimit="10"/>
<path d="M44.6881 47.4453C44.6881 53.9689 36.7431 58.9585 27.6309 58.9585C18.5187 58.9585 11.6949 54.2274 11.6949 47.4453" stroke="#BA18DD" stroke-width="8" stroke-miterlimit="10"/>
<path d="M38.523 13.9561H53.6877C55.3217 13.9561 56.8891 12.518 56.814 10.8298C56.739 9.1416 55.4385 7.70349 53.6877 7.70349H38.523C36.8889 7.70349 35.3216 9.1416 35.3966 10.8298C35.4717 12.518 36.7722 13.9561 38.523 13.9561Z" fill="#20AAA1"/>
<path d="M76.3058 32.4223H92.8711C94.5052 32.4223 96.0725 30.9842 95.9975 29.296C95.9224 27.6078 94.6219 26.1697 92.8711 26.1697H76.3058C74.6718 26.1697 73.1044 27.6078 73.1795 29.296C73.2545 30.9842 74.5551 32.4223 76.3058 32.4223Z" fill="#20AAA1"/>
<path d="M76.3058 53.1311H88.7361C90.3701 53.1311 91.9374 51.693 91.8624 50.0047C91.7873 48.3165 90.4868 46.8784 88.7361 46.8784H76.3058C74.6718 46.8784 73.1044 48.3165 73.1795 50.0047C73.2545 51.693 74.5551 53.1311 76.3058 53.1311Z" fill="#20AAA1"/>
<path d="M7.75587 43.0018H18.7855C20.4196 43.0018 21.9869 41.5637 21.9119 39.8755C21.8368 38.1873 20.5363 36.7491 18.7855 36.7491H7.75587C6.12184 36.7491 4.55451 38.1873 4.62954 39.8755C4.70457 41.5637 6.00513 43.0018 7.75587 43.0018Z" fill="#20AAA1"/>
<path d="M47.6936 42.9768H79.4112C80.8827 42.9768 82.3541 43.0101 83.8256 42.9768C83.8464 42.9768 83.8673 42.9768 83.8881 42.9768C85.5222 42.9768 87.0895 41.5387 87.0145 39.8504C86.9394 38.1622 85.6389 36.7241 83.8881 36.7241H52.1705C50.699 36.7241 49.2276 36.6908 47.7561 36.7241C47.7353 36.7241 47.7145 36.7241 47.6936 36.7241C46.0596 36.7241 44.4923 38.1622 44.5673 39.8504C44.6423 41.5387 45.9429 42.9768 47.6936 42.9768Z" fill="#20AAA1"/>
<path d="M16.0386 23.6645H46.1055C47.7395 23.6645 49.3069 22.2263 49.2318 20.5381C49.1568 18.8499 47.8562 17.4118 46.1055 17.4118H16.0386C14.4046 17.4118 12.8372 18.8499 12.9123 20.5381C12.9873 22.2263 14.2878 23.6645 16.0386 23.6645Z" fill="#20AAA1"/>
<path d="M19.7026 33.3352H58.0731C59.8405 33.3352 61.6121 33.3727 63.3795 33.3352C63.4045 33.3352 63.4295 33.3352 63.4545 33.3352C65.0886 33.3352 66.6559 31.8971 66.5808 30.2089C66.5058 28.5206 65.2053 27.0825 63.4545 27.0825H25.0841C23.3167 27.0825 21.5451 27.045 19.7777 27.0825C19.7527 27.0825 19.7277 27.0825 19.7026 27.0825C18.0686 27.0825 16.5013 28.5206 16.5763 30.2089C16.6514 31.8971 17.9519 33.3352 19.7026 33.3352Z" fill="#20AAA1"/>
</svg>
