<svg width="118" height="79" viewBox="0 0 118 79" fill="none" xmlns="http://www.w3.org/2000/svg">
<path d="M111.775 54.6891C108.571 56.6873 105.344 58.7046 101.869 60.1928L102.542 59.9035C100.551 60.7446 98.4472 61.3384 96.306 61.6391L97.0536 61.5363C96.2647 61.6429 95.4607 61.7 94.6681 61.601L95.4157 61.7038C95.0701 61.6543 94.7358 61.5782 94.4089 61.445L95.0814 61.7342C94.9198 61.6619 94.7696 61.5782 94.6156 61.4868C94.2362 61.2547 94.9048 61.7 94.9649 61.7685C94.9161 61.7076 94.8409 61.6619 94.7846 61.6048C94.7282 61.5477 94.6756 61.4868 94.6193 61.4297C94.3037 61.0986 94.8973 61.8142 94.8785 61.7799C94.7959 61.6429 94.6944 61.5135 94.6118 61.3727C94.2549 60.7675 93.9356 60.109 93.6388 59.4696L93.9243 60.1509C93.8605 59.991 93.8154 59.835 93.7891 59.6637L93.8905 60.4211C93.8642 60.2194 93.868 60.0215 93.8905 59.816L93.7891 60.5734C93.8379 60.2232 93.9394 59.8959 94.0746 59.5685L93.7891 60.2498C93.992 59.7855 94.2512 59.3478 94.5404 58.9367C94.593 58.8606 94.7207 58.7464 94.7433 58.6589C94.7433 58.6513 94.2587 59.2717 94.5179 58.9596C94.5555 58.9139 94.593 58.8682 94.6268 58.8225C94.7996 58.6094 94.9799 58.4001 95.164 58.1983C95.8214 57.4752 96.5314 56.8015 97.2827 56.1773C97.5043 55.9946 98.1354 55.5226 97.2001 56.2306C97.5119 55.9946 97.8237 55.7548 98.1392 55.5188C98.7966 55.0316 99.4577 54.5521 100.13 54.0877C101.359 53.2313 102.609 52.4092 103.857 51.5909C106.625 49.7754 109.39 47.9294 111.941 45.8056C114.082 44.0243 115.949 41.9043 116.971 39.2666C117.692 37.3978 117.677 35.2207 117.068 33.3253C116.306 30.9502 114.51 29.2375 112.121 28.5904C109.476 27.8749 106.576 28.3849 104.052 29.3098C100.904 30.4631 97.9401 32.1568 95.0851 33.919C92.3955 35.5823 89.7847 37.3712 87.1513 39.122C84.5743 40.8309 81.9748 42.5627 79.2363 44.0053C78.5488 44.3669 77.8501 44.7056 77.1364 45.0139L77.8088 44.7246C76.494 45.2841 75.1229 45.7904 73.7029 45.9921L74.4504 45.8893C73.8156 45.973 73.1808 45.9921 72.5459 45.9121L73.2934 46.0149C72.8464 45.954 72.4182 45.8436 72.0012 45.6685L72.6736 45.9578C72.4783 45.8703 72.2904 45.7751 72.1064 45.6571C71.6706 45.3793 72.2754 45.7333 72.3205 45.8436C72.2867 45.7599 72.0951 45.6457 72.0237 45.5772C71.9411 45.4935 71.8697 45.3983 71.7871 45.3146C71.588 45.1167 72.2454 45.9692 71.9336 45.4935C71.7683 45.2385 71.6331 44.9682 71.5091 44.6866L71.7946 45.3679C71.618 44.934 71.494 44.4925 71.4264 44.0281L71.5278 44.7855C71.4753 44.3516 71.4753 43.9254 71.5278 43.4953L71.4264 44.2527C71.5015 43.7046 71.6481 43.1831 71.8547 42.6731L71.5692 43.3544C71.7645 42.8901 72.0012 42.4486 72.2754 42.0261C72.3881 41.851 72.5158 41.6873 72.6285 41.5161C72.0463 42.3839 72.6135 41.5503 72.7976 41.341C73.3347 40.732 73.932 40.2029 74.5481 39.6815C73.6616 40.4313 74.3941 39.8071 74.6383 39.632C74.8562 39.4722 75.0778 39.3123 75.2994 39.1525C75.7953 38.7985 76.2949 38.4445 76.7983 38.0982C79.4091 36.2864 82.0575 34.5318 84.7021 32.7734C90.3519 29.0205 96.0693 25.3476 101.539 21.3283C102.598 20.5481 103.654 19.7526 104.664 18.9076C105.675 18.0627 106.52 17.1264 107.38 16.1672C109.206 14.1271 110.731 11.9234 111.043 9.12587C111.355 6.32836 109.875 3.23779 107.602 1.54787C105.979 0.341325 103.797 -0.0354811 101.828 0.00258018C100.074 0.0368354 98.3045 0.364152 96.614 0.824694C92.3503 1.98176 88.1956 3.59939 84.1874 5.46058C75.1116 9.67017 66.9036 15.543 59.274 22.0134C58.3386 22.8089 57.4071 23.6158 56.4867 24.4265C55.371 25.4123 55.4161 27.4676 56.4867 28.4648C57.6738 29.5686 59.2816 29.5153 60.4724 28.4648C62.2117 26.9271 63.9772 25.4199 65.7766 23.9584C66.2086 23.6082 66.6444 23.258 67.0801 22.9117C67.2867 22.748 67.4971 22.5844 67.7037 22.4169C66.9599 23.0183 67.8427 22.3103 68.0117 22.1809C68.9321 21.4692 69.8637 20.7726 70.8029 20.0875C74.4617 17.4194 78.2671 14.9607 82.2377 12.8026C84.5067 11.5694 86.832 10.439 89.2024 9.42276L88.5299 9.71203C91.1558 8.58922 93.8417 7.60343 96.5727 6.7813C97.9889 6.35501 99.4089 5.95917 100.878 5.75364L100.13 5.85641C101.227 5.70797 102.335 5.65468 103.432 5.80312L102.685 5.70035C103.267 5.78408 103.838 5.92872 104.383 6.15709L103.71 5.86782C103.958 5.9782 104.198 6.10001 104.428 6.24465C104.657 6.38928 104.987 6.73944 104.27 6.0962C104.371 6.18755 104.48 6.27508 104.578 6.37023C104.676 6.46538 104.769 6.57196 104.863 6.67853C105.16 7.00585 104.39 5.99342 104.747 6.53389C104.991 6.90689 105.198 7.31036 105.374 7.71762L105.089 7.0363C105.292 7.53491 105.434 8.03733 105.51 8.57019L105.408 7.81277C105.457 8.25428 105.457 8.68436 105.408 9.12587L105.51 8.36845C105.434 8.88228 105.295 9.37328 105.104 9.85666L105.389 9.17535C105.216 9.58641 105.01 9.97846 104.781 10.3553C104.672 10.5303 104.559 10.7016 104.443 10.8729C104.375 10.968 104.307 11.0632 104.24 11.1584C103.928 11.6037 104.679 10.6026 104.337 11.0289C103.725 11.7902 103.068 12.5095 102.395 13.2213C101.817 13.8341 101.242 14.4126 100.596 14.9493C100.442 15.0749 100.288 15.2005 100.134 15.3261C100.055 15.387 99.9761 15.4517 99.8972 15.5126C99.5967 15.7524 100.555 15.0025 100.25 15.2385C100.194 15.2804 100.138 15.3261 100.081 15.3717C99.6831 15.68 99.2774 15.9845 98.8717 16.2814C97.8988 16.997 96.9146 17.6973 95.9266 18.39C91.0318 21.8155 86.0318 25.0812 81.0619 28.3849C78.8268 29.8693 76.5954 31.3575 74.3866 32.88C72.4219 34.2349 70.322 35.5709 68.7443 37.3978C67.1665 39.2248 66.1485 41.1431 65.9006 43.4915C65.6639 45.7142 66.5617 48.3329 68.2597 49.802C71.2273 52.3674 75.1529 51.8611 78.5413 50.5404C82.8501 48.8581 86.7306 46.2204 90.5735 43.6589C94.3301 41.1583 98.0565 38.5891 102.038 36.4653C103.045 35.9287 104.067 35.411 105.115 34.9581L104.443 35.2474C105.848 34.6536 107.305 34.1778 108.815 33.9609L108.068 34.0637C108.909 33.9533 109.758 33.9228 110.603 34.0332L109.856 33.9304C110.359 34.0066 110.851 34.1322 111.321 34.3263L110.648 34.037C110.885 34.1398 111.114 34.2578 111.328 34.3948C111.452 34.4747 111.851 34.7792 111.373 34.41C110.896 34.0408 111.283 34.3491 111.388 34.4519C111.464 34.5242 111.531 34.6041 111.603 34.6802C111.959 35.0723 111.197 34.0751 111.422 34.4443C111.554 34.6574 111.674 34.8668 111.772 35.0951L111.486 34.4138C111.712 34.9657 111.858 35.5556 111.937 36.1494L111.836 35.392C111.899 35.9172 111.903 36.4425 111.836 36.9677L111.937 36.2103C111.858 36.785 111.7 37.3369 111.482 37.8736L111.768 37.1923C111.606 37.5767 111.419 37.9459 111.204 38.2999C111.107 38.4597 111.005 38.6196 110.9 38.7756C110.833 38.8746 110.765 38.9698 110.697 39.0649C110.434 39.4417 111.201 38.4331 110.761 38.9774C110.04 39.8718 109.213 40.6787 108.349 41.4285C108.109 41.6379 107.865 41.8396 107.617 42.0375L107.478 42.1517C107.241 42.3382 107.286 42.3039 107.613 42.0451C107.516 42.1745 107.298 42.2887 107.17 42.3839C106.599 42.8178 106.024 43.2402 105.442 43.6551C104.36 44.4278 103.259 45.17 102.155 45.9007C99.9949 47.328 97.8199 48.7287 95.7312 50.2587C94.1047 51.4539 92.5006 52.6871 91.1408 54.1981C89.6757 55.8271 88.1505 57.9205 88.2407 60.2422C88.282 61.3156 88.7028 62.1567 89.1648 63.093C89.3677 63.5041 89.5555 63.9228 89.7921 64.311C90.6223 65.6736 91.8582 66.7088 93.4134 67.1009C95.4871 67.6223 97.7072 67.2341 99.7507 66.7659C105.156 65.5327 109.95 62.5107 114.615 59.6028C115.87 58.8226 116.464 57.0146 115.626 55.6977C114.788 54.3808 113.113 53.8365 111.772 54.6739L111.775 54.6891Z" fill="#EAB54E"/>
<path d="M16.171 17.2994C16.971 19.1286 17.7672 20.9578 18.5673 22.7833C20.4715 27.1419 22.3757 31.5042 24.28 35.8627C26.5823 41.1321 28.8847 46.4015 31.1871 51.6747L37.189 65.4128C38.1543 67.6222 39.0594 69.8692 40.0885 72.0485C40.1036 72.0786 40.1149 72.1125 40.1299 72.1426C40.3928 72.7486 41.2078 73.2717 41.8125 73.4411C42.4886 73.6255 43.3863 73.5427 43.9835 73.155C44.5806 72.7674 45.114 72.1877 45.2792 71.4688C45.4595 70.6822 45.3168 70.0273 44.9938 69.2933C44.1938 67.4641 43.3975 65.6349 42.5975 63.8094C40.6933 59.4508 38.789 55.0885 36.8848 50.73C34.5824 45.4606 32.2801 40.1912 29.9777 34.918C27.9758 30.3374 25.9777 25.7605 23.9758 21.1799C23.0105 18.9705 22.1053 16.7235 21.0762 14.5442C21.0611 14.5141 21.0499 14.4802 21.0349 14.4501C20.772 13.8441 19.9569 13.321 19.3522 13.1516C18.6762 12.9672 17.7785 13.05 17.1813 13.4376C16.5841 13.8253 16.0508 14.4049 15.8855 15.1238C15.7053 15.9105 15.848 16.5654 16.171 17.2994Z" fill="#BA18DD"/>
<path d="M42.1829 14.4624C41.3836 16.2908 40.5881 18.1193 39.7888 19.944C37.8863 24.3007 35.9838 28.6611 34.0813 33.0179C31.7811 38.285 29.4808 43.5522 27.1805 48.8231C25.1805 53.4018 23.1841 57.9767 21.1841 62.5554C20.2197 64.7676 19.2516 66.976 18.2872 69.1882C18.2722 69.2183 18.2609 69.2522 18.2459 69.2823C17.9307 70.0046 17.7468 70.6668 17.9607 71.4569C18.1408 72.1115 18.6436 72.8226 19.2553 73.1424C19.9082 73.4885 20.7 73.6616 21.4242 73.4283C22.0734 73.2176 22.8202 72.7887 23.1053 72.1303C23.9046 70.3019 24.7001 68.4734 25.4994 66.6487C27.4019 62.292 29.3044 57.9315 31.2069 53.5748C33.5072 48.3077 35.8075 43.0405 38.1077 37.7696C40.1078 33.1909 42.1041 28.616 44.1042 24.0373C45.0686 21.8251 46.0367 19.6167 47.0011 17.4045C47.0161 17.3744 47.0274 17.3405 47.0424 17.3104C47.3576 16.5881 47.5415 15.9259 47.3276 15.1358C47.1475 14.4812 46.6446 13.7701 46.033 13.4503C45.38 13.1042 44.5883 12.9311 43.8641 13.1644C43.2149 13.3751 42.4681 13.804 42.1829 14.4624Z" fill="#BA18DD"/>
<path d="M19.177 65.6529C19.177 66.0957 19.1473 66.5308 19.0917 66.9697L19.1919 66.2102C19.0769 67.0575 18.8618 67.8819 18.5465 68.6758L18.8284 67.9926C18.591 68.569 18.3091 69.1262 17.9715 69.6491C17.8825 69.7865 17.7861 69.9201 17.6934 70.0575C17.4263 70.443 18.1904 69.4316 17.7564 69.9659C17.5747 70.1873 17.3855 70.401 17.1852 70.6071C16.9849 70.8133 16.7772 71.0079 16.5621 71.195C16.0428 71.6415 17.0257 70.8591 16.6511 71.1301C16.5176 71.2255 16.3877 71.3247 16.2542 71.4163C15.7461 71.7636 15.2045 72.0537 14.6445 72.298L15.3084 72.0079C14.5369 72.3324 13.7394 72.5537 12.9123 72.6721L13.6504 72.569C12.7973 72.6797 11.9442 72.6797 11.0911 72.569L11.8292 72.6721C11.0058 72.5537 10.2046 72.3324 9.43314 72.0079L10.0971 72.298C9.53699 72.0537 8.99547 71.7636 8.48732 71.4163C8.35379 71.3247 8.22397 71.2255 8.09044 71.1301C7.71582 70.8552 8.69873 71.6415 8.17946 71.195C7.96433 71.0079 7.75662 70.8133 7.55633 70.6071C7.35603 70.401 7.16687 70.1873 6.98513 69.9659C6.55116 69.4316 7.31152 70.443 7.04818 70.0575C6.95545 69.9201 6.85901 69.7865 6.76999 69.6491C6.43246 69.1262 6.15057 68.569 5.91318 67.9926L6.19508 68.6758C5.87981 67.8819 5.66466 67.0613 5.54967 66.2102L5.64983 66.9697C5.54226 66.0918 5.54226 65.214 5.64983 64.3361L5.54967 65.0956C5.66466 64.2483 5.87981 63.4239 6.19508 62.63L5.91318 63.3132C6.15057 62.7368 6.43246 62.1796 6.76999 61.6567C6.85901 61.5193 6.95545 61.3857 7.04818 61.2483C7.31523 60.8628 6.55116 61.8742 6.98513 61.3399C7.16687 61.1185 7.35603 60.9048 7.55633 60.6987C7.75662 60.4926 7.96433 60.2979 8.17946 60.1109C8.69873 59.6643 7.71582 60.4468 8.09044 60.1758C8.22397 60.0803 8.35379 59.9811 8.48732 59.8895C8.99547 59.5422 9.53699 59.2521 10.0971 59.0078L9.43314 59.2979C10.2046 58.9734 11.0021 58.7521 11.8292 58.6337L11.0911 58.7368C11.9442 58.6261 12.7973 58.6261 13.6504 58.7368L12.9123 58.6337C13.7357 58.7521 14.5369 58.9734 15.3084 59.2979L14.6445 59.0078C15.2045 59.2521 15.7461 59.5422 16.2542 59.8895C16.3877 59.9811 16.5176 60.0803 16.6511 60.1758C17.0257 60.4506 16.0428 59.6643 16.5621 60.1109C16.7772 60.2979 16.9849 60.4926 17.1852 60.6987C17.3855 60.9048 17.5747 61.1185 17.7564 61.3399C18.1904 61.8742 17.43 60.8628 17.6934 61.2483C17.7861 61.3857 17.8825 61.5193 17.9715 61.6567C18.3091 62.1796 18.591 62.7368 18.8284 63.3132L18.5465 62.63C18.8618 63.4239 19.0769 64.2445 19.1919 65.0956L19.0917 64.3361C19.1473 64.775 19.1733 65.2102 19.177 65.6529C19.1881 67.1491 20.4492 68.5842 21.9589 68.5155C23.4685 68.4468 24.7518 67.256 24.7407 65.6529C24.7259 63.13 24.0063 60.5269 22.5672 58.462C21.0056 56.2215 18.9582 54.5994 16.4434 53.6375C11.807 51.8703 6.10976 53.4467 2.97925 57.3857C1.25451 59.5574 0.253039 62.0498 0.0342008 64.8514C-0.162383 67.3781 0.497843 70.0537 1.77378 72.214C3.04972 74.3744 4.88204 76.1301 7.06672 77.1339C9.60747 78.2981 12.2743 78.6454 15.0117 78.0805C17.5821 77.55 20.1043 76.0042 21.7623 73.9125C23.6391 71.5461 24.7184 68.7255 24.737 65.6491C24.7481 64.1529 23.4499 62.7178 21.9551 62.7865C20.4604 62.8552 19.1844 64.0422 19.1733 65.6491L19.177 65.6529Z" fill="#BA18DD"/>
<path d="M58.1954 65.6529C58.1954 66.0957 58.1649 66.5308 58.1078 66.9697L58.2107 66.2102C58.0925 67.0575 57.8714 67.8819 57.5474 68.6758L57.8371 67.9926C57.5931 68.569 57.3034 69.1262 56.9565 69.6491C56.865 69.7865 56.7659 69.9201 56.6706 70.0575C56.3961 70.443 57.1814 69.4316 56.7354 69.9659C56.5486 70.1873 56.3542 70.401 56.1483 70.6071C55.9424 70.8133 55.7289 71.0079 55.5078 71.195C54.9741 71.6415 55.9843 70.8591 55.5993 71.1301C55.4621 71.2255 55.3287 71.3247 55.1914 71.4163C54.6692 71.7636 54.1126 72.0537 53.537 72.298L54.2193 72.0079C53.4264 72.3324 52.6068 72.5537 51.7567 72.6721L52.5153 72.569C51.6385 72.6797 50.7617 72.6797 49.8849 72.569L50.6435 72.6721C49.7972 72.5537 48.9738 72.3324 48.1809 72.0079L48.8633 72.298C48.2876 72.0537 47.7311 71.7636 47.2088 71.4163C47.0716 71.3247 46.9381 71.2255 46.8009 71.1301C46.4158 70.8552 47.4261 71.6415 46.8924 71.195C46.6713 71.0079 46.4578 70.8133 46.2519 70.6071C46.0461 70.401 45.8517 70.1873 45.6649 69.9659C45.2188 69.4316 46.0003 70.443 45.7297 70.0575C45.6344 69.9201 45.5353 69.7865 45.4438 69.6491C45.0969 69.1262 44.8071 68.569 44.5631 67.9926L44.8529 68.6758C44.5288 67.8819 44.3077 67.0613 44.1896 66.2102L44.2925 66.9697C44.1819 66.0918 44.1819 65.214 44.2925 64.3361L44.1896 65.0956C44.3077 64.2483 44.5288 63.4239 44.8529 62.63L44.5631 63.3132C44.8071 62.7368 45.0969 62.1796 45.4438 61.6567C45.5353 61.5193 45.6344 61.3857 45.7297 61.2483C46.0042 60.8628 45.2188 61.8742 45.6649 61.3399C45.8517 61.1185 46.0461 60.9048 46.2519 60.6987C46.4578 60.4926 46.6713 60.2979 46.8924 60.1109C47.4261 59.6643 46.4158 60.4468 46.8009 60.1758C46.9381 60.0803 47.0716 59.9811 47.2088 59.8895C47.7311 59.5422 48.2876 59.2521 48.8633 59.0078L48.1809 59.2979C48.9738 58.9734 49.7934 58.7521 50.6435 58.6337L49.8849 58.7368C50.7617 58.6261 51.6385 58.6261 52.5153 58.7368L51.7567 58.6337C52.603 58.7521 53.4264 58.9734 54.2193 59.2979L53.537 59.0078C54.1126 59.2521 54.6692 59.5422 55.1914 59.8895C55.3287 59.9811 55.4621 60.0803 55.5993 60.1758C55.9843 60.4506 54.9741 59.6643 55.5078 60.1109C55.7289 60.2979 55.9424 60.4926 56.1483 60.6987C56.3542 60.9048 56.5486 61.1185 56.7354 61.3399C57.1814 61.8742 56.3999 60.8628 56.6706 61.2483C56.7659 61.3857 56.865 61.5193 56.9565 61.6567C57.3034 62.1796 57.5931 62.7368 57.8371 63.3132L57.5474 62.63C57.8714 63.4239 58.0925 64.2445 58.2107 65.0956L58.1078 64.3361C58.1649 64.775 58.1916 65.2102 58.1954 65.6529C58.2069 67.1491 59.503 68.5842 61.0545 68.5155C62.6061 68.4468 63.9251 67.256 63.9137 65.6529C63.8984 63.13 63.1589 60.5269 61.6797 58.462C60.0748 56.2215 57.9705 54.5994 55.3859 53.6375C50.6207 51.8703 44.7652 53.4467 41.5477 57.3857C39.775 59.5574 38.7458 62.0498 38.5209 64.8514C38.3188 67.3781 38.9974 70.0537 40.3088 72.214C41.6201 74.3744 43.5033 76.1301 45.7487 77.1339C48.36 78.2981 51.101 78.6454 53.9144 78.0805C56.5562 77.55 59.1485 76.0042 60.8525 73.9125C62.7814 71.5461 63.8908 68.7255 63.9098 65.6491C63.9213 64.1529 62.587 62.7178 61.0507 62.7865C59.5144 62.8552 58.203 64.0422 58.1916 65.6491L58.1954 65.6529Z" fill="#BA18DD"/>
</svg>
