<svg width="168" height="82" viewBox="0 0 168 82" fill="none" xmlns="http://www.w3.org/2000/svg">
<path d="M31.9041 23.4824V71.8096C31.9041 74.0288 31.8665 76.252 31.9041 78.4673C31.9041 78.4986 31.9041 78.5299 31.9041 78.5572C31.9041 80.0888 33.2003 81.5579 34.7219 81.4876C36.2434 81.4172 37.5396 80.1982 37.5396 78.5572V30.23C37.5396 28.0108 37.5772 25.7876 37.5396 23.5723C37.5396 23.541 37.5396 23.5097 37.5396 23.4824C37.5396 21.9508 36.2434 20.4817 34.7219 20.552C33.2003 20.6224 31.9041 21.8414 31.9041 23.4824Z" fill="#BA18DD"/>
<path d="M54.4373 48.982V67.2768L57.3307 64.3568H46.2316C43.5118 64.3568 40.6531 64.1348 38.0568 65.0926C36.5406 65.6532 35.0708 66.4553 34.0137 67.7167C32.6018 69.3986 31.9382 71.4115 31.8881 73.6073C31.8533 75.1335 33.2422 76.5974 34.7815 76.5273C36.3207 76.4572 37.6401 75.2464 37.6749 73.6073C37.6826 73.2959 37.7019 72.9844 37.7443 72.6768L37.6401 73.4516C37.7173 72.9065 37.8523 72.377 38.0606 71.867L37.7674 72.5639C37.9256 72.194 38.1262 71.8631 38.3461 71.5283C38.566 71.1935 37.8253 72.1395 38.1069 71.8436C38.1648 71.7813 38.2188 71.7113 38.2767 71.649C38.4001 71.5127 38.5313 71.3842 38.6663 71.2596C38.7281 71.2051 38.7936 71.1506 38.8554 71.0961C39.056 70.917 38.1185 71.6295 38.566 71.3258C38.701 71.2324 38.8361 71.1389 38.9788 71.0533C39.2797 70.8703 39.5961 70.7146 39.9163 70.5744L39.2257 70.8703C40.0629 70.5199 40.9425 70.3058 41.8413 70.1851L41.0736 70.2902C42.4239 70.115 43.8127 70.1968 45.1707 70.1968H57.3384C58.9008 70.1968 60.2318 68.8575 60.2318 67.2768V48.982C60.2318 47.4558 58.9008 45.9919 57.3384 46.062C55.7759 46.1321 54.445 47.3468 54.445 48.982H54.4373Z" fill="#BA18DD"/>
<path d="M9.21194 41.892C9.21194 43.9516 9.21194 46.0112 9.21194 48.0707C9.21194 51.3528 9.21194 54.6388 9.21194 57.9209C9.21194 58.6762 9.21194 59.4315 9.21194 60.1868C9.21194 61.7636 10.539 63.1068 12.1053 63.1068C14.3969 63.1068 16.6885 63.1068 18.9801 63.1068C21.2716 63.1068 23.6944 63.173 26.0438 63.1068C26.8231 63.0834 27.5908 63.099 28.3662 63.2002L27.5985 63.0951C28.4935 63.2158 29.377 63.4299 30.2141 63.7803L29.5236 63.4844C29.8476 63.6246 30.1601 63.7803 30.461 63.9633C30.6038 64.049 30.7349 64.1424 30.8738 64.2359C31.2635 64.5006 30.5806 64.0334 30.5536 63.9828C30.5884 64.049 30.7195 64.119 30.7774 64.1736C30.9124 64.2981 31.0436 64.4266 31.167 64.5629C31.2249 64.6252 31.2789 64.6953 31.3368 64.7576C31.603 65.0612 30.8661 64.0879 31.0976 64.4422C31.3136 64.777 31.5142 65.108 31.6763 65.4778L31.3831 64.7809C31.5914 65.2909 31.7264 65.8204 31.8036 66.3655L31.6994 65.5907C31.738 65.9022 31.7611 66.2098 31.7688 66.5212C31.8036 68.0474 33.0767 69.5113 34.6622 69.4412C36.2478 69.3712 37.5904 68.1564 37.5556 66.5212C37.4823 63.173 35.8158 60.0349 32.741 58.5788C30.7928 57.6561 28.6556 57.2162 26.5029 57.2512C23.3471 57.3018 20.1914 57.2707 17.0357 57.2707C15.3922 57.2707 13.7527 57.2707 12.1092 57.2707L15.0026 60.1907C15.0026 58.1311 15.0026 56.0715 15.0026 54.012C15.0026 50.7299 15.0026 47.4439 15.0026 44.1618C15.0026 43.4065 15.0026 42.6512 15.0026 41.8959C15.0026 40.3697 13.6716 38.9058 12.1092 38.9759C10.5468 39.046 9.21581 40.2607 9.21581 41.8959L9.21194 41.892Z" fill="#BA18DD"/>
<path d="M12.0464 43.2252C18.6994 43.2252 24.0927 37.9905 24.0927 31.5331C24.0927 25.0758 18.6994 19.8411 12.0464 19.8411C5.39335 19.8411 0 25.0758 0 31.5331C0 37.9905 5.39335 43.2252 12.0464 43.2252Z" fill="#20AAA1"/>
<path d="M34.7218 23.3841C41.3749 23.3841 46.7682 18.1494 46.7682 11.692C46.7682 5.23471 41.3749 0 34.7218 0C28.0688 0 22.6755 5.23471 22.6755 11.692C22.6755 18.1494 28.0688 23.3841 34.7218 23.3841Z" fill="#20AAA1"/>
<path d="M57.3973 48.1854C64.0503 48.1854 69.4436 42.792 69.4436 36.139C69.4436 29.486 64.0503 24.0927 57.3973 24.0927C50.7443 24.0927 45.3509 29.486 45.3509 36.139C45.3509 42.792 50.7443 48.1854 57.3973 48.1854Z" fill="#20AAA1"/>
<path d="M130.361 62.5105C130.384 62.5184 130.407 62.5302 130.426 62.5381L129.741 62.2382C130.844 62.7197 131.9 63.3353 132.907 64.0022C133.324 64.2785 133.734 64.5626 134.132 64.8625C134.239 64.9415 134.347 65.0243 134.45 65.1072C134.492 65.1388 134.534 65.1743 134.58 65.2059C134.913 65.4624 133.933 64.681 134.259 64.9493C134.477 65.1309 134.695 65.3085 134.909 65.4939C135.855 66.3187 136.739 67.2185 137.524 68.2051C137.696 68.4221 138.148 69.0654 137.49 68.1459C137.585 68.2801 137.685 68.4103 137.777 68.5445C138.006 68.872 138.225 69.2075 138.431 69.5547C138.841 70.2335 139.197 70.9478 139.503 71.6818L139.212 70.9754C139.718 72.2067 140.062 73.4971 140.238 74.8231L140.135 74.0378C140.311 75.4466 140.296 76.8634 140.12 78.2683L140.223 77.483C140.211 77.5737 140.2 77.6605 140.185 77.7513C140.07 78.5721 140.051 79.2864 140.476 80.0323C140.824 80.6479 141.505 81.232 142.191 81.3938C142.926 81.5674 143.749 81.528 144.403 81.0939C144.985 80.7071 145.617 80.0678 145.724 79.3259C146.118 76.5082 146.095 73.6826 145.288 70.932C144.583 68.5287 143.4 66.4095 141.911 64.4482C139.875 61.7686 137.153 59.5744 134.259 57.9525C133.489 57.5223 132.697 57.1435 131.885 56.808C131.238 56.5397 130.247 56.7607 129.672 57.108C129.098 57.4552 128.509 58.1695 128.352 58.8759C128.183 59.6336 128.221 60.4821 128.643 61.1569C129.064 61.8317 129.626 62.2145 130.358 62.5184L130.361 62.5105Z" fill="#BA18DD"/>
<path d="M144.351 44.0262C144.351 44.7037 144.304 45.3774 144.218 46.0511L144.324 45.2762C144.14 46.6235 143.788 47.9358 143.263 49.1897L143.561 48.4927C143.173 49.4 142.712 50.2722 142.16 51.09C142.019 51.3042 141.866 51.5105 141.718 51.7169C141.451 52.0869 142.121 51.2185 141.905 51.4794C141.823 51.5768 141.745 51.678 141.663 51.7753C141.35 52.1531 141.021 52.5113 140.673 52.8579C140.324 53.2045 139.996 53.5043 139.636 53.8003C139.538 53.882 139.436 53.9599 139.338 54.0417C138.935 54.3688 139.949 53.5939 139.526 53.8937C139.319 54.0417 139.111 54.1936 138.896 54.3337C138.07 54.8789 137.198 55.3423 136.286 55.7278L136.986 55.4319C135.722 55.9498 134.408 56.3041 133.054 56.4871L133.832 56.382C132.478 56.5533 131.116 56.5533 129.762 56.382L130.541 56.4871C129.187 56.3041 127.868 55.9537 126.608 55.4319L127.309 55.7278C126.397 55.3423 125.52 54.8828 124.699 54.3337C124.483 54.1936 124.276 54.0417 124.069 53.8937C123.697 53.6289 124.57 54.2948 124.307 54.0806C124.209 53.9989 124.108 53.921 124.01 53.8392C123.63 53.5277 123.27 53.2006 122.922 52.854C122.574 52.5074 122.272 52.1803 121.975 51.8221C121.893 51.7247 121.815 51.6235 121.732 51.5261C121.404 51.125 122.182 52.1336 121.881 51.713C121.732 51.5067 121.58 51.3003 121.439 51.0861C120.891 50.2645 120.425 49.3961 120.038 48.4888L120.335 49.1858C119.815 47.928 119.459 46.6196 119.275 45.2723L119.38 46.0472C119.294 45.3735 119.251 44.6999 119.247 44.0223C119.24 42.4958 117.901 41.0317 116.312 41.1018C114.724 41.1718 113.37 42.3868 113.377 44.0223C113.393 47.7022 114.501 51.4482 116.661 54.4545C118.934 57.6164 121.987 59.9567 125.657 61.3041C132.67 63.8781 141.119 61.6117 145.858 55.8563C148.628 52.4919 150.205 48.3953 150.225 44.0223C150.233 42.4958 148.871 41.0317 147.29 41.1018C145.709 41.1718 144.363 42.3868 144.355 44.0223L144.351 44.0262Z" fill="#BA18DD"/>
<path d="M154.537 34.7218H162.92C164.432 34.7218 165.881 33.418 165.812 31.8874C165.743 30.3568 164.539 29.0529 162.92 29.0529H154.537C153.025 29.0529 151.575 30.3568 151.645 31.8874C151.714 33.418 152.917 34.7218 154.537 34.7218Z" fill="#20AAA1"/>
<path d="M86.5247 24.8013H114.72C116.239 24.8013 117.696 23.3345 117.627 21.6126C117.557 19.8907 116.348 18.4239 114.72 18.4239H86.5247C85.0056 18.4239 83.5486 19.8907 83.6183 21.6126C83.6881 23.3345 84.8971 24.8013 86.5247 24.8013Z" fill="#20AAA1"/>
<path d="M139.654 44.6424H162.922C164.432 44.6424 165.881 43.3385 165.812 41.8079C165.743 40.2773 164.54 38.9735 162.922 38.9735H139.654C138.144 38.9735 136.695 40.2773 136.764 41.8079C136.833 43.3385 138.036 44.6424 139.654 44.6424Z" fill="#20AAA1"/>
<path d="M137.54 14.1721H164.328C165.844 14.1721 167.299 12.8683 167.229 11.3377C167.16 9.80711 165.953 8.50327 164.328 8.50327H137.54C136.023 8.50327 134.568 9.80711 134.638 11.3377C134.708 12.8683 135.915 14.1721 137.54 14.1721Z" fill="#20AAA1"/>
<path d="M104.933 44.6424H128.2C129.711 44.6424 131.16 43.3385 131.09 41.8079C131.021 40.2773 129.818 38.9735 128.2 38.9735H104.933C103.422 38.9735 101.973 40.2773 102.042 41.8079C102.111 43.3385 103.314 44.6424 104.933 44.6424Z" fill="#20AAA1"/>
<path d="M86.5316 36.1203H136.105C138.389 36.1203 140.677 36.1626 142.961 36.1203C142.992 36.1203 143.027 36.1203 143.058 36.1203C144.58 36.1203 146.041 34.6621 145.971 32.9503C145.901 31.2386 144.689 29.7804 143.058 29.7804H93.4847C91.2007 29.7804 88.9128 29.7381 86.6287 29.7804C86.5977 29.7804 86.5627 29.7804 86.5316 29.7804C85.0089 29.7804 83.5484 31.2386 83.6183 32.9503C83.6882 34.6621 84.9002 36.1203 86.5316 36.1203Z" fill="#20AAA1"/>
</svg>
