<svg width="446" height="374" viewBox="0 0 446 374" fill="none" xmlns="http://www.w3.org/2000/svg">
<path d="M239.136 114.537C232.136 117.947 225.696 122.417 219.946 127.667C216.706 130.627 213.806 134.157 212.756 138.527C211.596 143.347 212.496 148.157 214.796 152.497C216.606 155.907 219.546 159.127 223.046 160.847C227.326 162.947 231.796 163.297 236.446 162.357C243.856 160.857 249.916 154.957 251.316 147.477C253.056 138.167 251.696 128.257 250.146 119.017C249.856 117.277 248.166 115.387 246.696 114.537C245.086 113.597 242.716 113.197 240.916 113.777C239.116 114.357 237.346 115.487 236.436 117.227C235.436 119.117 235.326 120.907 235.676 123.007C235.936 124.577 236.186 126.157 236.396 127.737L236.126 125.747C236.956 131.947 237.486 138.417 236.706 144.657L236.976 142.667C236.796 143.937 236.486 145.157 236.006 146.347L236.766 144.557C236.496 145.187 236.186 145.797 235.806 146.377C235.426 146.957 234.806 147.357 236.306 145.787C236.076 146.027 235.876 146.297 235.636 146.527C235.466 146.697 234.976 146.997 234.896 147.207C235.006 146.927 236.636 145.957 235.486 146.727C234.896 147.117 234.276 147.437 233.636 147.727L235.426 146.967C234.186 147.487 232.906 147.827 231.576 148.037L233.566 147.767C232.396 147.927 231.246 147.947 230.066 147.817L232.056 148.087C231.086 147.947 230.156 147.697 229.256 147.327L231.046 148.087C230.356 147.777 229.736 147.407 229.106 147.007C228.046 146.337 230.506 148.277 229.616 147.377C229.346 147.107 229.056 146.857 228.796 146.567C228.296 146.037 227.876 145.017 228.996 146.907C228.816 146.607 228.586 146.337 228.406 146.037C227.916 145.257 227.496 144.447 227.136 143.597L227.896 145.387C227.516 144.427 227.226 143.447 227.066 142.427L227.336 144.417C227.216 143.457 227.196 142.507 227.306 141.547L227.036 143.537C227.176 142.577 227.436 141.677 227.806 140.777L227.046 142.567C227.246 142.117 227.466 141.667 227.726 141.237C227.886 140.957 228.086 140.707 228.246 140.427C228.686 139.687 227.196 141.647 227.796 140.997C228.596 140.137 229.396 139.307 230.256 138.507C231.116 137.707 231.946 136.977 232.816 136.247C233.226 135.897 233.646 135.557 234.056 135.217C234.266 135.047 234.476 134.887 234.686 134.707C235.366 134.157 233.116 135.887 234.296 135.007C238.186 132.087 242.326 129.577 246.696 127.447C250.236 125.727 251.466 120.417 249.386 117.187C247.046 113.557 242.906 112.657 239.126 114.497L239.136 114.537Z" fill="#EAB54E"/>
<path d="M126.796 285.077C123.636 296.947 120.486 308.817 117.326 320.687C116.886 322.337 116.446 323.987 116.006 325.637C114.996 329.427 117.276 333.957 121.246 334.867C125.216 335.777 129.396 333.687 130.476 329.627C133.636 317.757 136.786 305.887 139.946 294.017C140.386 292.367 140.826 290.717 141.266 289.067C142.276 285.277 139.996 280.746 136.026 279.836C132.056 278.926 127.876 281.017 126.796 285.077Z" fill="#BA18DD"/>
<path d="M92.0562 162.027C91.1662 169.037 91.8662 176.507 93.4062 183.347C95.9562 194.697 102.246 204.947 112.066 211.377C119.236 216.077 127.776 218.067 136.216 218.677C140.136 218.957 143.886 215.027 143.716 211.177C143.526 206.867 140.416 203.977 136.216 203.677C135.056 203.597 133.906 203.477 132.756 203.337L134.746 203.607C130.816 203.077 126.956 202.127 123.296 200.587L125.086 201.347C122.836 200.387 120.686 199.217 118.696 197.807C118.496 197.667 118.296 197.517 118.096 197.367C116.816 196.447 119.506 198.517 118.646 197.797C118.216 197.437 117.776 197.087 117.356 196.707C116.566 196.007 115.806 195.257 115.096 194.477C114.756 194.107 114.426 193.737 114.106 193.357C113.906 193.127 113.726 192.887 113.526 192.647C112.816 191.797 114.786 194.347 114.146 193.447C113.506 192.547 112.926 191.747 112.376 190.857C111.306 189.127 110.386 187.317 109.596 185.447L110.356 187.237C108.676 183.207 107.616 178.967 107.026 174.647L107.296 176.637C106.656 171.847 106.446 166.837 107.056 162.027C107.276 160.257 106.056 157.917 104.856 156.727C103.556 155.427 101.416 154.447 99.5562 154.527C97.6962 154.607 95.6062 155.247 94.2562 156.727C92.8162 158.297 92.3262 159.937 92.0562 162.027Z" fill="#BA18DD"/>
<path d="M54.0662 261.117C54.4862 263.457 55.1862 265.777 55.9662 268.017C57.3362 271.917 59.0162 275.787 61.2262 279.287C64.0262 283.717 67.4862 287.497 71.7762 290.507C76.3862 293.737 82.0462 295.327 87.6362 295.507C91.6662 295.637 95.6862 295.707 99.6962 296.237L97.7062 295.967C100.806 296.387 103.886 297.067 106.776 298.287L104.986 297.527C106.166 298.037 107.306 298.617 108.376 299.317C108.636 299.487 108.896 299.667 109.146 299.837C110.386 300.697 107.616 298.577 108.526 299.337C109.036 299.767 109.536 300.187 110.006 300.657C110.476 301.127 110.896 301.587 111.316 302.087C112.376 303.367 110.366 300.787 110.876 301.507C111.076 301.787 111.266 302.057 111.456 302.337C112.296 303.607 113.006 304.957 113.606 306.357L112.846 304.567C114.226 307.837 115.006 311.317 115.486 314.827L115.216 312.837C116.006 318.817 115.946 324.887 115.576 330.897C115.336 334.817 119.196 338.567 123.076 338.397C127.346 338.207 130.316 335.097 130.576 330.897C131.026 323.587 130.906 316.297 129.686 309.067C128.846 304.097 127.216 298.987 124.406 294.777C121.786 290.847 118.316 287.467 114.086 285.297C110.246 283.327 106.156 282.137 101.896 281.537C99.0462 281.137 96.2062 280.827 93.3362 280.687C90.6162 280.547 87.8562 280.657 85.1462 280.307L87.1362 280.577C85.2162 280.297 83.3662 279.797 81.5762 279.047L83.3662 279.807C82.4062 279.387 81.4762 278.917 80.5762 278.367C80.1562 278.107 79.7462 277.847 79.3462 277.557C79.1262 277.407 78.9162 277.237 78.6962 277.087C80.7762 278.547 79.8462 277.987 79.3762 277.607C77.8562 276.357 76.5262 274.937 75.2762 273.417C74.5462 272.527 75.8462 274.147 75.8962 274.227C75.7562 274.017 75.5862 273.817 75.4362 273.607C75.1662 273.227 74.8962 272.847 74.6462 272.457C74.1162 271.657 73.6162 270.847 73.1562 270.017C72.2762 268.447 71.4962 266.827 70.7962 265.177L71.5562 266.967C70.2462 263.817 69.1362 260.507 68.5262 257.137C68.2062 255.387 66.5662 253.527 65.0762 252.657C63.4662 251.717 61.0962 251.317 59.2962 251.897C57.4962 252.477 55.7262 253.607 54.8162 255.347C53.8262 257.217 53.6862 259.047 54.0562 261.127L54.0662 261.117Z" fill="#BA18DD"/>
<path d="M205.726 327.967C181.576 328.017 157.426 328.047 133.266 328.057C109.106 328.067 84.9562 328.057 60.8062 328.007C47.3662 327.987 33.8062 328.547 20.4562 326.777L22.4462 327.047C19.8562 326.697 17.1462 325.957 14.5363 326.017C11.1962 326.097 7.96621 327.647 6.30621 330.637C4.92621 333.117 5.04621 335.737 5.11621 338.457C5.17621 340.817 4.98623 343.187 5.13623 345.537C5.43623 350.167 6.55622 354.517 8.69622 358.647C10.7062 362.527 13.6762 365.637 17.1162 368.247C20.1262 370.537 23.8262 372.167 27.5362 372.907C32.5262 373.907 37.6362 373.627 42.6962 373.637C53.1062 373.667 63.5162 373.687 73.9262 373.707C94.7462 373.737 115.576 373.747 136.396 373.737C157.216 373.727 177.876 373.687 198.616 373.637C203.566 373.627 208.606 373.897 213.446 372.627C217.886 371.457 221.866 369.177 225.326 366.197C228.786 363.217 231.156 359.377 232.856 355.217C234.646 350.837 234.896 345.947 234.826 341.267C234.786 338.827 234.676 336.387 234.666 333.947C234.656 330.117 231.236 326.147 227.166 326.447C220.016 326.987 212.896 327.917 205.726 327.957C201.806 327.977 198.046 331.397 198.226 335.457C198.406 339.517 201.526 342.977 205.726 342.957C212.896 342.917 220.026 341.977 227.166 341.447L219.666 333.947C219.686 338.647 220.116 343.357 219.536 348.037L219.806 346.047C219.556 347.837 219.086 349.567 218.396 351.237L219.156 349.447C218.636 350.667 218.006 351.837 217.266 352.937C217.156 353.097 216.846 353.727 216.696 353.747C216.776 353.737 218.046 352.127 217.156 353.137C216.716 353.637 216.286 354.127 215.816 354.597C215.386 355.027 214.926 355.417 214.476 355.827C213.496 356.717 216.036 354.717 214.946 355.477C214.676 355.667 214.406 355.867 214.126 356.047C213.006 356.797 211.816 357.417 210.586 357.957L212.376 357.197C210.556 357.947 208.676 358.457 206.726 358.727L208.716 358.457C206.116 358.777 203.476 358.657 200.866 358.657C197.946 358.657 195.036 358.667 192.116 358.677C186.286 358.687 180.456 358.707 174.626 358.717C162.886 358.737 151.136 358.757 139.396 358.757C115.906 358.777 92.4162 358.757 68.9262 358.717C62.4262 358.707 55.9362 358.687 49.4362 358.677C46.1062 358.677 42.7762 358.657 39.4362 358.647C36.5762 358.647 33.6862 358.787 30.8462 358.417L32.8362 358.687C30.9962 358.417 29.2062 357.937 27.4862 357.237L29.2762 357.997C28.1162 357.497 26.9962 356.917 25.9462 356.227C25.6862 356.057 25.4362 355.867 25.1762 355.697C24.1362 354.977 26.6162 356.887 25.7162 356.107C25.2062 355.667 24.7063 355.227 24.2263 354.747C23.7863 354.307 23.3863 353.837 22.9763 353.367C22.0163 352.267 23.8162 354.567 23.3862 353.897C23.2162 353.637 23.0262 353.387 22.8462 353.127C22.1162 352.027 21.4962 350.857 20.9662 349.647L21.7263 351.437C20.9163 349.507 20.3662 347.497 20.0662 345.427L20.3362 347.417C20.0662 345.407 20.0862 343.417 20.1162 341.397C20.1462 339.377 19.8662 337.297 20.0562 335.307L19.7863 337.297C19.8263 337.027 19.8863 336.767 19.9763 336.507L19.2162 338.297C19.6162 337.467 17.8162 339.837 18.3662 339.327C18.7562 338.967 16.5462 340.557 17.3262 340.187L15.5363 340.947C15.7262 340.877 15.8962 340.837 16.0862 340.797L14.0962 341.067C14.7162 340.997 15.3262 341.047 15.9462 341.117L13.9562 340.847C20.3762 341.737 26.7462 342.637 33.2362 342.877C39.7262 343.117 45.6262 342.987 51.8162 342.997C64.2262 343.017 76.6362 343.037 89.0462 343.047C113.946 343.067 138.846 343.067 163.756 343.047C177.746 343.027 191.736 343.007 205.736 342.977C209.656 342.977 213.416 339.537 213.236 335.477C213.056 331.417 209.936 327.967 205.736 327.977L205.726 327.967Z" fill="#20AAA1"/>
<path d="M246.136 223.896L246.006 224.216L246.766 222.426C245.616 225.126 244.236 227.726 242.606 230.166C242.216 230.746 241.816 231.326 241.396 231.896C241.256 232.086 241.116 232.277 240.976 232.457L241.716 231.496C241.516 231.836 241.196 232.147 240.946 232.457C240.016 233.577 239.036 234.666 237.996 235.696C236.956 236.726 235.966 237.636 234.896 238.526C234.586 238.786 234.266 239.046 233.946 239.296C233.326 239.796 235.596 238.046 234.346 238.976C233.736 239.426 233.116 239.866 232.476 240.286C230.026 241.926 227.416 243.307 224.706 244.457L226.496 243.696C222.816 245.216 218.976 246.266 215.036 246.816L217.026 246.546C212.866 247.096 208.676 247.106 204.516 246.566L206.506 246.836C202.516 246.286 198.636 245.226 194.916 243.686L196.706 244.446C194.666 243.586 192.686 242.586 190.786 241.446C189.846 240.876 188.916 240.276 188.016 239.646C187.566 239.326 187.126 238.996 186.686 238.676C185.966 238.146 188.026 239.746 187.336 239.176C187.106 238.986 186.856 238.796 186.626 238.596C184.986 237.236 183.436 235.766 181.996 234.186C181.256 233.376 180.556 232.526 179.866 231.686C179.336 231.046 181.076 233.306 180.256 232.186C180.116 231.986 179.966 231.796 179.826 231.596C179.466 231.106 179.126 230.596 178.786 230.086C176.606 226.836 172.076 225.106 168.526 227.396C165.286 229.486 163.496 234.176 165.836 237.656C170.216 244.186 175.776 249.716 182.436 253.906C189.266 258.206 196.936 260.626 204.896 261.606C219.916 263.466 235.146 258.226 246.426 248.316C252.786 242.726 257.366 235.646 260.596 227.876C261.286 226.206 260.706 223.576 259.836 222.096C258.926 220.536 257.146 219.056 255.356 218.646C253.436 218.206 251.286 218.306 249.576 219.406C247.866 220.506 246.926 221.976 246.126 223.886L246.136 223.896Z" fill="#BA18DD"/>
<path d="M47.4062 248.517H70.1362C74.0562 248.517 77.8162 245.067 77.6362 241.017C77.4562 236.967 74.3362 233.517 70.1362 233.517H47.4062C43.4862 233.517 39.7262 236.967 39.9062 241.017C40.0862 245.067 43.2062 248.517 47.4062 248.517Z" fill="#20AAA1"/>
<path d="M224.526 209.957H247.256C251.176 209.957 254.936 206.507 254.756 202.457C254.576 198.407 251.456 194.957 247.256 194.957H224.526C220.606 194.957 216.846 198.407 217.026 202.457C217.206 206.507 220.326 209.957 224.526 209.957Z" fill="#20AAA1"/>
<path d="M7.50621 264.807H70.6262C74.5462 264.807 78.3062 261.357 78.1262 257.307C77.9462 253.257 74.8262 249.807 70.6262 249.807H7.50621C3.58621 249.807 -0.173787 253.257 0.00621332 257.307C0.186213 261.357 3.30621 264.807 7.50621 264.807Z" fill="#20AAA1"/>
<path d="M233.696 226.687H296.816C300.736 226.687 304.496 223.237 304.316 219.187C304.136 215.137 301.016 211.687 296.816 211.687H233.696C229.776 211.687 226.016 215.137 226.196 219.187C226.376 223.237 229.496 226.687 233.696 226.687Z" fill="#20AAA1"/>
<path d="M43.9562 159.776H177.406C183.556 159.776 189.706 159.877 195.846 159.776C195.936 159.776 196.016 159.776 196.106 159.776C200.026 159.776 203.786 156.326 203.606 152.277C203.426 148.227 200.306 144.777 196.106 144.777H62.6562C56.5062 144.777 50.3562 144.677 44.2162 144.777C44.1262 144.777 44.0462 144.777 43.9562 144.777C40.0362 144.777 36.2762 148.227 36.4562 152.277C36.6362 156.326 39.7562 159.776 43.9562 159.776Z" fill="#20AAA1"/>
<path d="M27.2162 141.286H99.6162C103.536 141.286 107.296 137.836 107.116 133.786C106.936 129.736 103.816 126.286 99.6162 126.286H27.2162C23.2962 126.286 19.5362 129.736 19.7162 133.786C19.8962 137.836 23.0162 141.286 27.2162 141.286Z" fill="#20AAA1"/>
<path d="M137.416 218.687C139.156 218.687 140.886 218.807 142.606 219.037L140.616 218.767C143.846 219.227 146.986 220.077 150.006 221.327L148.216 220.567C150.446 221.507 152.586 222.647 154.596 223.987C155.096 224.317 155.586 224.667 156.066 225.017C157.126 225.777 155.616 224.547 155.456 224.537C155.596 224.547 156.106 225.057 156.216 225.157C157.136 225.917 158.026 226.727 158.876 227.577C159.726 228.427 160.526 229.307 161.296 230.237C161.466 230.447 161.636 230.667 161.806 230.877C162.366 231.547 160.646 229.327 161.326 230.267C161.706 230.797 162.096 231.327 162.456 231.877C163.796 233.887 164.936 236.027 165.876 238.257L165.116 236.467C166.356 239.487 167.216 242.627 167.676 245.857L167.406 243.867C167.866 247.317 167.866 250.797 167.406 254.257L167.676 252.267C167.216 255.497 166.366 258.637 165.116 261.657L165.876 259.867C164.936 262.097 163.796 264.237 162.456 266.247C162.126 266.747 161.776 267.237 161.426 267.717C160.666 268.777 161.896 267.267 161.906 267.107C161.896 267.247 161.386 267.757 161.286 267.867C160.526 268.787 159.716 269.677 158.866 270.527C158.016 271.377 157.136 272.177 156.206 272.947C155.996 273.117 155.776 273.287 155.566 273.457C154.896 274.017 157.116 272.297 156.176 272.977C155.646 273.357 155.116 273.747 154.566 274.107C152.556 275.447 150.416 276.587 148.186 277.527L149.976 276.767C146.956 278.007 143.816 278.867 140.586 279.327L142.576 279.057C140.856 279.287 139.126 279.407 137.386 279.407C133.466 279.427 129.706 282.847 129.886 286.907C130.066 290.967 133.186 294.427 137.386 294.407C146.496 294.367 155.776 291.637 163.206 286.307C171.046 280.677 176.836 273.147 180.166 264.077C186.466 246.897 180.896 226.217 166.796 214.557C158.456 207.657 148.256 203.737 137.386 203.687C133.466 203.667 129.706 207.147 129.886 211.187C130.066 215.227 133.186 218.667 137.386 218.687H137.416Z" fill="#BA18DD"/>
<path d="M376.666 15.3365C375.216 12.7765 373.286 10.2565 370.606 8.89652C367.156 7.14652 363.466 7.29652 359.966 8.77652C357.006 10.0265 354.316 11.8266 351.556 13.4566C348.796 15.0866 346.196 16.6266 343.516 18.1966C332.706 24.5466 321.856 30.8066 310.966 37.0166C305.486 40.1366 299.996 43.2466 294.496 46.3266C292.136 47.6466 289.586 48.9966 287.836 51.1266C285.246 54.2766 284.396 57.7665 285.186 61.7765C285.756 64.6665 287.456 67.3765 288.786 69.9765C290.256 72.8365 291.716 75.7066 293.176 78.5766C296.056 84.2466 298.916 89.9165 301.766 95.5965C304.906 101.867 308.036 108.147 311.166 114.427C312.746 117.607 314.326 120.787 315.906 123.957C316.716 125.577 317.476 127.237 318.336 128.837C318.846 129.787 319.526 130.627 319.966 131.607L319.206 129.817C319.316 130.107 319.386 130.377 319.446 130.677L319.176 128.687C319.206 129.017 319.206 129.307 319.176 129.637L319.446 127.647C319.366 128.027 319.266 128.357 319.126 128.717L319.886 126.927L319.696 127.317L328.166 123.867C309.366 116.587 290.576 109.307 271.776 102.027C270.136 101.397 267.436 101.857 265.996 102.787C264.326 103.867 263.136 105.347 262.546 107.267C260.576 113.687 258.606 120.107 256.646 126.517C255.666 129.717 257.306 133.297 260.096 134.987C288.416 152.177 316.796 169.267 344.986 186.657C346.506 187.597 348.006 188.637 349.606 189.457C352.456 190.917 355.586 191.497 358.736 190.717C360.476 190.287 362.086 189.397 363.616 188.497C365.316 187.487 367.026 186.517 368.726 185.527C375.586 181.517 382.396 177.417 389.236 173.367C396.076 169.317 402.926 165.327 409.886 161.507C416.086 158.107 422.586 155.197 428.656 151.587C433.586 148.657 438.046 145.107 441.376 140.407C444.376 136.167 445.746 130.597 445.136 125.447C443.876 114.767 437.346 106.347 431.466 97.7466C420.886 82.2866 410.486 66.7066 400.116 51.1166C392.456 39.5965 384.646 28.1565 377.316 16.4265C377.096 16.0765 376.866 15.7165 376.666 15.3565C374.746 11.9365 369.766 10.4965 366.406 12.6665C363.046 14.8365 361.666 19.2665 363.716 22.9265C365.526 26.1465 367.706 29.1965 369.726 32.2865C373.976 38.7865 378.266 45.2666 382.556 51.7466C392.946 67.4066 403.376 83.0465 413.936 98.5965C416.246 102.007 418.566 105.407 420.906 108.807C423.956 113.227 427.126 117.567 429.256 122.527L428.496 120.737C429.396 122.897 430.096 125.127 430.416 127.447L430.146 125.457C430.326 126.907 430.336 128.357 430.156 129.797L430.426 127.807C430.246 129.077 429.916 130.297 429.426 131.487L430.186 129.697C429.846 130.507 429.436 131.287 428.976 132.027C428.866 132.197 428.336 133.227 428.146 133.237C428.066 133.237 429.476 131.587 428.856 132.307C428.636 132.567 428.426 132.827 428.196 133.077C427.546 133.807 426.856 134.487 426.126 135.127C425.776 135.437 425.426 135.737 425.066 136.027C424.616 136.397 423.626 137.057 425.686 135.557C425.446 135.727 425.216 135.907 424.986 136.077C420.556 139.297 415.566 141.557 410.726 144.067C398.026 150.627 385.756 157.967 373.476 165.277C370.066 167.307 366.646 169.337 363.226 171.357C361.446 172.407 359.666 173.447 357.876 174.477C356.546 175.247 355.246 176.127 353.826 176.737L355.616 175.977C355.236 176.117 354.856 176.227 354.456 176.307L356.446 176.037C356.016 176.087 355.616 176.087 355.186 176.047L357.176 176.317C356.686 176.237 356.226 176.097 355.766 175.917L357.556 176.677C356.096 176.017 354.756 175.067 353.396 174.227C351.846 173.267 350.296 172.317 348.746 171.357C345.856 169.577 342.956 167.797 340.066 166.027C334.206 162.437 328.336 158.857 322.466 155.277C310.866 148.217 299.246 141.177 287.626 134.137C280.966 130.107 274.306 126.067 267.656 122.027L271.106 130.497C273.076 124.077 275.046 117.657 277.006 111.247L267.776 116.487C286.576 123.767 305.366 131.047 324.166 138.327C325.686 138.917 327.636 138.547 329.046 137.947C330.456 137.347 331.916 136.297 332.636 134.877C334.556 131.067 334.676 127.147 332.576 123.367C331.536 121.487 330.476 119.647 329.506 117.717C327.076 112.837 324.656 107.957 322.226 103.087C317.366 93.3365 312.496 83.5865 307.576 73.8665C306.236 71.2165 304.886 68.5665 303.536 65.9265C302.186 63.2865 300.706 60.6966 299.516 57.9966L300.276 59.7865C299.976 59.0465 299.726 58.3165 299.596 57.5265L299.866 59.5166C299.816 59.1066 299.806 58.7166 299.846 58.3166L299.576 60.3066C299.636 59.9266 299.736 59.5765 299.876 59.2265L299.116 61.0166C299.176 60.8866 299.246 60.7265 299.326 60.6065C299.896 59.8365 298.466 61.6065 298.576 61.5365C298.836 61.3665 299.106 60.9965 299.326 60.7765C300.056 60.0565 298.556 61.4766 298.516 61.3866C298.516 61.3666 298.996 61.0566 299.056 61.0066C299.606 60.6466 300.176 60.3266 300.746 60.0066C303.176 58.6366 305.606 57.2765 308.026 55.9065C312.806 53.2065 317.576 50.4965 322.346 47.7765C331.946 42.2865 341.516 36.7465 351.056 31.1465C353.666 29.6165 356.276 28.0765 358.886 26.5265C361.496 24.9765 363.916 23.2665 366.616 22.0965L364.826 22.8565C365.386 22.6365 365.946 22.4565 366.546 22.3465L364.556 22.6165C364.976 22.5665 365.376 22.5465 365.796 22.5865L363.806 22.3166C364.116 22.3666 364.406 22.4466 364.706 22.5566L362.916 21.7965C363.196 21.9165 363.466 22.1466 363.746 22.2566C362.576 21.3166 362.276 21.0866 362.816 21.5766C362.946 21.7066 363.076 21.8365 363.196 21.9765C363.986 22.7765 361.956 20.1866 362.956 21.6866C363.216 22.0866 363.456 22.4965 363.696 22.9065C365.636 26.3165 370.586 27.7765 373.956 25.5965C377.326 23.4165 378.716 18.9865 376.646 15.3365H376.666Z" fill="#EAB54E"/>
<path d="M381.126 18.9766C382.536 18.1466 383.976 17.4165 385.486 16.7866L383.696 17.5466C386.516 16.3866 389.446 15.5966 392.476 15.1866L390.486 15.4566C393.446 15.0866 396.416 15.0866 399.376 15.4566L397.386 15.1866C400.426 15.5966 403.386 16.3966 406.236 17.5666L404.446 16.8066C406.376 17.6266 408.226 18.5966 409.976 19.7366C410.436 20.0366 410.896 20.3566 411.346 20.6766C411.606 20.8666 412.466 21.5266 411.386 20.6866C410.306 19.8466 411.216 20.5566 411.416 20.7266C412.236 21.3966 413.036 22.1166 413.786 22.8566C414.536 23.5966 415.286 24.4066 415.976 25.2366C416.126 25.4166 416.266 25.5866 416.416 25.7666C417.266 26.7966 415.516 24.5466 415.986 25.2066C416.326 25.6766 416.666 26.1466 416.996 26.6266C418.266 28.5166 419.336 30.5266 420.226 32.6166L419.466 30.8266C420.626 33.6466 421.416 36.5766 421.826 39.6066L421.556 37.6166C421.926 40.5766 421.926 43.5466 421.556 46.5066L421.826 44.5166C421.416 47.5566 420.616 50.5166 419.446 53.3666L420.206 51.5766C419.516 53.1966 418.726 54.7666 417.806 56.2666C417.346 57.0166 416.856 57.7566 416.336 58.4766C415.256 59.9766 417.296 57.3166 416.496 58.2866C416.246 58.5866 416.006 58.8866 415.746 59.1866C414.606 60.5166 413.366 61.7466 412.036 62.8866C411.686 63.1866 411.326 63.4566 410.976 63.7566C412.896 62.1166 411.606 63.2666 411.106 63.6166C410.346 64.1566 409.556 64.6665 408.756 65.1465C405.396 67.1665 403.856 71.9765 406.066 75.4065C408.276 78.8365 412.726 80.2566 416.326 78.0965C423.446 73.8166 429.526 67.3866 432.896 59.7466C434.856 55.3066 436.026 50.9966 436.606 46.1866C437.096 42.0466 436.776 37.9066 436.016 33.8166C432.966 17.3166 418.816 3.43656 402.216 0.856558C397.006 0.0465582 392.086 0.0465631 386.886 0.986563C382.236 1.82656 377.676 3.64655 373.606 6.03655C370.226 8.02655 368.716 12.8866 370.916 16.2966C373.116 19.7066 377.556 21.1166 381.176 18.9866L381.126 18.9766Z" fill="#EAB54E"/>
</svg>
