<svg width="448" height="213" viewBox="0 0 448 213" fill="none" xmlns="http://www.w3.org/2000/svg">
<path d="M135.926 157.14C135.986 157.16 136.046 157.19 136.106 157.21L134.316 156.45C137.596 157.84 140.736 159.61 143.736 161.52C144.986 162.32 146.216 163.15 147.416 164.02C147.756 164.26 148.086 164.51 148.416 164.76C148.586 164.89 148.746 165.03 148.916 165.14C149.086 165.25 147.156 163.76 147.906 164.36C148.656 164.96 149.336 165.5 150.026 166.09C152.826 168.46 155.446 171.06 157.776 173.89C158.236 174.44 159.626 176.34 157.846 173.94C158.146 174.35 158.456 174.75 158.746 175.16C159.396 176.06 160.016 176.99 160.596 177.93C161.856 179.95 162.946 182.06 163.886 184.25L163.126 182.46C164.626 186.02 165.646 189.75 166.166 193.57L165.896 191.58C166.426 195.67 166.376 199.8 165.836 203.89L166.106 201.9C166.076 202.13 166.046 202.35 166.006 202.58C165.706 204.66 165.656 206.47 166.766 208.36C167.676 209.92 169.456 211.4 171.246 211.81C173.166 212.25 175.316 212.15 177.026 211.05C178.546 210.07 180.196 208.45 180.476 206.57C181.636 198.61 181.526 190.62 179.186 182.87C177.126 176.06 173.676 170.04 169.316 164.47C163.326 156.8 155.296 150.55 146.776 145.91C144.556 144.7 142.266 143.63 139.916 142.68C138.226 142 135.636 142.56 134.136 143.44C132.636 144.32 131.096 146.13 130.686 147.92C130.246 149.84 130.346 151.99 131.446 153.7C132.546 155.41 134.016 156.38 135.926 157.15V157.14Z" fill="#BA18DD"/>
<path d="M178.066 103.88C178.066 105.97 177.916 108.06 177.636 110.13L177.906 108.14C177.346 112.05 176.306 115.85 174.776 119.49L175.536 117.7C174.406 120.34 173.056 122.86 171.456 125.25C171.056 125.84 170.636 126.42 170.226 126.99C169.296 128.28 171.326 125.63 170.496 126.64C170.286 126.89 170.086 127.15 169.876 127.4C168.966 128.49 168.016 129.54 167.006 130.55C165.996 131.56 164.956 132.51 163.856 133.42C163.606 133.63 163.346 133.83 163.096 134.04C162.086 134.86 164.566 132.95 163.576 133.67C162.956 134.12 162.336 134.57 161.696 135C159.316 136.6 156.786 137.95 154.146 139.08L155.936 138.32C152.186 139.89 148.266 140.95 144.246 141.49L146.236 141.22C142.196 141.73 138.116 141.72 134.076 141.17L136.066 141.44C132.156 140.88 128.356 139.84 124.716 138.31L126.506 139.07C123.866 137.94 121.346 136.59 118.956 134.99C118.366 134.59 117.786 134.17 117.216 133.76C115.926 132.83 118.576 134.86 117.566 134.03C117.316 133.82 117.056 133.62 116.806 133.41C115.716 132.5 114.666 131.55 113.656 130.54C112.646 129.53 111.696 128.49 110.786 127.39C110.576 127.14 110.376 126.88 110.166 126.63C109.346 125.62 111.256 128.1 110.536 127.11C110.086 126.49 109.636 125.87 109.206 125.23C107.606 122.85 106.256 120.32 105.126 117.68L105.886 119.47C104.316 115.72 103.256 111.8 102.716 107.78L102.986 109.77C102.736 107.81 102.606 105.84 102.606 103.86C102.596 99.94 99.166 96.18 95.106 96.36C91.046 96.54 87.586 99.66 87.606 103.86C87.646 114.46 90.8362 125.21 97.0062 133.88C103.176 142.55 112.166 149.64 122.586 153.5C142.686 160.97 166.806 154.5 180.476 137.99C188.476 128.33 193.006 116.45 193.056 103.86C193.066 99.94 189.596 96.18 185.556 96.36C181.516 96.54 178.076 99.66 178.056 103.86L178.066 103.88Z" fill="#BA18DD"/>
<path d="M206.816 74.8501H231.656C235.576 74.8501 239.336 71.4001 239.156 67.3501C238.976 63.3001 235.856 59.8501 231.656 59.8501H206.816C202.896 59.8501 199.136 63.3001 199.316 67.3501C199.496 71.4001 202.616 74.8501 206.816 74.8501Z" fill="#20AAA1"/>
<path d="M7.50621 45.52H90.6461C94.5661 45.52 98.3261 42.07 98.1461 38.02C97.9661 33.97 94.8461 30.52 90.6461 30.52H7.50621C3.58621 30.52 -0.173787 33.97 0.00621332 38.02C0.186213 42.07 3.30621 45.52 7.50621 45.52Z" fill="#20AAA1"/>
<path d="M162.676 104.69H231.646C235.566 104.69 239.326 101.24 239.146 97.1901C238.966 93.1401 235.846 89.6901 231.646 89.6901H162.676C158.756 89.6901 154.996 93.1401 155.176 97.1901C155.356 101.24 158.476 104.69 162.676 104.69Z" fill="#20AAA1"/>
<path d="M156.666 15H235.786C239.706 15 243.466 11.55 243.286 7.5C243.106 3.45 239.986 0 235.786 0H156.666C152.746 0 148.986 3.45 149.166 7.5C149.346 11.55 152.466 15 156.666 15Z" fill="#20AAA1"/>
<path d="M60.6261 104.69H129.596C133.516 104.69 137.276 101.24 137.096 97.1901C136.916 93.1401 133.796 89.6901 129.596 89.6901H60.6261C56.7061 89.6901 52.9461 93.1401 53.1261 97.1901C53.3061 101.24 56.4261 104.69 60.6261 104.69Z" fill="#20AAA1"/>
<path d="M7.50621 78.4H153.276C160.016 78.4 166.766 78.51 173.496 78.4C173.586 78.4 173.686 78.4 173.776 78.4C177.696 78.4 181.456 74.95 181.276 70.9C181.096 66.85 177.976 63.4 173.776 63.4H28.0062C21.2662 63.4 14.516 63.29 7.786 63.4C7.696 63.4 7.59621 63.4 7.50621 63.4C3.58621 63.4 -0.173787 66.85 0.00621332 70.9C0.186213 74.95 3.30621 78.4 7.50621 78.4Z" fill="#20AAA1"/>
<path d="M285.374 157.4C290.234 155.27 295.084 153.14 299.944 151.01C311.524 145.93 323.094 140.85 334.674 135.76C348.674 129.62 362.664 123.47 376.664 117.33C388.824 111.99 400.984 106.65 413.154 101.31C419.024 98.7398 424.994 96.3198 430.774 93.5698C430.854 93.5298 430.944 93.5 431.024 93.46C432.634 92.75 434.024 90.59 434.474 88.98C434.964 87.18 434.744 84.79 433.714 83.2C432.684 81.61 431.144 80.19 429.234 79.75C427.144 79.27 425.404 79.65 423.454 80.51C418.594 82.64 413.744 84.7699 408.884 86.8999C397.304 91.9799 385.734 97.0599 374.154 102.15C360.154 108.29 346.164 114.44 332.164 120.58C320.004 125.92 307.844 131.26 295.674 136.6C289.804 139.17 283.834 141.59 278.054 144.34C277.974 144.38 277.884 144.41 277.804 144.45C276.194 145.16 274.804 147.32 274.354 148.93C273.864 150.73 274.084 153.12 275.114 154.71C276.144 156.3 277.684 157.72 279.594 158.16C281.684 158.64 283.424 158.26 285.374 157.4Z" fill="#EAB54E"/>
<path d="M277.734 87.3401C282.594 89.4601 287.454 91.5802 292.314 93.7002C303.904 98.7602 315.494 103.82 327.074 108.87C341.084 114.98 355.094 121.1 369.104 127.21C381.274 132.52 393.454 137.84 405.624 143.15C411.504 145.72 417.384 148.29 423.264 150.85C423.344 150.89 423.434 150.92 423.514 150.96C425.434 151.8 427.184 152.3 429.294 151.72C431.034 151.24 432.924 149.9 433.774 148.27C434.694 146.53 435.154 144.42 434.534 142.49C433.974 140.76 432.834 138.77 431.084 138.01C426.224 135.89 421.364 133.77 416.504 131.65L381.744 116.48C367.734 110.37 353.724 104.25 339.714 98.1401C327.544 92.8301 315.364 87.5102 303.194 82.2002C297.314 79.6302 291.434 77.0602 285.554 74.5002C285.474 74.4602 285.384 74.4301 285.304 74.3901C283.384 73.5501 281.634 73.0501 279.524 73.6301C277.784 74.1101 275.894 75.4501 275.044 77.0801C274.124 78.8201 273.664 80.9301 274.284 82.8601C274.844 84.5901 275.984 86.5801 277.734 87.3401Z" fill="#EAB54E"/>
<path d="M413.844 148.56C415.004 148.56 416.144 148.64 417.294 148.78L415.304 148.51C417.634 148.83 419.894 149.45 422.064 150.37L420.274 149.61C421.784 150.27 423.224 151.05 424.584 151.97C424.744 152.08 425.624 152.55 425.644 152.73C425.624 152.53 423.974 151.38 425.144 152.37C425.764 152.89 426.364 153.44 426.944 154.02C427.524 154.6 428.044 155.22 428.574 155.83C429.434 156.83 427.444 154.26 428.204 155.34C428.454 155.7 428.714 156.05 428.954 156.41C429.864 157.78 430.624 159.23 431.274 160.75L430.514 158.96C431.364 161.04 431.944 163.19 432.264 165.42L431.994 163.43C432.284 165.73 432.294 168.03 431.994 170.33L432.264 168.34C431.944 170.67 431.324 172.93 430.404 175.1L431.164 173.31C430.504 174.82 429.724 176.26 428.804 177.62C428.694 177.78 428.224 178.66 428.044 178.68C428.244 178.66 429.394 177.01 428.404 178.18C427.884 178.8 427.334 179.4 426.754 179.98C426.174 180.56 425.554 181.08 424.944 181.61C423.944 182.47 426.514 180.48 425.434 181.24C425.074 181.49 424.724 181.75 424.364 181.99C422.994 182.9 421.544 183.66 420.024 184.31L421.814 183.55C419.734 184.4 417.584 184.98 415.354 185.3L417.344 185.03C415.044 185.32 412.744 185.33 410.444 185.03L412.434 185.3C410.104 184.98 407.844 184.36 405.674 183.44L407.464 184.2C405.954 183.54 404.514 182.76 403.154 181.84C402.994 181.73 402.114 181.26 402.094 181.08C402.114 181.28 403.764 182.43 402.594 181.44C401.974 180.92 401.374 180.37 400.794 179.79C400.214 179.21 399.694 178.59 399.164 177.98C398.304 176.98 400.294 179.55 399.534 178.47C399.284 178.11 399.024 177.76 398.784 177.4C397.874 176.03 397.114 174.58 396.464 173.06L397.224 174.85C396.374 172.77 395.794 170.62 395.474 168.39L395.744 170.38C395.454 168.08 395.444 165.78 395.744 163.48L395.474 165.47C395.794 163.14 396.414 160.88 397.334 158.71L396.574 160.5C397.234 158.99 398.014 157.55 398.934 156.19C399.044 156.03 399.514 155.15 399.694 155.13C399.494 155.15 398.344 156.8 399.334 155.63C399.854 155.01 400.404 154.41 400.984 153.83C401.564 153.25 402.184 152.73 402.794 152.2C403.794 151.34 401.224 153.33 402.304 152.57C402.664 152.32 403.014 152.06 403.374 151.82C404.744 150.91 406.194 150.15 407.714 149.5L405.924 150.26C408.004 149.41 410.154 148.83 412.384 148.51L410.394 148.78C411.544 148.63 412.684 148.56 413.844 148.55C417.764 148.52 421.524 145.12 421.344 141.05C421.164 136.98 418.044 133.52 413.844 133.55C407.234 133.6 400.414 135.54 395.014 139.42C389.144 143.64 384.904 149.15 382.394 155.94C377.774 168.44 381.914 183.8 392.254 192.23C397.954 196.88 404.474 199.57 411.824 200.15C418.444 200.67 425.444 198.89 431.114 195.44C436.614 192.08 441.334 187.06 443.994 181.16C447.064 174.34 447.944 167.09 446.454 159.74C445.054 152.81 440.994 146.02 435.514 141.54C429.314 136.48 421.914 133.58 413.854 133.54C409.934 133.52 406.174 137.01 406.354 141.04C406.534 145.07 409.654 148.52 413.854 148.54L413.844 148.56Z" fill="#EAB54E"/>
<path d="M413.734 46.0201C414.894 46.0201 416.034 46.1001 417.184 46.2401L415.194 45.9701C417.524 46.2901 419.784 46.91 421.954 47.83L420.164 47.0699C421.674 47.7299 423.114 48.5101 424.474 49.4301C424.634 49.5401 425.514 50.0101 425.534 50.1901C425.514 49.9901 423.864 48.84 425.034 49.83C425.654 50.35 426.254 50.9001 426.834 51.4801C427.414 52.0601 427.934 52.6799 428.464 53.2899C429.324 54.2899 427.334 51.7199 428.094 52.7999C428.344 53.1599 428.604 53.51 428.844 53.87C429.754 55.24 430.514 56.6901 431.164 58.2101L430.404 56.42C431.254 58.5 431.834 60.65 432.154 62.88L431.884 60.89C432.174 63.19 432.184 65.4899 431.884 67.7899L432.154 65.7999C431.834 68.1299 431.214 70.3899 430.294 72.5599L431.054 70.7701C430.394 72.2801 429.614 73.72 428.694 75.08C428.584 75.24 428.114 76.12 427.934 76.14C428.134 76.12 429.284 74.47 428.294 75.64C427.774 76.26 427.224 76.8601 426.644 77.4401C426.064 78.0201 425.444 78.5399 424.834 79.0699C423.834 79.9299 426.404 77.9401 425.324 78.7001C424.964 78.9501 424.614 79.2101 424.254 79.4501C422.884 80.3601 421.434 81.1201 419.914 81.7701L421.704 81.0101C419.624 81.8601 417.474 82.4401 415.244 82.7601L417.234 82.4901C414.934 82.7801 412.634 82.7901 410.334 82.4901L412.324 82.7601C409.994 82.4401 407.734 81.82 405.564 80.9L407.354 81.66C405.844 81 404.404 80.2199 403.044 79.2999C402.884 79.1899 402.004 78.7199 401.984 78.5399C402.004 78.7399 403.654 79.89 402.484 78.9C401.864 78.38 401.264 77.8301 400.684 77.2501C400.104 76.6701 399.584 76.0501 399.054 75.4401C398.194 74.4401 400.184 77.0101 399.424 75.9301C399.174 75.5701 398.914 75.22 398.674 74.86C397.764 73.49 397.004 72.0401 396.354 70.5201L397.114 72.3099C396.264 70.2299 395.684 68.08 395.364 65.85L395.634 67.84C395.344 65.54 395.334 63.2401 395.634 60.9401L395.364 62.9301C395.684 60.6001 396.304 58.34 397.224 56.17L396.464 57.9601C397.124 56.4501 397.904 55.01 398.824 53.65C398.934 53.49 399.404 52.61 399.584 52.59C399.384 52.61 398.234 54.26 399.224 53.09C399.744 52.47 400.294 51.8699 400.874 51.2899C401.454 50.7099 402.074 50.19 402.684 49.66C403.684 48.8 401.114 50.7899 402.194 50.0299C402.554 49.7799 402.904 49.5199 403.264 49.2799C404.634 48.3699 406.084 47.6101 407.604 46.9601L405.814 47.7201C407.894 46.8701 410.044 46.2901 412.274 45.9701L410.284 46.2401C411.434 46.0901 412.574 46.0201 413.734 46.0101C417.654 45.9801 421.414 42.5801 421.234 38.5101C421.054 34.4401 417.934 30.9801 413.734 31.0101C407.124 31.0601 400.304 33 394.904 36.88C389.034 41.1 384.794 46.61 382.284 53.4C377.664 65.9 381.804 81.2601 392.144 89.6901C397.844 94.3401 404.364 97.03 411.714 97.61C418.334 98.13 425.334 96.35 431.004 92.9C436.674 89.45 441.224 84.52 443.884 78.62C446.954 71.8 447.834 64.5501 446.344 57.2001C444.944 50.2701 440.884 43.4801 435.404 39.0001C429.204 33.9401 421.804 31.0401 413.744 31.0001C409.824 30.9801 406.064 34.4701 406.244 38.5001C406.424 42.5301 409.544 45.9801 413.744 46.0001L413.734 46.0201Z" fill="#EAB54E"/>
</svg>
