<svg width="340" height="289" viewBox="0 0 340 289" fill="none" xmlns="http://www.w3.org/2000/svg">
<path d="M79.0113 122.867C78.1213 124.017 77.1713 125.107 76.1313 126.127C75.6213 126.627 75.1013 127.117 74.5513 127.587C74.3213 127.787 74.0913 127.987 73.8513 128.177C72.5813 129.217 74.8013 127.497 74.2913 127.847C72.0113 129.447 69.6913 130.847 67.1113 131.937L68.9013 131.177C66.0413 132.357 63.0513 133.157 59.9813 133.567L61.9713 133.297C58.9113 133.687 55.8213 133.687 52.7613 133.297L54.7513 133.567C51.7913 133.157 48.9113 132.387 46.1513 131.237L47.9413 131.997C46.4713 131.367 45.0413 130.647 43.6713 129.807C43.0713 129.437 42.4813 129.047 41.9013 128.637C41.3913 128.277 40.1913 127.207 42.2013 128.896C41.8913 128.636 41.5613 128.387 41.2513 128.117C40.0613 127.107 38.9513 125.997 37.9313 124.817C37.6513 124.497 37.3913 124.157 37.1213 123.837C38.7013 125.647 37.8613 124.807 37.5113 124.327C36.9713 123.587 36.4713 122.817 35.9813 122.047C31.0613 114.187 26.9613 105.847 23.3613 97.3165L24.1213 99.1065C22.3013 94.7765 20.6013 90.3965 18.9813 85.9865C18.2013 83.8465 17.4313 81.7065 16.6813 79.5565C15.9313 77.4065 14.9313 75.3566 14.6213 73.2066L14.8913 75.1965C14.8713 74.9265 14.8713 74.6865 14.8913 74.4165L14.6213 76.4065C14.6613 76.1665 14.7213 75.9665 14.8213 75.7365L14.0613 77.5265C14.4213 76.9065 14.1613 77.2365 13.2913 78.4965C12.0513 79.3565 11.7513 79.6165 12.3913 79.2565L10.6013 80.0166C10.9913 79.8566 11.3713 79.7565 11.7913 79.6965L9.8013 79.9665C18.0913 79.1665 26.5213 78.9866 34.8513 79.0166C43.1813 79.0466 51.6513 79.5166 59.9713 80.6366L57.9813 80.3665C62.0313 80.9165 65.9913 81.5666 69.7913 83.1366L68.0013 82.3765C69.9713 83.2065 71.8513 84.2265 73.6213 85.4265C74.0013 85.6865 74.4113 86.1365 74.8313 86.2965C74.6613 86.2265 73.2113 84.9966 74.1313 85.7666C74.3213 85.9266 74.5113 86.0765 74.7013 86.2365C75.4913 86.9065 76.2413 87.6065 76.9613 88.3465C77.6413 89.0465 78.2713 89.7865 78.9013 90.5365C79.6613 91.4465 78.4413 89.9866 78.3613 89.8266C78.4813 90.0566 78.7313 90.3165 78.8813 90.5265C79.1613 90.9165 79.4413 91.3265 79.7013 91.7265C80.8113 93.4365 81.7613 95.2365 82.5613 97.1165L81.8013 95.3266C83.0013 98.1966 83.8213 101.197 84.2513 104.287L83.9813 102.297C84.3913 105.397 84.3913 108.517 83.9813 111.627L84.2513 109.637C83.8513 112.477 83.1013 115.246 82.0113 117.896L82.7713 116.107C82.2213 117.407 81.5913 118.667 80.8913 119.887C78.9313 123.287 79.9813 128.246 83.5813 130.146C87.1813 132.047 91.7513 131.087 93.8413 127.457C101.651 113.857 101.031 95.7965 91.8313 82.9665C86.7913 75.9465 80.0713 70.7665 71.8713 67.9465C67.0613 66.2865 61.8313 65.8165 56.8113 65.2365C51.2213 64.5965 45.6013 64.2365 39.9813 64.0865C34.3613 63.9365 28.9113 64.0165 23.3813 64.2165C20.6113 64.3165 17.8413 64.4565 15.0713 64.6165C11.6613 64.8165 7.93131 64.6465 4.84131 66.3065C0.761312 68.5065 -0.518692 72.8965 0.181308 77.1965C0.551308 79.4965 1.6213 81.7865 2.3913 83.9765C4.1213 88.9165 5.9213 93.8265 7.8613 98.6865C11.9013 108.797 16.4413 118.737 22.0913 128.057C26.4613 135.257 32.3013 141.407 40.1213 144.837C47.9413 148.267 56.5413 149.297 65.1713 147.867C72.9513 146.577 80.3413 142.747 86.0913 137.387C87.3813 136.187 88.5513 134.877 89.6313 133.487C90.9113 131.847 91.8313 130.357 91.8313 128.187C91.8313 126.347 91.0113 124.147 89.6313 122.887C88.2513 121.627 86.3213 120.597 84.3313 120.687C82.4913 120.767 80.2113 121.357 79.0313 122.887L79.0113 122.867Z" fill="#20AAA1"/>
<path d="M120.541 88.5265C119.431 87.4165 118.371 86.2666 117.371 85.0566C117.141 84.7766 116.921 84.4965 116.691 84.2265C115.831 83.1765 117.881 85.8065 116.891 84.4665C116.431 83.8465 115.991 83.2265 115.571 82.5865C113.891 80.0665 112.461 77.3965 111.281 74.6065L112.041 76.3965C110.361 72.3765 109.221 68.1665 108.631 63.8465L108.901 65.8365C108.341 61.5465 108.341 57.2165 108.901 52.9165L108.631 54.9065C109.221 50.5965 110.361 46.3966 112.041 42.3866L111.281 44.1765C112.241 41.9365 113.351 39.7766 114.631 37.7066C115.251 36.7066 115.901 35.7365 116.591 34.7865C116.761 34.5465 116.941 34.3166 117.121 34.0766C117.651 33.3666 115.951 35.5466 116.711 34.6166C117.121 34.1066 117.541 33.6065 117.971 33.1065C118.761 32.1965 119.591 31.3165 120.441 30.4665C120.991 29.9265 121.551 29.4065 122.131 28.9065C122.351 28.7165 123.361 27.9266 122.351 28.7066C121.341 29.4866 122.431 28.6565 122.591 28.5465C124.931 26.8665 127.481 25.5365 130.131 24.4065L128.341 25.1665C138.541 20.8965 149.721 18.7765 160.631 17.2965L158.641 17.5666C165.581 16.6366 172.561 16.0266 179.541 15.5166C183.131 15.2566 186.671 15.1465 190.261 15.1565C192.001 15.1565 193.741 15.1565 195.481 15.1565C197.051 15.1565 198.681 14.9965 200.251 15.1765L198.261 14.9065C198.481 14.9465 198.661 14.9966 198.861 15.0766L197.071 14.3166C196.181 13.7666 195.461 13.0565 194.921 12.1665L194.161 10.3766C194.261 10.6166 194.311 10.8265 194.361 11.0965L194.091 9.10654C194.351 12.3965 193.981 15.8565 193.861 19.1565C193.741 22.4565 193.571 26.0365 193.361 29.4765C192.941 36.3365 192.311 43.1866 191.411 49.9966L191.681 48.0066C190.901 53.8066 189.911 59.5765 188.661 65.2965C187.631 70.0165 186.571 74.7965 184.701 79.2765L185.461 77.4865C184.351 80.0965 183.001 82.6066 181.391 84.9466C181.001 85.5166 180.581 86.0666 180.171 86.6266C181.871 84.3066 180.331 86.3966 179.861 86.9366C178.971 87.9666 178.041 88.9565 177.051 89.9065C176.061 90.8565 175.051 91.7166 174.001 92.5666C173.031 93.3566 175.611 91.3665 174.601 92.0965C174.291 92.3265 173.981 92.5565 173.671 92.7765C173.121 93.1665 172.561 93.5465 172.001 93.9065C169.741 95.3665 167.351 96.6065 164.871 97.6465L166.661 96.8866C162.651 98.5566 158.451 99.6766 154.151 100.267L156.141 99.9966C151.721 100.577 147.261 100.587 142.851 100.007L144.841 100.277C140.611 99.7065 136.481 98.5966 132.541 96.9466L134.331 97.7066C131.721 96.5966 129.221 95.2566 126.861 93.6866C123.581 91.5066 118.421 92.9366 116.601 96.3766C114.611 100.147 115.791 104.317 119.291 106.637C127.261 111.927 136.671 114.717 146.171 115.337C155.671 115.957 165.131 113.947 173.761 110.017C182.341 106.107 189.681 99.6266 194.831 91.7666C197.551 87.6166 199.601 82.9165 200.951 78.1565C202.801 71.6065 204.141 64.8765 205.231 58.1665C207.511 44.0665 208.561 29.8166 208.971 15.5566C209.101 11.1966 209.871 6.18652 206.461 2.77652C203.271 -0.413475 198.821 0.156539 194.741 0.166539C191.121 0.166539 187.451 -0.023463 183.841 0.226537C180.501 0.456537 177.161 0.696537 173.831 0.976537C159.781 2.14654 145.681 3.92655 132.151 7.98655C126.011 9.82655 119.711 12.1165 114.541 15.9865C109.371 19.8565 105.181 24.5766 101.791 30.0066C90.0913 48.7266 90.8313 74.4066 104.071 92.1766C105.891 94.6166 107.801 96.9766 109.961 99.1266C112.741 101.907 117.831 102.107 120.571 99.1266C123.311 96.1466 123.531 91.4866 120.571 88.5166L120.541 88.5265Z" fill="#20AAA1"/>
<path d="M150.971 43.4565C148.901 44.9465 146.931 46.6065 145.041 48.3265C141.141 51.8665 137.541 55.7365 134.191 59.7865C128.711 66.3965 123.761 73.4365 119.491 80.8865C114.071 90.3265 109.651 100.387 106.191 110.707C101.931 123.417 99.3213 136.596 97.8813 149.916C97.6913 151.676 97.5213 153.437 97.3813 155.207C97.0613 159.127 101.061 162.877 104.881 162.707C109.221 162.517 112.031 159.407 112.381 155.207C112.661 151.857 113.011 148.517 113.451 145.187L113.181 147.176C115.211 132.116 119.061 117.316 124.961 103.296L124.201 105.086C126.901 98.7165 130.001 92.5265 133.531 86.5865C135.051 84.0265 136.651 81.5165 138.331 79.0465C139.131 77.8765 139.941 76.7165 140.781 75.5665C141.161 75.0465 141.541 74.5265 141.921 74.0165C142.401 73.3765 144.091 71.2265 142.141 73.7065C146.661 67.9365 151.571 62.4365 157.121 57.6265C157.821 57.0165 158.541 56.4265 159.271 55.8465C160.311 55.0165 157.301 57.3265 158.351 56.5565C158.411 56.5065 158.481 56.4565 158.541 56.4165C160.171 55.2465 161.441 53.9365 161.991 51.9365C162.481 50.1365 162.261 47.7465 161.231 46.1565C159.201 43.0065 154.371 41.0065 150.971 43.4665V43.4565Z" fill="#20AAA1"/>
<path d="M60.4912 109.507C63.4912 110.807 66.3012 112.726 68.9312 114.646C69.2312 114.866 69.5312 115.086 69.8212 115.306C70.7712 116.016 69.2112 114.836 68.9912 114.656C69.1712 114.806 69.3612 114.936 69.5412 115.086C70.2212 115.626 70.9013 116.176 71.5613 116.746C73.1113 118.066 74.6112 119.436 76.0512 120.866C77.6612 122.466 79.2012 124.126 80.6712 125.846C81.4912 126.806 82.2712 127.787 83.0512 128.767C83.3412 129.137 81.8212 127.157 82.6112 128.197C82.7912 128.437 82.9813 128.686 83.1613 128.926C83.5613 129.466 83.9513 130.006 84.3413 130.556C88.2513 136.086 91.5012 142.046 94.1512 148.276L93.3912 146.486C94.8112 149.866 96.0613 153.306 97.1313 156.806C98.2813 160.546 102.421 163.316 106.361 162.046C110.301 160.776 112.841 156.837 111.601 152.817C107.311 138.907 100.521 125.956 91.0013 114.916C85.5013 108.546 78.9612 102.837 71.7312 98.5065C70.5412 97.7965 69.3313 97.0865 68.0613 96.5365C66.1413 95.7065 64.3913 95.1965 62.2813 95.7765C60.5413 96.2565 58.6512 97.5965 57.8012 99.2265C56.8812 100.966 56.4212 103.077 57.0412 105.007C57.6012 106.737 58.7412 108.726 60.4912 109.486V109.507Z" fill="#20AAA1"/>
<path d="M159.741 151.997C130.941 151.997 102.131 151.997 73.3313 151.997C65.1713 151.997 57.0113 151.997 48.8513 151.997L54.1513 164.797C56.8013 162.147 57.0013 157.877 54.7413 154.947C52.4813 152.017 48.4513 151.317 45.0613 153.017C45.6613 152.767 46.2513 152.517 46.8513 152.257C39.8113 153.817 37.0213 160.917 36.5913 167.357C36.4113 170.087 36.7613 172.817 37.1713 175.507C37.4513 177.337 37.8413 179.177 38.5013 180.907C38.9413 182.067 39.3713 183.297 40.0613 184.337C40.8913 185.587 41.7713 186.567 43.0513 187.367C43.1713 187.447 43.4513 187.667 43.5413 187.637C43.2613 187.737 42.2813 186.487 42.1513 186.307C41.3613 185.247 41.8513 185.937 42.0013 186.267L41.2413 184.477C41.3613 184.847 41.4413 185.217 41.4913 185.597L41.2213 183.607C42.0213 190.077 42.9013 196.537 43.7613 202.997C45.2313 214.017 46.7113 225.037 48.1813 236.057C49.5113 246.007 50.8513 255.957 52.1713 265.907C52.5413 268.657 52.9013 271.397 53.2613 274.147C53.3513 274.827 53.4313 275.517 53.5213 276.197C53.9813 279.817 54.8013 283.117 57.5013 285.787C59.6313 287.887 62.1513 288.117 64.9413 288.117C66.3513 288.117 67.7613 288.117 69.1713 288.117C71.7413 288.117 74.3213 288.117 76.8913 288.117C97.9713 288.117 119.051 288.127 140.131 288.137C142.631 288.137 145.131 288.167 147.631 288.237L145.641 273.507C142.011 274.417 139.791 278.157 140.271 281.737C140.751 285.317 143.881 288.237 147.641 288.237C150.911 288.237 154.061 286.187 155.711 283.427C156.751 281.687 156.941 280.127 157.171 278.167C157.231 277.687 157.281 277.197 157.341 276.717C157.561 274.837 157.781 272.957 157.991 271.077C158.731 264.637 159.471 258.197 160.211 251.757C162.001 236.107 163.781 220.457 165.421 204.787C165.961 199.637 166.231 194.437 166.891 189.307L166.621 191.297C166.961 188.917 167.171 186.557 167.391 184.177L167.121 186.167C167.181 185.727 167.271 185.317 167.411 184.897L166.651 186.687C166.801 186.347 167.041 186.077 166.331 186.967C165.841 187.577 165.271 187.927 164.701 188.457C165.241 187.947 165.941 187.547 166.511 187.077C166.851 186.797 167.171 186.507 167.461 186.177C168.421 185.077 169.321 183.877 169.951 182.557C171.411 179.477 172.061 176.537 172.431 173.157C172.741 170.377 172.491 167.647 172.071 164.897C171.701 162.487 170.911 159.967 169.601 157.897C167.381 154.387 163.961 152.077 159.721 151.977C155.801 151.887 152.041 155.497 152.221 159.477C152.401 163.457 155.511 166.877 159.721 166.977C159.881 166.977 160.041 166.987 160.211 167.007L158.221 166.737C158.481 166.777 158.731 166.847 158.981 166.937L157.191 166.177C158.081 166.557 158.331 167.297 156.631 165.577C156.851 165.797 157.071 166.017 157.291 166.237C156.511 165.467 156.141 164.567 156.801 165.707C157.001 166.057 157.181 166.417 157.341 166.787L156.581 164.997C157.141 166.357 157.461 167.787 157.661 169.237L157.391 167.247C157.661 169.377 157.641 171.527 157.371 173.657L157.641 171.667C157.421 173.277 157.051 174.857 156.431 176.357L157.191 174.567C156.901 175.237 156.521 175.817 156.181 176.447C155.731 177.267 157.531 174.927 156.871 175.557C156.781 175.647 156.701 175.747 156.611 175.837C156.481 175.977 156.341 176.087 156.201 176.227C155.541 176.887 157.741 174.887 157.211 175.437C156.751 175.917 155.731 176.497 155.471 176.757C155.111 177.107 154.891 177.407 154.551 177.847C153.741 178.887 153.141 180.057 152.811 181.357C152.331 183.217 152.441 185.107 152.221 186.987L152.491 184.997C151.771 190.297 151.361 195.617 150.811 200.937C150.111 207.797 149.361 214.647 148.601 221.497C146.941 236.507 145.231 251.517 143.501 266.517C143.051 270.457 142.591 274.407 142.131 278.347L142.401 276.357C142.351 276.677 142.291 276.957 142.181 277.257L142.941 275.467C142.611 276.127 142.851 275.867 143.661 274.687C144.851 273.877 145.121 273.667 144.471 274.047L146.261 273.287C146.061 273.387 145.851 273.457 145.631 273.497L147.621 273.227L149.611 287.957C153.241 287.047 155.461 283.307 154.981 279.727C154.501 276.147 151.381 273.327 147.611 273.227C136.661 272.917 125.671 273.117 114.721 273.117C103.771 273.117 92.8113 273.117 81.8513 273.107C75.5413 273.107 69.2313 273.107 62.9313 273.107L68.2313 275.307C67.3213 274.447 68.9213 276.547 68.5213 275.817C68.3813 275.547 68.2213 275.307 68.0913 275.027L68.8513 276.817C68.5413 276.027 68.3713 275.217 68.2513 274.377L68.5213 276.367C66.9413 264.177 65.3013 251.997 63.6613 239.817C61.5613 224.147 59.4513 208.467 57.3813 192.797C57.0713 190.467 56.7613 188.137 56.4713 185.817C56.2413 184.047 56.2113 182.187 55.6813 180.497C55.1813 178.897 54.3313 177.437 53.1313 176.247C52.5313 175.647 51.8113 175.127 51.0813 174.687C49.9313 173.987 51.6113 175.117 52.0513 175.547C51.2413 174.767 53.3213 177.607 52.7713 176.467C52.6413 176.187 52.4913 175.927 52.3613 175.637L53.1213 177.427C52.2613 175.367 51.8113 173.137 51.5113 170.927L51.7813 172.917C51.4913 170.687 51.3913 168.427 51.6713 166.187L51.4013 168.177C51.5613 167.027 51.8113 165.897 52.2613 164.827L51.5013 166.617C51.6313 166.317 51.7813 166.027 51.9413 165.737C52.0113 165.627 52.2213 165.387 52.2513 165.257C52.2413 165.307 50.7913 166.907 51.4913 166.267C51.6013 166.167 51.7213 166.047 51.8113 165.947C52.4313 165.257 50.1213 167.087 50.7913 166.717C51.0913 166.557 51.3613 166.367 51.6713 166.227L49.8813 166.987C50.8313 166.617 51.5813 166.457 52.5913 165.947L43.5013 154.167C41.3613 156.307 40.7913 159.607 41.9513 162.357C43.1113 165.107 45.7913 166.967 48.8013 166.967C77.6013 166.967 106.411 166.967 135.211 166.967C143.371 166.967 151.531 166.967 159.691 166.967C163.611 166.967 167.371 163.517 167.191 159.467C167.011 155.417 163.891 151.967 159.691 151.967L159.741 151.997Z" fill="#EAB54E"/>
<path d="M47.0013 188.507H147.861C152.491 188.507 157.141 188.597 161.771 188.507C161.831 188.507 161.901 188.507 161.961 188.507C165.881 188.507 169.641 185.057 169.461 181.007C169.281 176.957 166.161 173.507 161.961 173.507H61.1013C56.4713 173.507 51.8213 173.417 47.1913 173.507C47.1313 173.507 47.0613 173.507 47.0013 173.507C43.0813 173.507 39.3213 176.957 39.5013 181.007C39.6813 185.057 42.8013 188.507 47.0013 188.507Z" fill="#EAB54E"/>
<path d="M297.911 212.737C298.401 212.917 298.891 213.107 299.371 213.307L297.581 212.547C298.321 212.867 299.051 213.197 299.761 213.587C300.031 213.737 300.291 213.887 300.551 214.057C300.831 214.237 301.931 215.057 300.711 214.117C299.491 213.177 300.911 214.437 301.231 214.727C299.521 213.177 300.251 213.307 300.591 213.937C300.731 214.187 300.871 214.437 300.991 214.697L300.231 212.907C300.421 213.367 300.551 213.837 300.621 214.327L300.351 212.337C300.421 212.937 300.411 213.517 300.351 214.117L300.621 212.127C300.461 213.277 300.091 214.357 299.651 215.427L300.411 213.637C298.221 218.657 294.861 223.357 291.661 227.777C291.291 228.287 290.921 228.787 290.551 229.287C290.331 229.587 290.101 229.887 289.871 230.187C289.171 231.117 290.341 229.587 290.361 229.557C289.491 230.757 288.511 231.887 287.561 233.027C285.831 235.097 284.031 237.097 282.171 239.047C278.451 242.927 274.461 246.557 270.241 249.897C270.001 250.087 269.771 250.267 269.531 250.457C268.421 251.337 271.041 249.317 269.901 250.167C269.421 250.527 268.941 250.897 268.451 251.247C267.291 252.107 266.111 252.947 264.911 253.757C262.711 255.257 260.471 256.687 258.181 258.047C252.901 261.187 247.391 263.927 241.731 266.327L243.521 265.567C240.791 266.717 238.041 267.787 235.251 268.767C232.461 269.747 229.701 270.847 226.801 271.247L228.791 270.977C227.721 271.097 226.661 271.117 225.591 270.987L227.581 271.257C226.681 271.127 225.821 270.907 224.981 270.577L226.771 271.337C225.921 270.977 225.201 270.487 224.421 269.997C226.491 271.287 225.071 270.497 224.501 269.917C224.141 269.557 223.821 269.167 223.491 268.797C222.971 268.217 224.671 270.447 223.911 269.337C223.771 269.137 223.631 268.937 223.491 268.737C223.171 268.247 222.871 267.747 222.571 267.247C221.921 266.137 221.281 265.017 220.661 263.897C218.281 259.597 216.121 255.177 214.201 250.647L214.961 252.437C210.821 242.547 207.941 232.187 206.491 221.567L206.761 223.557C205.171 211.617 205.381 199.527 206.971 187.597L206.701 189.587C207.331 184.957 208.441 180.387 208.971 175.757L208.701 177.747C208.791 177.097 208.941 176.477 209.191 175.867L208.431 177.657C208.551 177.397 208.711 177.157 208.831 176.897C209.301 175.957 207.381 178.577 208.241 177.707C209.101 176.837 206.491 178.757 207.441 178.317C207.691 178.197 207.931 178.047 208.181 177.937L206.391 178.697C206.901 178.507 207.401 178.387 207.941 178.317L205.951 178.587C206.871 178.497 207.781 178.537 208.701 178.657L206.711 178.387C209.291 178.767 211.721 179.677 214.131 180.637C217.101 181.827 220.081 183.017 223.061 184.197C229.091 186.597 235.131 188.977 241.171 191.337C253.181 196.037 265.231 200.647 277.311 205.177C284.161 207.737 291.021 210.267 297.891 212.767C301.581 214.107 306.271 211.257 307.121 207.527C308.081 203.297 305.841 199.737 301.881 198.297C286.591 192.747 271.371 187.017 256.191 181.157C248.681 178.257 241.181 175.327 233.691 172.367C230.021 170.917 226.361 169.457 222.701 167.997C219.301 166.637 215.901 165.037 212.321 164.217C208.291 163.297 203.991 163.127 200.251 165.157C198.421 166.157 196.861 167.717 195.791 169.507C194.551 171.597 194.221 173.667 193.951 176.027L194.221 174.037C190.451 192.487 189.491 211.237 192.691 229.837C194.081 237.927 196.321 245.867 199.321 253.507C201.051 257.917 202.951 262.257 205.081 266.487C206.901 270.107 208.761 273.927 211.171 277.207C214.091 281.177 217.981 284.697 222.991 285.637C228.001 286.577 232.281 285.597 236.881 284.047C244.811 281.377 252.591 278.117 260.001 274.217C273.981 266.847 286.751 256.887 297.071 244.907C302.571 238.517 307.561 231.607 311.771 224.297C313.741 220.877 315.601 216.837 315.391 212.787C315.131 207.767 312.361 203.907 308.231 201.207C306.291 199.937 304.051 199.087 301.881 198.297C300.151 197.657 297.641 198.147 296.101 199.057C294.561 199.967 293.061 201.747 292.651 203.537C291.681 207.787 293.941 211.307 297.891 212.767L297.911 212.737Z" fill="#BA18DD"/>
<path d="M284.031 142.527C278.151 140.267 272.221 138.077 266.371 135.727L268.161 136.487C267.471 136.187 266.811 135.847 266.181 135.427C264.841 134.537 267.431 136.577 266.491 135.687C266.251 135.457 265.991 135.237 265.761 134.997C265.531 134.757 265.331 134.477 265.091 134.257C266.611 135.697 265.871 135.307 265.481 134.707C265.061 134.057 264.711 133.377 264.401 132.667L265.161 134.457C264.791 133.527 264.531 132.587 264.371 131.597L264.641 133.587C264.491 132.467 264.491 131.367 264.621 130.247L264.351 132.237C264.591 130.657 265.161 129.247 265.721 127.777L268.061 121.687L276.121 100.737L286.011 75.0166L294.661 52.5265C296.061 48.8965 297.471 45.2666 298.851 41.6266C298.911 41.4666 298.971 41.3165 299.031 41.1665L298.271 42.9566C298.571 42.2666 298.911 41.6065 299.331 40.9765C300.221 39.6365 298.181 42.2265 299.071 41.2865C299.301 41.0465 299.521 40.7866 299.761 40.5566C300.001 40.3266 300.281 40.1266 300.501 39.8866C299.061 41.4066 299.451 40.6665 300.051 40.2765C300.701 39.8565 301.381 39.5066 302.091 39.1966L300.301 39.9566C301.231 39.5866 302.171 39.3265 303.161 39.1665L301.171 39.4366C302.291 39.2866 303.391 39.2865 304.511 39.4165L302.521 39.1465C304.081 39.3765 305.481 39.9466 306.941 40.5066L313.051 42.8565C316.321 44.1165 319.601 45.3266 322.851 46.6366L321.061 45.8766C321.751 46.1766 322.411 46.5166 323.041 46.9366C324.381 47.8266 321.791 45.7866 322.731 46.6766C322.971 46.9066 323.231 47.1266 323.461 47.3666C323.691 47.6066 323.891 47.8865 324.131 48.1065C322.611 46.6665 323.351 47.0565 323.741 47.6565C324.161 48.3065 324.511 48.9866 324.821 49.6966L324.061 47.9065C324.431 48.8365 324.691 49.7766 324.851 50.7666L324.581 48.7765C324.731 49.8965 324.731 50.9966 324.601 52.1166L324.871 50.1266C324.631 51.7066 324.061 53.1165 323.501 54.5865L321.161 60.6766L313.101 81.6266C309.801 90.1966 306.501 98.7765 303.211 107.347L294.561 129.837C293.161 133.467 291.751 137.097 290.371 140.737C290.311 140.897 290.251 141.047 290.191 141.197L290.951 139.407C290.651 140.097 290.311 140.757 289.891 141.387C289.001 142.727 291.041 140.137 290.151 141.077C289.921 141.317 289.701 141.577 289.461 141.807C289.221 142.037 288.941 142.237 288.721 142.477C290.161 140.957 289.771 141.697 289.171 142.087C288.521 142.507 287.841 142.857 287.131 143.167L288.921 142.407C287.991 142.777 287.051 143.037 286.061 143.197L288.051 142.927C286.931 143.077 285.831 143.077 284.711 142.947L286.701 143.217C285.781 143.077 284.901 142.847 284.031 142.527C282.291 141.887 279.801 142.377 278.251 143.287C276.701 144.197 275.211 145.977 274.801 147.767C273.831 152.007 276.091 155.537 280.041 156.997C285.661 159.067 292.561 158.077 297.401 154.567C300.031 152.657 302.361 150.287 303.741 147.307C304.151 146.427 304.511 145.537 304.861 144.637C305.681 142.517 306.491 140.397 307.301 138.277L318.891 108.137C323.321 96.6166 327.751 85.1065 332.181 73.5865C334.331 67.9865 336.551 62.4165 338.641 56.7865C340.731 51.1565 339.811 44.6966 336.601 39.9566C334.791 37.2766 332.471 34.9066 329.581 33.3766C328.331 32.7166 326.991 32.2265 325.671 31.7165L310.521 25.8866C306.821 24.4666 303.121 24.0766 299.191 24.7066C293.411 25.6266 287.821 29.8965 285.411 35.2265C284.441 37.3865 283.641 39.6266 282.791 41.8266C279.211 51.1466 275.621 60.4665 272.041 69.7865C267.531 81.5165 263.011 93.2566 258.501 104.987C255.911 111.737 253.291 118.467 250.721 125.227C247.381 133.977 251.391 144.797 259.801 149.057C262.001 150.167 264.431 150.977 266.731 151.857L275.411 155.197C276.951 155.787 278.501 156.387 280.041 156.977C281.751 157.637 284.301 157.107 285.821 156.217C287.341 155.327 288.861 153.527 289.271 151.737C289.711 149.817 289.611 147.667 288.511 145.957C287.411 144.247 285.951 143.247 284.031 142.507V142.527Z" fill="#BA18DD"/>
<path d="M264.011 183.627C261.871 182.807 259.721 182.017 257.601 181.157L259.391 181.917C258.971 181.727 258.591 181.497 258.191 181.267C257.571 180.837 257.811 181.027 258.901 181.837C258.731 181.697 258.571 181.547 258.411 181.387C257.141 180.107 259.131 182.657 258.551 181.627C258.331 181.247 258.111 180.877 257.931 180.477L258.691 182.267C258.391 181.547 258.181 180.837 258.061 180.067L258.331 182.057C258.241 181.277 258.241 180.517 258.351 179.737L258.081 181.727C258.321 180.377 258.891 179.107 259.381 177.837L261.871 171.357L267.731 156.127C268.221 154.857 268.691 153.577 269.201 152.317L268.441 154.107C268.631 153.687 268.861 153.307 269.091 152.907C269.521 152.287 269.331 152.527 268.521 153.617C268.661 153.447 268.811 153.287 268.971 153.127C270.251 151.857 267.701 153.847 268.731 153.267C269.111 153.047 269.481 152.827 269.881 152.647L268.091 153.407C268.811 153.107 269.521 152.897 270.291 152.777L268.301 153.047C269.081 152.957 269.841 152.957 270.621 153.067L268.631 152.797C269.961 153.027 271.221 153.577 272.471 154.087L270.681 153.327C271.101 153.517 271.481 153.747 271.881 153.977C272.501 154.407 272.261 154.217 271.171 153.407C271.341 153.547 271.501 153.697 271.661 153.857C272.931 155.137 270.941 152.587 271.521 153.617C271.741 153.997 271.961 154.367 272.141 154.767L271.381 152.977C271.681 153.697 271.891 154.407 272.011 155.177L271.741 153.187C271.831 153.967 271.831 154.727 271.721 155.507L271.991 153.517C271.731 154.987 271.081 156.397 270.541 157.787L267.651 165.307C265.411 171.117 263.181 176.927 260.941 182.737C260.411 184.107 259.891 185.477 259.361 186.837L260.121 185.047C260.041 185.257 259.941 185.457 259.821 185.647C260.671 184.647 260.891 184.347 260.481 184.767C260.061 185.177 260.351 184.947 261.371 184.097C261.191 184.207 261.001 184.307 260.801 184.387L262.591 183.627C262.271 183.737 261.991 183.807 261.651 183.857L263.641 183.587C263.301 183.607 263.001 183.587 262.661 183.547L264.651 183.817C264.431 183.777 264.211 183.717 264.001 183.637C260.271 182.407 255.641 185.067 254.771 188.877C253.831 193.007 256.021 196.787 260.011 198.107C263.381 199.217 267.191 198.417 269.951 196.287C271.881 194.797 272.961 192.997 273.851 190.757C274.161 189.987 274.451 189.207 274.751 188.427L279.021 177.327L283.821 164.837C284.641 162.707 285.681 160.557 286.261 158.347C287.671 153.057 286.131 147.517 282.471 143.507C280.681 141.547 278.451 140.417 276.031 139.467C275.021 139.067 274.001 138.627 272.941 138.407C267.671 137.307 262.051 138.727 258.251 142.667C256.361 144.627 255.281 146.887 254.331 149.387L245.751 171.687C244.471 175.007 242.951 178.237 243.301 181.917C243.811 187.217 246.601 192.277 251.501 194.747C253.661 195.837 256.051 196.597 258.301 197.467L260.021 198.127C261.731 198.787 264.281 198.257 265.801 197.367C267.321 196.477 268.841 194.677 269.251 192.887C269.691 190.967 269.591 188.817 268.491 187.107C267.391 185.397 265.931 184.397 264.011 183.657V183.627Z" fill="#BA18DD"/>
</svg>
